G04 #@! TF.GenerationSoftware,KiCad,Pcbnew,6.0.8-f2edbf62ab~116~ubuntu20.04.1*
G04 #@! TF.CreationDate,2022-11-14T20:50:25-05:00*
G04 #@! TF.ProjectId,solar_lights,736f6c61-725f-46c6-9967-6874732e6b69,rev?*
G04 #@! TF.SameCoordinates,Original*
G04 #@! TF.FileFunction,Copper,L1,Top*
G04 #@! TF.FilePolarity,Positive*
%FSLAX46Y46*%
G04 Gerber Fmt 4.6, Leading zero omitted, Abs format (unit mm)*
G04 Created by KiCad (PCBNEW 6.0.8-f2edbf62ab~116~ubuntu20.04.1) date 2022-11-14 20:50:25*
%MOMM*%
%LPD*%
G01*
G04 APERTURE LIST*
G04 Aperture macros list*
%AMRoundRect*
0 Rectangle with rounded corners*
0 $1 Rounding radius*
0 $2 $3 $4 $5 $6 $7 $8 $9 X,Y pos of 4 corners*
0 Add a 4 corners polygon primitive as box body*
4,1,4,$2,$3,$4,$5,$6,$7,$8,$9,$2,$3,0*
0 Add four circle primitives for the rounded corners*
1,1,$1+$1,$2,$3*
1,1,$1+$1,$4,$5*
1,1,$1+$1,$6,$7*
1,1,$1+$1,$8,$9*
0 Add four rect primitives between the rounded corners*
20,1,$1+$1,$2,$3,$4,$5,0*
20,1,$1+$1,$4,$5,$6,$7,0*
20,1,$1+$1,$6,$7,$8,$9,0*
20,1,$1+$1,$8,$9,$2,$3,0*%
G04 Aperture macros list end*
G04 #@! TA.AperFunction,ComponentPad*
%ADD10O,3.400000X2.200000*%
G04 #@! TD*
G04 #@! TA.AperFunction,SMDPad,CuDef*
%ADD11RoundRect,0.237500X0.300000X0.237500X-0.300000X0.237500X-0.300000X-0.237500X0.300000X-0.237500X0*%
G04 #@! TD*
G04 #@! TA.AperFunction,SMDPad,CuDef*
%ADD12R,4.000000X4.000000*%
G04 #@! TD*
G04 #@! TA.AperFunction,SMDPad,CuDef*
%ADD13RoundRect,0.237500X0.237500X-0.250000X0.237500X0.250000X-0.237500X0.250000X-0.237500X-0.250000X0*%
G04 #@! TD*
G04 #@! TA.AperFunction,ConnectorPad*
%ADD14C,5.000000*%
G04 #@! TD*
G04 #@! TA.AperFunction,ComponentPad*
%ADD15C,2.900000*%
G04 #@! TD*
G04 #@! TA.AperFunction,SMDPad,CuDef*
%ADD16RoundRect,0.249999X0.512501X1.425001X-0.512501X1.425001X-0.512501X-1.425001X0.512501X-1.425001X0*%
G04 #@! TD*
G04 #@! TA.AperFunction,SMDPad,CuDef*
%ADD17RoundRect,0.237500X0.250000X0.237500X-0.250000X0.237500X-0.250000X-0.237500X0.250000X-0.237500X0*%
G04 #@! TD*
G04 #@! TA.AperFunction,SMDPad,CuDef*
%ADD18RoundRect,0.150000X0.150000X-0.587500X0.150000X0.587500X-0.150000X0.587500X-0.150000X-0.587500X0*%
G04 #@! TD*
G04 #@! TA.AperFunction,SMDPad,CuDef*
%ADD19RoundRect,0.237500X0.287500X0.237500X-0.287500X0.237500X-0.287500X-0.237500X0.287500X-0.237500X0*%
G04 #@! TD*
G04 #@! TA.AperFunction,SMDPad,CuDef*
%ADD20R,1.850000X1.730000*%
G04 #@! TD*
G04 #@! TA.AperFunction,SMDPad,CuDef*
%ADD21RoundRect,0.100000X-0.100000X0.612500X-0.100000X-0.612500X0.100000X-0.612500X0.100000X0.612500X0*%
G04 #@! TD*
G04 #@! TA.AperFunction,ComponentPad*
%ADD22C,0.500000*%
G04 #@! TD*
G04 #@! TA.AperFunction,SMDPad,CuDef*
%ADD23RoundRect,0.237500X0.237500X-0.300000X0.237500X0.300000X-0.237500X0.300000X-0.237500X-0.300000X0*%
G04 #@! TD*
G04 #@! TA.AperFunction,ViaPad*
%ADD24C,0.800000*%
G04 #@! TD*
G04 #@! TA.AperFunction,Conductor*
%ADD25C,0.600000*%
G04 #@! TD*
G04 #@! TA.AperFunction,Conductor*
%ADD26C,0.320000*%
G04 #@! TD*
G04 APERTURE END LIST*
D10*
X142683500Y-111331000D03*
X138683500Y-111331000D03*
X134683500Y-111331000D03*
X142683500Y-108331000D03*
X138683500Y-108331000D03*
X134683500Y-108331000D03*
D11*
X168756500Y-106172000D03*
X167031500Y-106172000D03*
D12*
X125984000Y-100076000D03*
D13*
X152400000Y-106068500D03*
X152400000Y-104243500D03*
X161544000Y-102004500D03*
X161544000Y-100179500D03*
D14*
X164084000Y-111506000D03*
D15*
X164084000Y-111506000D03*
D16*
X156911500Y-100076000D03*
X150936500Y-100076000D03*
D17*
X179474500Y-100076000D03*
X177649500Y-100076000D03*
D15*
X145796000Y-102616000D03*
D14*
X145796000Y-102616000D03*
D18*
X160594000Y-106093500D03*
X162494000Y-106093500D03*
X161544000Y-104218500D03*
D12*
X187960000Y-100076000D03*
D13*
X155448000Y-106068500D03*
X155448000Y-104243500D03*
X168656000Y-111553000D03*
X168656000Y-109728000D03*
D14*
X139192000Y-102616000D03*
D15*
X139192000Y-102616000D03*
D14*
X188976000Y-106680000D03*
D15*
X188976000Y-106680000D03*
X182880000Y-112776000D03*
D14*
X182880000Y-112776000D03*
D15*
X182880000Y-106680000D03*
D14*
X182880000Y-106680000D03*
D19*
X173341000Y-110998000D03*
X171591000Y-110998000D03*
D20*
X172466000Y-105410000D03*
D21*
X173441000Y-103247500D03*
X172791000Y-103247500D03*
X172141000Y-103247500D03*
X171491000Y-103247500D03*
X171491000Y-107572500D03*
X172141000Y-107572500D03*
X172791000Y-107572500D03*
X173441000Y-107572500D03*
D22*
X173116000Y-105960000D03*
X171816000Y-105960000D03*
X171816000Y-104860000D03*
X173116000Y-104860000D03*
D14*
X156972000Y-111506000D03*
D15*
X156972000Y-111506000D03*
X188976000Y-112776000D03*
D14*
X188976000Y-112776000D03*
D23*
X175514000Y-107442000D03*
X175514000Y-105717000D03*
D24*
X176276000Y-101600000D03*
X174752000Y-101600000D03*
X172466000Y-109220000D03*
D25*
X168656000Y-109728000D02*
X168656000Y-106272500D01*
X168656000Y-106272500D02*
X168756500Y-106172000D01*
X168656000Y-111553000D02*
X168609000Y-111506000D01*
X168609000Y-111506000D02*
X156972000Y-111506000D01*
X171460000Y-115560000D02*
X177649500Y-109370500D01*
X177649500Y-109370500D02*
X177649500Y-100076000D01*
D26*
X161544000Y-104218500D02*
X161622500Y-104140000D01*
X161622500Y-104140000D02*
X166370000Y-104140000D01*
X166370000Y-104140000D02*
X169670500Y-100839500D01*
X169670500Y-100839500D02*
X172721500Y-100839500D01*
X172721500Y-100839500D02*
X173482000Y-101600000D01*
X173482000Y-101600000D02*
X173482000Y-103206500D01*
X173482000Y-103206500D02*
X173441000Y-103247500D01*
D25*
X161544000Y-100179500D02*
X177546000Y-100179500D01*
X177546000Y-100179500D02*
X177649500Y-100076000D01*
X187960000Y-100076000D02*
X179474500Y-100076000D01*
X138683500Y-111331000D02*
X142912500Y-115560000D01*
X142912500Y-115560000D02*
X171460000Y-115560000D01*
X142683500Y-111331000D02*
X142683500Y-112457500D01*
X142683500Y-112457500D02*
X144986000Y-114760000D01*
X144986000Y-114760000D02*
X170990000Y-114760000D01*
X170990000Y-114760000D02*
X173341000Y-112409000D01*
X173341000Y-112409000D02*
X173341000Y-110998000D01*
D26*
X175514000Y-107442000D02*
X173571500Y-107442000D01*
X173571500Y-107442000D02*
X173441000Y-107572500D01*
X171491000Y-107572500D02*
X171491000Y-110898000D01*
X171491000Y-110898000D02*
X171591000Y-110998000D01*
X173441000Y-107572500D02*
X173441000Y-110898000D01*
X173441000Y-110898000D02*
X173341000Y-110998000D01*
X168656000Y-106082500D02*
X171491000Y-103247500D01*
D25*
X139192000Y-102616000D02*
X145796000Y-102616000D01*
X152296500Y-106172000D02*
X152400000Y-106068500D01*
X150936500Y-100076000D02*
X150936500Y-105216500D01*
X148396500Y-102616000D02*
X150936500Y-100076000D01*
X151892000Y-106172000D02*
X152296500Y-106172000D01*
X145796000Y-102616000D02*
X148396500Y-102616000D01*
X150936500Y-105216500D02*
X151892000Y-106172000D01*
D26*
X158574500Y-106093500D02*
X156621000Y-104140000D01*
D25*
X152400000Y-104243500D02*
X155448000Y-104243500D01*
D26*
X160594000Y-106093500D02*
X158574500Y-106093500D01*
X156621000Y-104140000D02*
X155551500Y-104140000D01*
X155551500Y-104140000D02*
X155448000Y-104243500D01*
X161544000Y-102004500D02*
X161544000Y-104218500D01*
D25*
X156911500Y-100076000D02*
X161440500Y-100076000D01*
X161440500Y-100076000D02*
X161544000Y-100179500D01*
X161544000Y-100179500D02*
X161544000Y-100076000D01*
G04 #@! TA.AperFunction,Conductor*
G36*
X123570053Y-97556002D02*
G01*
X123616546Y-97609658D01*
X123626650Y-97679932D01*
X123602758Y-97737565D01*
X123539214Y-97822352D01*
X123530676Y-97837946D01*
X123485522Y-97958394D01*
X123481895Y-97973649D01*
X123476369Y-98024514D01*
X123476000Y-98031328D01*
X123476000Y-99803885D01*
X123480475Y-99819124D01*
X123481865Y-99820329D01*
X123489548Y-99822000D01*
X128473884Y-99822000D01*
X128489123Y-99817525D01*
X128490328Y-99816135D01*
X128491999Y-99808452D01*
X128491999Y-98031331D01*
X128491629Y-98024510D01*
X128486105Y-97973648D01*
X128482479Y-97958396D01*
X128437324Y-97837946D01*
X128428786Y-97822352D01*
X128365242Y-97737565D01*
X128340394Y-97671059D01*
X128355447Y-97601676D01*
X128405621Y-97551446D01*
X128466068Y-97536000D01*
X192406000Y-97536000D01*
X192474121Y-97556002D01*
X192520614Y-97609658D01*
X192532000Y-97662000D01*
X192532000Y-116206000D01*
X192511998Y-116274121D01*
X192458342Y-116320614D01*
X192406000Y-116332000D01*
X171685978Y-116332000D01*
X171617857Y-116311998D01*
X171571364Y-116258342D01*
X171561260Y-116188068D01*
X171590754Y-116123488D01*
X171645327Y-116090509D01*
X171644201Y-116087577D01*
X171652223Y-116084498D01*
X171660583Y-116082537D01*
X171699037Y-116061397D01*
X171709683Y-116056182D01*
X171742063Y-116042170D01*
X171742067Y-116042168D01*
X171749946Y-116038758D01*
X171761775Y-116029179D01*
X171780363Y-116016688D01*
X171793715Y-116009348D01*
X171799245Y-116004574D01*
X171800140Y-116003802D01*
X171800147Y-116003796D01*
X171801891Y-116002290D01*
X171826634Y-115977547D01*
X171836435Y-115968721D01*
X171861338Y-115948556D01*
X171861341Y-115948553D01*
X171868013Y-115943150D01*
X171879038Y-115927636D01*
X171892645Y-115911536D01*
X172726500Y-115077681D01*
X180943860Y-115077681D01*
X180943878Y-115077933D01*
X180949793Y-115086677D01*
X180981111Y-115115174D01*
X180986748Y-115119738D01*
X181262544Y-115317918D01*
X181268682Y-115321813D01*
X181565435Y-115486984D01*
X181571955Y-115490136D01*
X181885738Y-115620109D01*
X181892589Y-115622495D01*
X182219212Y-115715536D01*
X182226301Y-115717120D01*
X182561465Y-115772006D01*
X182568671Y-115772763D01*
X182907926Y-115788762D01*
X182915176Y-115788686D01*
X183254010Y-115765587D01*
X183261219Y-115764676D01*
X183595160Y-115702784D01*
X183602190Y-115701057D01*
X183926819Y-115601187D01*
X183933597Y-115598667D01*
X184244603Y-115462145D01*
X184251043Y-115458864D01*
X184544293Y-115287502D01*
X184550326Y-115283493D01*
X184808828Y-115089405D01*
X184817282Y-115078078D01*
X184817065Y-115077681D01*
X187039860Y-115077681D01*
X187039878Y-115077933D01*
X187045793Y-115086677D01*
X187077111Y-115115174D01*
X187082748Y-115119738D01*
X187358544Y-115317918D01*
X187364682Y-115321813D01*
X187661435Y-115486984D01*
X187667955Y-115490136D01*
X187981738Y-115620109D01*
X187988589Y-115622495D01*
X188315212Y-115715536D01*
X188322301Y-115717120D01*
X188657465Y-115772006D01*
X188664671Y-115772763D01*
X189003926Y-115788762D01*
X189011176Y-115788686D01*
X189350010Y-115765587D01*
X189357219Y-115764676D01*
X189691160Y-115702784D01*
X189698190Y-115701057D01*
X190022819Y-115601187D01*
X190029597Y-115598667D01*
X190340603Y-115462145D01*
X190347043Y-115458864D01*
X190640293Y-115287502D01*
X190646326Y-115283493D01*
X190904828Y-115089405D01*
X190913282Y-115078078D01*
X190906537Y-115065748D01*
X188988810Y-113148020D01*
X188974869Y-113140408D01*
X188973034Y-113140539D01*
X188966420Y-113144790D01*
X187047474Y-115063737D01*
X187039860Y-115077681D01*
X184817065Y-115077681D01*
X184810537Y-115065748D01*
X182892810Y-113148020D01*
X182878869Y-113140408D01*
X182877034Y-113140539D01*
X182870420Y-113144790D01*
X180951474Y-115063737D01*
X180943860Y-115077681D01*
X172726500Y-115077681D01*
X175119194Y-112684987D01*
X179868484Y-112684987D01*
X179877374Y-113024505D01*
X179877980Y-113031721D01*
X179925835Y-113367963D01*
X179927269Y-113375074D01*
X180013455Y-113703595D01*
X180015692Y-113710478D01*
X180139064Y-114026914D01*
X180142081Y-114033503D01*
X180301002Y-114333652D01*
X180304761Y-114339860D01*
X180497129Y-114619757D01*
X180501574Y-114625486D01*
X180568743Y-114702484D01*
X180581917Y-114710888D01*
X180591769Y-114705020D01*
X182507980Y-112788810D01*
X182514357Y-112777131D01*
X183244408Y-112777131D01*
X183244539Y-112778966D01*
X183248790Y-112785580D01*
X185166268Y-114703057D01*
X185179622Y-114710349D01*
X185189594Y-114703295D01*
X185296641Y-114575267D01*
X185300957Y-114569456D01*
X185487432Y-114285575D01*
X185491046Y-114279313D01*
X185643658Y-113975882D01*
X185646530Y-113969244D01*
X185763249Y-113650293D01*
X185765348Y-113643338D01*
X185805121Y-113477676D01*
X185840473Y-113416107D01*
X185903499Y-113383425D01*
X185974190Y-113390006D01*
X186030102Y-113433760D01*
X186049515Y-113475118D01*
X186109454Y-113703590D01*
X186111692Y-113710478D01*
X186235064Y-114026914D01*
X186238081Y-114033503D01*
X186397002Y-114333652D01*
X186400761Y-114339860D01*
X186593129Y-114619757D01*
X186597574Y-114625486D01*
X186664743Y-114702484D01*
X186677917Y-114710888D01*
X186687769Y-114705020D01*
X188603980Y-112788810D01*
X188610357Y-112777131D01*
X189340408Y-112777131D01*
X189340539Y-112778966D01*
X189344790Y-112785580D01*
X191262268Y-114703057D01*
X191275622Y-114710349D01*
X191285594Y-114703295D01*
X191392641Y-114575267D01*
X191396957Y-114569456D01*
X191583432Y-114285575D01*
X191587046Y-114279313D01*
X191739658Y-113975882D01*
X191742530Y-113969244D01*
X191859249Y-113650293D01*
X191861345Y-113643351D01*
X191940631Y-113313103D01*
X191941915Y-113305964D01*
X191982816Y-112967973D01*
X191983240Y-112962403D01*
X191989010Y-112778797D01*
X191988937Y-112773204D01*
X191969338Y-112433303D01*
X191968506Y-112426113D01*
X191910113Y-112091529D01*
X191908458Y-112084474D01*
X191811998Y-111758834D01*
X191809540Y-111752006D01*
X191676290Y-111439608D01*
X191673073Y-111433125D01*
X191504788Y-111138089D01*
X191500856Y-111132034D01*
X191299774Y-110858295D01*
X191295166Y-110852726D01*
X191289830Y-110846984D01*
X191276178Y-110838866D01*
X191275570Y-110838887D01*
X191267092Y-110844119D01*
X189348020Y-112763190D01*
X189340408Y-112777131D01*
X188610357Y-112777131D01*
X188611592Y-112774869D01*
X188611461Y-112773034D01*
X188607210Y-112766420D01*
X186688374Y-110847585D01*
X186675581Y-110840599D01*
X186664827Y-110848464D01*
X186504037Y-111053527D01*
X186499902Y-111059476D01*
X186322440Y-111349068D01*
X186319019Y-111355447D01*
X186176016Y-111663522D01*
X186173356Y-111670241D01*
X186066711Y-111992707D01*
X186064835Y-111999708D01*
X186052383Y-112059835D01*
X186018982Y-112122484D01*
X185957013Y-112157130D01*
X185886150Y-112152773D01*
X185828892Y-112110796D01*
X185808190Y-112070069D01*
X185715998Y-111758834D01*
X185713540Y-111752006D01*
X185580290Y-111439608D01*
X185577073Y-111433125D01*
X185408788Y-111138089D01*
X185404856Y-111132034D01*
X185203774Y-110858295D01*
X185199166Y-110852726D01*
X185193830Y-110846984D01*
X185180178Y-110838866D01*
X185179570Y-110838887D01*
X185171092Y-110844119D01*
X183252020Y-112763190D01*
X183244408Y-112777131D01*
X182514357Y-112777131D01*
X182515592Y-112774869D01*
X182515461Y-112773034D01*
X182511210Y-112766420D01*
X180592374Y-110847585D01*
X180579581Y-110840599D01*
X180568827Y-110848464D01*
X180408037Y-111053527D01*
X180403902Y-111059476D01*
X180226440Y-111349068D01*
X180223019Y-111355447D01*
X180080016Y-111663522D01*
X180077356Y-111670241D01*
X179970711Y-111992707D01*
X179968834Y-111999711D01*
X179899961Y-112332288D01*
X179898904Y-112339449D01*
X179868712Y-112677735D01*
X179868484Y-112684987D01*
X175119194Y-112684987D01*
X178030913Y-109773268D01*
X178034721Y-109769615D01*
X178074448Y-109733084D01*
X178074449Y-109733083D01*
X178080766Y-109727274D01*
X178103881Y-109689994D01*
X178110604Y-109680212D01*
X178131938Y-109652105D01*
X178137130Y-109645265D01*
X178142737Y-109631104D01*
X178152800Y-109611098D01*
X178156294Y-109605463D01*
X178156298Y-109605454D01*
X178160823Y-109598156D01*
X178173065Y-109556020D01*
X178176909Y-109544793D01*
X178193056Y-109504010D01*
X178194648Y-109488867D01*
X178198959Y-109466894D01*
X178201367Y-109458604D01*
X178203209Y-109452265D01*
X178204000Y-109441493D01*
X178204000Y-109406495D01*
X178204690Y-109393324D01*
X178208039Y-109361463D01*
X178208937Y-109352919D01*
X178205763Y-109334154D01*
X178204000Y-109313152D01*
X178204000Y-108981681D01*
X180943860Y-108981681D01*
X180943878Y-108981933D01*
X180949793Y-108990677D01*
X180981111Y-109019174D01*
X180986748Y-109023738D01*
X181262544Y-109221918D01*
X181268682Y-109225813D01*
X181565435Y-109390984D01*
X181571955Y-109394136D01*
X181885738Y-109524109D01*
X181892589Y-109526495D01*
X182177758Y-109607727D01*
X182237793Y-109645626D01*
X182267807Y-109709966D01*
X182258272Y-109780319D01*
X182212215Y-109834349D01*
X182170081Y-109852014D01*
X182073264Y-109873124D01*
X182066285Y-109875072D01*
X181744960Y-109985086D01*
X181738253Y-109987823D01*
X181431707Y-110134039D01*
X181425349Y-110137534D01*
X181137654Y-110318005D01*
X181131731Y-110322214D01*
X180953601Y-110464923D01*
X180945132Y-110477048D01*
X180951527Y-110488316D01*
X182867190Y-112403980D01*
X182881131Y-112411592D01*
X182882966Y-112411461D01*
X182889580Y-112407210D01*
X184807074Y-110489716D01*
X184814466Y-110476179D01*
X184807679Y-110466479D01*
X184704476Y-110378335D01*
X184698704Y-110373953D01*
X184416796Y-110184519D01*
X184410575Y-110180839D01*
X184108757Y-110025060D01*
X184102146Y-110022116D01*
X183784439Y-109902065D01*
X183777513Y-109899894D01*
X183589098Y-109852568D01*
X183527902Y-109816573D01*
X183495881Y-109753208D01*
X183503201Y-109682590D01*
X183547539Y-109627139D01*
X183591857Y-109608560D01*
X183591633Y-109607650D01*
X183602190Y-109605057D01*
X183926819Y-109505187D01*
X183933597Y-109502667D01*
X184244603Y-109366145D01*
X184251043Y-109362864D01*
X184544293Y-109191502D01*
X184550326Y-109187493D01*
X184808828Y-108993405D01*
X184817282Y-108982078D01*
X184817065Y-108981681D01*
X187039860Y-108981681D01*
X187039878Y-108981933D01*
X187045793Y-108990677D01*
X187077111Y-109019174D01*
X187082748Y-109023738D01*
X187358544Y-109221918D01*
X187364682Y-109225813D01*
X187661435Y-109390984D01*
X187667955Y-109394136D01*
X187981738Y-109524109D01*
X187988589Y-109526495D01*
X188273758Y-109607727D01*
X188333793Y-109645626D01*
X188363807Y-109709966D01*
X188354272Y-109780319D01*
X188308215Y-109834349D01*
X188266081Y-109852014D01*
X188169264Y-109873124D01*
X188162285Y-109875072D01*
X187840960Y-109985086D01*
X187834253Y-109987823D01*
X187527707Y-110134039D01*
X187521349Y-110137534D01*
X187233654Y-110318005D01*
X187227731Y-110322214D01*
X187049601Y-110464923D01*
X187041132Y-110477048D01*
X187047527Y-110488316D01*
X188963190Y-112403980D01*
X188977131Y-112411592D01*
X188978966Y-112411461D01*
X188985580Y-112407210D01*
X190903074Y-110489716D01*
X190910466Y-110476179D01*
X190903679Y-110466479D01*
X190800476Y-110378335D01*
X190794704Y-110373953D01*
X190512796Y-110184519D01*
X190506575Y-110180839D01*
X190204757Y-110025060D01*
X190198146Y-110022116D01*
X189880439Y-109902065D01*
X189873513Y-109899894D01*
X189685098Y-109852568D01*
X189623902Y-109816573D01*
X189591881Y-109753208D01*
X189599201Y-109682590D01*
X189643539Y-109627139D01*
X189687857Y-109608560D01*
X189687633Y-109607650D01*
X189698190Y-109605057D01*
X190022819Y-109505187D01*
X190029597Y-109502667D01*
X190340603Y-109366145D01*
X190347043Y-109362864D01*
X190640293Y-109191502D01*
X190646326Y-109187493D01*
X190904828Y-108993405D01*
X190913282Y-108982078D01*
X190906537Y-108969748D01*
X188988810Y-107052020D01*
X188974869Y-107044408D01*
X188973034Y-107044539D01*
X188966420Y-107048790D01*
X187047474Y-108967737D01*
X187039860Y-108981681D01*
X184817065Y-108981681D01*
X184810537Y-108969748D01*
X182892810Y-107052020D01*
X182878869Y-107044408D01*
X182877034Y-107044539D01*
X182870420Y-107048790D01*
X180951474Y-108967737D01*
X180943860Y-108981681D01*
X178204000Y-108981681D01*
X178204000Y-106588987D01*
X179868484Y-106588987D01*
X179877374Y-106928505D01*
X179877980Y-106935721D01*
X179925835Y-107271963D01*
X179927269Y-107279074D01*
X180013455Y-107607595D01*
X180015692Y-107614478D01*
X180139064Y-107930914D01*
X180142081Y-107937503D01*
X180301002Y-108237652D01*
X180304761Y-108243860D01*
X180497129Y-108523757D01*
X180501574Y-108529486D01*
X180568743Y-108606484D01*
X180581917Y-108614888D01*
X180591769Y-108609020D01*
X182507980Y-106692810D01*
X182514357Y-106681131D01*
X183244408Y-106681131D01*
X183244539Y-106682966D01*
X183248790Y-106689580D01*
X185166268Y-108607057D01*
X185179622Y-108614349D01*
X185189594Y-108607295D01*
X185296641Y-108479267D01*
X185300957Y-108473456D01*
X185487432Y-108189575D01*
X185491046Y-108183313D01*
X185643658Y-107879882D01*
X185646530Y-107873244D01*
X185763249Y-107554293D01*
X185765348Y-107547338D01*
X185805121Y-107381676D01*
X185840473Y-107320107D01*
X185903499Y-107287425D01*
X185974190Y-107294006D01*
X186030102Y-107337760D01*
X186049515Y-107379118D01*
X186109454Y-107607590D01*
X186111692Y-107614478D01*
X186235064Y-107930914D01*
X186238081Y-107937503D01*
X186397002Y-108237652D01*
X186400761Y-108243860D01*
X186593129Y-108523757D01*
X186597574Y-108529486D01*
X186664743Y-108606484D01*
X186677917Y-108614888D01*
X186687769Y-108609020D01*
X188603980Y-106692810D01*
X188610357Y-106681131D01*
X189340408Y-106681131D01*
X189340539Y-106682966D01*
X189344790Y-106689580D01*
X191262268Y-108607057D01*
X191275622Y-108614349D01*
X191285594Y-108607295D01*
X191392641Y-108479267D01*
X191396957Y-108473456D01*
X191583432Y-108189575D01*
X191587046Y-108183313D01*
X191739658Y-107879882D01*
X191742530Y-107873244D01*
X191859249Y-107554293D01*
X191861345Y-107547351D01*
X191940631Y-107217103D01*
X191941915Y-107209964D01*
X191982816Y-106871973D01*
X191983240Y-106866403D01*
X191989010Y-106682797D01*
X191988937Y-106677204D01*
X191969338Y-106337303D01*
X191968506Y-106330113D01*
X191910113Y-105995529D01*
X191908458Y-105988474D01*
X191811998Y-105662834D01*
X191809540Y-105656006D01*
X191676290Y-105343608D01*
X191673073Y-105337125D01*
X191504788Y-105042089D01*
X191500856Y-105036034D01*
X191299774Y-104762295D01*
X191295166Y-104756726D01*
X191289830Y-104750984D01*
X191276178Y-104742866D01*
X191275570Y-104742887D01*
X191267092Y-104748119D01*
X189348020Y-106667190D01*
X189340408Y-106681131D01*
X188610357Y-106681131D01*
X188611592Y-106678869D01*
X188611461Y-106677034D01*
X188607210Y-106670420D01*
X186688374Y-104751585D01*
X186675581Y-104744599D01*
X186664827Y-104752464D01*
X186504037Y-104957527D01*
X186499902Y-104963476D01*
X186322440Y-105253068D01*
X186319019Y-105259447D01*
X186176016Y-105567522D01*
X186173356Y-105574241D01*
X186066711Y-105896707D01*
X186064835Y-105903708D01*
X186052383Y-105963835D01*
X186018982Y-106026484D01*
X185957013Y-106061130D01*
X185886150Y-106056773D01*
X185828892Y-106014796D01*
X185808190Y-105974069D01*
X185715998Y-105662834D01*
X185713540Y-105656006D01*
X185580290Y-105343608D01*
X185577073Y-105337125D01*
X185408788Y-105042089D01*
X185404856Y-105036034D01*
X185203774Y-104762295D01*
X185199166Y-104756726D01*
X185193830Y-104750984D01*
X185180178Y-104742866D01*
X185179570Y-104742887D01*
X185171092Y-104748119D01*
X183252020Y-106667190D01*
X183244408Y-106681131D01*
X182514357Y-106681131D01*
X182515592Y-106678869D01*
X182515461Y-106677034D01*
X182511210Y-106670420D01*
X180592374Y-104751585D01*
X180579581Y-104744599D01*
X180568827Y-104752464D01*
X180408037Y-104957527D01*
X180403902Y-104963476D01*
X180226440Y-105253068D01*
X180223019Y-105259447D01*
X180080016Y-105567522D01*
X180077356Y-105574241D01*
X179970711Y-105896707D01*
X179968834Y-105903711D01*
X179899961Y-106236288D01*
X179898904Y-106243449D01*
X179868712Y-106581735D01*
X179868484Y-106588987D01*
X178204000Y-106588987D01*
X178204000Y-104381048D01*
X180945132Y-104381048D01*
X180951527Y-104392316D01*
X182086223Y-105527013D01*
X182867190Y-106307980D01*
X182881131Y-106315592D01*
X182882966Y-106315461D01*
X182889580Y-106311210D01*
X184807074Y-104393716D01*
X184813991Y-104381048D01*
X187041132Y-104381048D01*
X187047527Y-104392316D01*
X188963190Y-106307980D01*
X188977131Y-106315592D01*
X188978966Y-106315461D01*
X188985580Y-106311210D01*
X190903074Y-104393716D01*
X190910466Y-104380179D01*
X190903679Y-104370479D01*
X190800476Y-104282335D01*
X190794704Y-104277953D01*
X190512796Y-104088519D01*
X190506575Y-104084839D01*
X190204757Y-103929060D01*
X190198146Y-103926116D01*
X189880439Y-103806065D01*
X189873513Y-103803894D01*
X189544112Y-103721155D01*
X189537005Y-103719799D01*
X189200278Y-103675468D01*
X189193036Y-103674937D01*
X188853467Y-103669602D01*
X188846205Y-103669906D01*
X188508256Y-103703638D01*
X188501108Y-103704770D01*
X188169263Y-103777124D01*
X188162285Y-103779072D01*
X187840960Y-103889086D01*
X187834253Y-103891823D01*
X187527707Y-104038039D01*
X187521349Y-104041534D01*
X187233654Y-104222005D01*
X187227731Y-104226214D01*
X187049601Y-104368923D01*
X187041132Y-104381048D01*
X184813991Y-104381048D01*
X184814466Y-104380179D01*
X184807679Y-104370479D01*
X184704476Y-104282335D01*
X184698704Y-104277953D01*
X184416796Y-104088519D01*
X184410575Y-104084839D01*
X184108757Y-103929060D01*
X184102146Y-103926116D01*
X183784439Y-103806065D01*
X183777513Y-103803894D01*
X183448112Y-103721155D01*
X183441005Y-103719799D01*
X183104278Y-103675468D01*
X183097036Y-103674937D01*
X182757467Y-103669602D01*
X182750205Y-103669906D01*
X182412256Y-103703638D01*
X182405108Y-103704770D01*
X182073263Y-103777124D01*
X182066285Y-103779072D01*
X181744960Y-103889086D01*
X181738253Y-103891823D01*
X181431707Y-104038039D01*
X181425349Y-104041534D01*
X181137654Y-104222005D01*
X181131731Y-104226214D01*
X180953601Y-104368923D01*
X180945132Y-104381048D01*
X178204000Y-104381048D01*
X178204000Y-100762339D01*
X178224002Y-100694218D01*
X178240905Y-100673244D01*
X178243794Y-100670355D01*
X178250974Y-100664974D01*
X178335493Y-100552199D01*
X178342244Y-100534193D01*
X178382190Y-100427635D01*
X178384964Y-100420236D01*
X178391500Y-100360070D01*
X178732500Y-100360070D01*
X178739036Y-100420236D01*
X178741810Y-100427635D01*
X178781757Y-100534193D01*
X178788507Y-100552199D01*
X178873026Y-100664974D01*
X178985801Y-100749493D01*
X178994202Y-100752643D01*
X178994205Y-100752644D01*
X179042917Y-100770905D01*
X179117764Y-100798964D01*
X179177930Y-100805500D01*
X179771070Y-100805500D01*
X179831236Y-100798964D01*
X179906083Y-100770905D01*
X179954795Y-100752644D01*
X179954798Y-100752643D01*
X179963199Y-100749493D01*
X180075974Y-100664974D01*
X180076038Y-100665060D01*
X180134056Y-100633379D01*
X180160839Y-100630500D01*
X185579501Y-100630500D01*
X185647622Y-100650502D01*
X185694115Y-100704158D01*
X185705501Y-100756500D01*
X185705501Y-102101066D01*
X185707559Y-102111411D01*
X185716373Y-102155726D01*
X185720266Y-102175301D01*
X185776516Y-102259484D01*
X185860699Y-102315734D01*
X185934933Y-102330500D01*
X187959836Y-102330500D01*
X189985066Y-102330499D01*
X190021563Y-102323240D01*
X190047126Y-102318156D01*
X190047128Y-102318155D01*
X190059301Y-102315734D01*
X190069621Y-102308839D01*
X190069622Y-102308838D01*
X190133168Y-102266377D01*
X190143484Y-102259484D01*
X190199734Y-102175301D01*
X190214500Y-102101067D01*
X190214499Y-98050934D01*
X190199734Y-97976699D01*
X190143484Y-97892516D01*
X190059301Y-97836266D01*
X189985067Y-97821500D01*
X187960164Y-97821500D01*
X185934934Y-97821501D01*
X185899182Y-97828612D01*
X185872874Y-97833844D01*
X185872872Y-97833845D01*
X185860699Y-97836266D01*
X185850379Y-97843161D01*
X185850378Y-97843162D01*
X185789985Y-97883516D01*
X185776516Y-97892516D01*
X185720266Y-97976699D01*
X185705500Y-98050933D01*
X185705500Y-99395500D01*
X185685498Y-99463621D01*
X185631842Y-99510114D01*
X185579500Y-99521500D01*
X180160839Y-99521500D01*
X180092718Y-99501498D01*
X180077825Y-99489495D01*
X180075974Y-99487026D01*
X179963199Y-99402507D01*
X179954798Y-99399357D01*
X179954795Y-99399356D01*
X179876387Y-99369963D01*
X179831236Y-99353036D01*
X179771070Y-99346500D01*
X179177930Y-99346500D01*
X179117764Y-99353036D01*
X179072613Y-99369963D01*
X178994205Y-99399356D01*
X178994202Y-99399357D01*
X178985801Y-99402507D01*
X178873026Y-99487026D01*
X178788507Y-99599801D01*
X178739036Y-99731764D01*
X178732500Y-99791930D01*
X178732500Y-100360070D01*
X178391500Y-100360070D01*
X178391500Y-99791930D01*
X178384964Y-99731764D01*
X178335493Y-99599801D01*
X178250974Y-99487026D01*
X178138199Y-99402507D01*
X178129798Y-99399357D01*
X178129795Y-99399356D01*
X178051387Y-99369963D01*
X178006236Y-99353036D01*
X177946070Y-99346500D01*
X177352930Y-99346500D01*
X177292764Y-99353036D01*
X177247613Y-99369963D01*
X177169205Y-99399356D01*
X177169202Y-99399357D01*
X177160801Y-99402507D01*
X177048026Y-99487026D01*
X177042645Y-99494206D01*
X176982421Y-99574564D01*
X176925562Y-99617080D01*
X176881594Y-99625000D01*
X162230339Y-99625000D01*
X162162218Y-99604998D01*
X162141244Y-99588095D01*
X162138355Y-99585206D01*
X162132974Y-99578026D01*
X162020199Y-99493507D01*
X162011798Y-99490357D01*
X162011795Y-99490356D01*
X161898388Y-99447842D01*
X161888236Y-99444036D01*
X161828070Y-99437500D01*
X161259930Y-99437500D01*
X161199764Y-99444036D01*
X161067801Y-99493507D01*
X161060614Y-99498893D01*
X161052746Y-99503201D01*
X161051539Y-99500996D01*
X160997540Y-99521174D01*
X160988475Y-99521500D01*
X158054499Y-99521500D01*
X157986378Y-99501498D01*
X157939885Y-99447842D01*
X157928499Y-99395500D01*
X157928499Y-98603244D01*
X157921798Y-98541551D01*
X157871071Y-98406235D01*
X157865691Y-98399056D01*
X157865689Y-98399053D01*
X157789786Y-98297777D01*
X157784404Y-98290596D01*
X157777223Y-98285214D01*
X157675947Y-98209311D01*
X157675944Y-98209309D01*
X157668765Y-98203929D01*
X157579047Y-98170296D01*
X157540844Y-98155974D01*
X157540842Y-98155974D01*
X157533449Y-98153202D01*
X157525599Y-98152349D01*
X157525598Y-98152349D01*
X157475154Y-98146869D01*
X157475153Y-98146869D01*
X157471757Y-98146500D01*
X156911582Y-98146500D01*
X156351244Y-98146501D01*
X156347850Y-98146870D01*
X156347844Y-98146870D01*
X156297409Y-98152348D01*
X156297405Y-98152349D01*
X156289551Y-98153202D01*
X156154235Y-98203929D01*
X156147056Y-98209309D01*
X156147053Y-98209311D01*
X156045777Y-98285214D01*
X156038596Y-98290596D01*
X156033214Y-98297777D01*
X155957311Y-98399053D01*
X155957309Y-98399056D01*
X155951929Y-98406235D01*
X155901202Y-98541551D01*
X155894500Y-98603243D01*
X155894501Y-101548756D01*
X155901202Y-101610449D01*
X155951929Y-101745765D01*
X155957309Y-101752944D01*
X155957311Y-101752947D01*
X156029788Y-101849652D01*
X156038596Y-101861404D01*
X156045777Y-101866786D01*
X156147053Y-101942689D01*
X156147056Y-101942691D01*
X156154235Y-101948071D01*
X156243953Y-101981704D01*
X156282156Y-101996026D01*
X156282158Y-101996026D01*
X156289551Y-101998798D01*
X156297401Y-101999651D01*
X156297402Y-101999651D01*
X156347837Y-102005130D01*
X156351243Y-102005500D01*
X156911418Y-102005500D01*
X157471756Y-102005499D01*
X157475150Y-102005130D01*
X157475156Y-102005130D01*
X157525591Y-101999652D01*
X157525595Y-101999651D01*
X157533449Y-101998798D01*
X157668765Y-101948071D01*
X157675944Y-101942691D01*
X157675947Y-101942689D01*
X157777223Y-101866786D01*
X157784404Y-101861404D01*
X157793212Y-101849652D01*
X157865689Y-101752947D01*
X157865691Y-101752944D01*
X157871071Y-101745765D01*
X157911801Y-101637116D01*
X157919026Y-101617844D01*
X157919026Y-101617842D01*
X157921798Y-101610449D01*
X157928500Y-101548757D01*
X157928500Y-100756500D01*
X157948502Y-100688379D01*
X158002158Y-100641886D01*
X158054500Y-100630500D01*
X160779226Y-100630500D01*
X160847347Y-100650502D01*
X160880052Y-100680935D01*
X160955026Y-100780974D01*
X161067801Y-100865493D01*
X161076202Y-100868643D01*
X161076205Y-100868644D01*
X161154613Y-100898037D01*
X161199764Y-100914964D01*
X161259930Y-100921500D01*
X161828070Y-100921500D01*
X161888236Y-100914964D01*
X161933387Y-100898037D01*
X162011795Y-100868644D01*
X162011798Y-100868643D01*
X162020199Y-100865493D01*
X162132974Y-100780974D01*
X162138355Y-100773794D01*
X162141244Y-100770905D01*
X162203556Y-100736879D01*
X162230339Y-100734000D01*
X168885618Y-100734000D01*
X168953739Y-100754002D01*
X169000232Y-100807658D01*
X169010336Y-100877932D01*
X168980842Y-100942512D01*
X168974713Y-100949095D01*
X166235213Y-103688595D01*
X166172901Y-103722621D01*
X166146118Y-103725500D01*
X162224500Y-103725500D01*
X162156379Y-103705498D01*
X162109886Y-103651842D01*
X162100549Y-103608920D01*
X162098888Y-103609051D01*
X162098500Y-103604120D01*
X162098500Y-103599166D01*
X162083498Y-103504445D01*
X162025326Y-103390277D01*
X161995405Y-103360356D01*
X161961379Y-103298044D01*
X161958500Y-103271261D01*
X161958500Y-102797486D01*
X161978502Y-102729365D01*
X162020203Y-102690498D01*
X162020199Y-102690493D01*
X162020244Y-102690460D01*
X162020248Y-102690456D01*
X162132974Y-102605974D01*
X162217493Y-102493199D01*
X162266964Y-102361236D01*
X162273500Y-102301070D01*
X162273500Y-101707930D01*
X162266964Y-101647764D01*
X162231122Y-101552156D01*
X162220644Y-101524205D01*
X162220643Y-101524202D01*
X162217493Y-101515801D01*
X162132974Y-101403026D01*
X162020199Y-101318507D01*
X162011798Y-101315357D01*
X162011795Y-101315356D01*
X161933387Y-101285963D01*
X161888236Y-101269036D01*
X161828070Y-101262500D01*
X161259930Y-101262500D01*
X161199764Y-101269036D01*
X161154613Y-101285963D01*
X161076205Y-101315356D01*
X161076202Y-101315357D01*
X161067801Y-101318507D01*
X160955026Y-101403026D01*
X160870507Y-101515801D01*
X160867357Y-101524202D01*
X160867356Y-101524205D01*
X160856878Y-101552156D01*
X160821036Y-101647764D01*
X160814500Y-101707930D01*
X160814500Y-102301070D01*
X160821036Y-102361236D01*
X160870507Y-102493199D01*
X160955026Y-102605974D01*
X161066715Y-102689679D01*
X161066716Y-102689680D01*
X161067801Y-102690493D01*
X161067684Y-102690650D01*
X161114153Y-102737221D01*
X161129500Y-102797486D01*
X161129500Y-103271261D01*
X161109498Y-103339382D01*
X161092595Y-103360356D01*
X161062674Y-103390277D01*
X161004502Y-103504445D01*
X160989500Y-103599166D01*
X160989500Y-104837834D01*
X161004502Y-104932555D01*
X161009003Y-104941389D01*
X161012068Y-104950822D01*
X161009237Y-104951742D01*
X161019398Y-105005849D01*
X160992698Y-105071634D01*
X160934670Y-105112540D01*
X160870749Y-105115280D01*
X160870555Y-105116502D01*
X160864522Y-105115546D01*
X160864520Y-105115546D01*
X160775834Y-105101500D01*
X160412166Y-105101500D01*
X160317445Y-105116502D01*
X160203277Y-105174674D01*
X160112674Y-105265277D01*
X160054502Y-105379445D01*
X160039500Y-105474166D01*
X160039500Y-105553000D01*
X160019498Y-105621121D01*
X159965842Y-105667614D01*
X159913500Y-105679000D01*
X158798382Y-105679000D01*
X158730261Y-105658998D01*
X158709287Y-105642095D01*
X156867674Y-103800482D01*
X156858835Y-103795978D01*
X156858833Y-103795977D01*
X156847081Y-103789989D01*
X156830226Y-103779661D01*
X156819545Y-103771901D01*
X156819546Y-103771901D01*
X156811525Y-103766074D01*
X156802094Y-103763010D01*
X156802093Y-103763009D01*
X156789538Y-103758929D01*
X156771277Y-103751365D01*
X156759518Y-103745374D01*
X156750684Y-103740873D01*
X156740894Y-103739322D01*
X156740890Y-103739321D01*
X156727855Y-103737256D01*
X156708634Y-103732642D01*
X156696082Y-103728564D01*
X156696081Y-103728564D01*
X156686651Y-103725500D01*
X156162561Y-103725500D01*
X156094440Y-103705498D01*
X156061734Y-103675064D01*
X156042355Y-103649206D01*
X156036974Y-103642026D01*
X155924199Y-103557507D01*
X155915798Y-103554357D01*
X155915795Y-103554356D01*
X155837387Y-103524963D01*
X155792236Y-103508036D01*
X155732070Y-103501500D01*
X155163930Y-103501500D01*
X155103764Y-103508036D01*
X155058613Y-103524963D01*
X154980205Y-103554356D01*
X154980202Y-103554357D01*
X154971801Y-103557507D01*
X154859026Y-103642026D01*
X154853645Y-103649206D01*
X154850756Y-103652095D01*
X154788444Y-103686121D01*
X154761661Y-103689000D01*
X153086339Y-103689000D01*
X153018218Y-103668998D01*
X152997244Y-103652095D01*
X152994355Y-103649206D01*
X152988974Y-103642026D01*
X152876199Y-103557507D01*
X152867798Y-103554357D01*
X152867795Y-103554356D01*
X152789387Y-103524963D01*
X152744236Y-103508036D01*
X152684070Y-103501500D01*
X152115930Y-103501500D01*
X152055764Y-103508036D01*
X152010613Y-103524963D01*
X151932205Y-103554356D01*
X151932202Y-103554357D01*
X151923801Y-103557507D01*
X151811026Y-103642026D01*
X151726507Y-103754801D01*
X151725423Y-103757692D01*
X151677261Y-103805746D01*
X151607871Y-103820760D01*
X151541378Y-103795875D01*
X151498895Y-103738991D01*
X151491000Y-103695091D01*
X151491000Y-102111411D01*
X151511002Y-102043290D01*
X151564658Y-101996797D01*
X151572771Y-101993429D01*
X151573622Y-101993110D01*
X151693765Y-101948071D01*
X151700944Y-101942691D01*
X151700947Y-101942689D01*
X151802223Y-101866786D01*
X151809404Y-101861404D01*
X151818212Y-101849652D01*
X151890689Y-101752947D01*
X151890691Y-101752944D01*
X151896071Y-101745765D01*
X151936801Y-101637116D01*
X151944026Y-101617844D01*
X151944026Y-101617842D01*
X151946798Y-101610449D01*
X151953500Y-101548757D01*
X151953499Y-98603244D01*
X151946798Y-98541551D01*
X151896071Y-98406235D01*
X151890691Y-98399056D01*
X151890689Y-98399053D01*
X151814786Y-98297777D01*
X151809404Y-98290596D01*
X151802223Y-98285214D01*
X151700947Y-98209311D01*
X151700944Y-98209309D01*
X151693765Y-98203929D01*
X151604047Y-98170296D01*
X151565844Y-98155974D01*
X151565842Y-98155974D01*
X151558449Y-98153202D01*
X151550599Y-98152349D01*
X151550598Y-98152349D01*
X151500154Y-98146869D01*
X151500153Y-98146869D01*
X151496757Y-98146500D01*
X150936582Y-98146500D01*
X150376244Y-98146501D01*
X150372850Y-98146870D01*
X150372844Y-98146870D01*
X150322409Y-98152348D01*
X150322405Y-98152349D01*
X150314551Y-98153202D01*
X150179235Y-98203929D01*
X150172056Y-98209309D01*
X150172053Y-98209311D01*
X150070777Y-98285214D01*
X150063596Y-98290596D01*
X150058214Y-98297777D01*
X149982311Y-98399053D01*
X149982309Y-98399056D01*
X149976929Y-98406235D01*
X149926202Y-98541551D01*
X149919500Y-98603243D01*
X149919501Y-99447842D01*
X149919501Y-100256628D01*
X149899499Y-100324749D01*
X149882596Y-100345723D01*
X148571782Y-101656537D01*
X148509470Y-101690563D01*
X148438655Y-101685498D01*
X148381819Y-101642951D01*
X148367715Y-101618992D01*
X148261793Y-101382756D01*
X148241510Y-101337518D01*
X148070205Y-101052982D01*
X148067878Y-101049998D01*
X148067873Y-101049991D01*
X147868294Y-100794082D01*
X147868292Y-100794079D01*
X147865958Y-100791087D01*
X147631726Y-100555626D01*
X147616719Y-100543795D01*
X147373885Y-100352360D01*
X147370904Y-100350010D01*
X147087269Y-100177218D01*
X146966654Y-100122378D01*
X146788381Y-100041321D01*
X146788373Y-100041318D01*
X146784929Y-100039752D01*
X146468264Y-99939604D01*
X146323680Y-99912415D01*
X146145585Y-99878925D01*
X146145580Y-99878924D01*
X146141861Y-99878225D01*
X145810449Y-99856503D01*
X145806669Y-99856711D01*
X145806668Y-99856711D01*
X145711655Y-99861940D01*
X145478827Y-99874753D01*
X145475100Y-99875414D01*
X145475096Y-99875414D01*
X145216396Y-99921263D01*
X145151799Y-99932711D01*
X145148174Y-99933816D01*
X145148169Y-99933817D01*
X144901671Y-100008945D01*
X144834103Y-100029538D01*
X144530341Y-100163830D01*
X144244911Y-100333642D01*
X144241910Y-100335957D01*
X144241906Y-100335960D01*
X144226255Y-100348035D01*
X143981950Y-100536515D01*
X143979249Y-100539174D01*
X143979242Y-100539180D01*
X143747974Y-100766845D01*
X143745266Y-100769511D01*
X143742902Y-100772478D01*
X143742899Y-100772481D01*
X143624151Y-100921500D01*
X143538287Y-101029253D01*
X143364012Y-101311980D01*
X143224965Y-101613596D01*
X143150117Y-101846025D01*
X143137992Y-101883678D01*
X143123161Y-101929732D01*
X143117738Y-101957759D01*
X143117414Y-101959436D01*
X143084835Y-102022516D01*
X143023325Y-102057970D01*
X142993708Y-102061500D01*
X141995898Y-102061500D01*
X141927777Y-102041498D01*
X141881284Y-101987842D01*
X141874117Y-101965016D01*
X141873466Y-101965176D01*
X141872559Y-101961484D01*
X141871879Y-101957759D01*
X141867201Y-101942691D01*
X141814104Y-101771691D01*
X141773391Y-101640574D01*
X141763715Y-101618992D01*
X141683858Y-101440888D01*
X141637510Y-101337518D01*
X141466205Y-101052982D01*
X141463878Y-101049998D01*
X141463873Y-101049991D01*
X141264294Y-100794082D01*
X141264292Y-100794079D01*
X141261958Y-100791087D01*
X141027726Y-100555626D01*
X141012719Y-100543795D01*
X140769885Y-100352360D01*
X140766904Y-100350010D01*
X140483269Y-100177218D01*
X140362654Y-100122378D01*
X140184381Y-100041321D01*
X140184373Y-100041318D01*
X140180929Y-100039752D01*
X139864264Y-99939604D01*
X139719680Y-99912415D01*
X139541585Y-99878925D01*
X139541580Y-99878924D01*
X139537861Y-99878225D01*
X139206449Y-99856503D01*
X139202669Y-99856711D01*
X139202668Y-99856711D01*
X139107655Y-99861940D01*
X138874827Y-99874753D01*
X138871100Y-99875414D01*
X138871096Y-99875414D01*
X138612396Y-99921263D01*
X138547799Y-99932711D01*
X138544174Y-99933816D01*
X138544169Y-99933817D01*
X138297671Y-100008945D01*
X138230103Y-100029538D01*
X137926341Y-100163830D01*
X137640911Y-100333642D01*
X137637910Y-100335957D01*
X137637906Y-100335960D01*
X137622255Y-100348035D01*
X137377950Y-100536515D01*
X137375249Y-100539174D01*
X137375242Y-100539180D01*
X137143974Y-100766845D01*
X137141266Y-100769511D01*
X137138902Y-100772478D01*
X137138899Y-100772481D01*
X137020151Y-100921500D01*
X136934287Y-101029253D01*
X136760012Y-101311980D01*
X136620965Y-101613596D01*
X136546117Y-101846025D01*
X136533992Y-101883678D01*
X136519161Y-101929732D01*
X136518442Y-101933448D01*
X136518440Y-101933456D01*
X136456792Y-102252090D01*
X136456073Y-102255808D01*
X136455806Y-102259584D01*
X136455805Y-102259589D01*
X136433039Y-102581123D01*
X136432616Y-102587103D01*
X136449130Y-102918816D01*
X136449771Y-102922547D01*
X136449772Y-102922555D01*
X136498913Y-103208535D01*
X136505375Y-103246142D01*
X136506463Y-103249781D01*
X136506464Y-103249784D01*
X136584528Y-103510810D01*
X136600537Y-103564341D01*
X136602050Y-103567812D01*
X136602052Y-103567818D01*
X136693278Y-103777124D01*
X136733236Y-103868803D01*
X136735159Y-103872074D01*
X136735161Y-103872078D01*
X136899629Y-104151847D01*
X136899634Y-104151855D01*
X136901552Y-104155117D01*
X136903853Y-104158132D01*
X137027727Y-104320445D01*
X137103046Y-104419137D01*
X137105694Y-104421856D01*
X137105699Y-104421861D01*
X137223458Y-104542744D01*
X137334798Y-104657038D01*
X137337742Y-104659409D01*
X137337745Y-104659412D01*
X137502244Y-104791909D01*
X137593453Y-104865374D01*
X137667726Y-104911695D01*
X137867098Y-105036034D01*
X137875264Y-105041127D01*
X138176147Y-105181751D01*
X138252257Y-105206701D01*
X138468349Y-105277539D01*
X138491746Y-105285209D01*
X138817488Y-105350003D01*
X138821261Y-105350290D01*
X138821268Y-105350291D01*
X139144878Y-105374908D01*
X139144883Y-105374908D01*
X139148655Y-105375195D01*
X139480450Y-105360418D01*
X139808067Y-105305888D01*
X139811701Y-105304822D01*
X139811705Y-105304821D01*
X139970394Y-105258266D01*
X140126759Y-105212393D01*
X140163859Y-105196454D01*
X140384485Y-105101666D01*
X140431912Y-105081290D01*
X140719103Y-104914475D01*
X140984175Y-104714367D01*
X141223286Y-104483863D01*
X141226824Y-104479518D01*
X141430582Y-104229239D01*
X141430583Y-104229238D01*
X141432973Y-104226302D01*
X141434995Y-104223098D01*
X141608176Y-103948623D01*
X141608179Y-103948617D01*
X141610199Y-103945416D01*
X141752397Y-103645273D01*
X141797257Y-103510810D01*
X141856304Y-103333824D01*
X141856309Y-103333807D01*
X141857506Y-103330220D01*
X141869553Y-103271271D01*
X141902789Y-103208535D01*
X141964668Y-103173727D01*
X141993001Y-103170500D01*
X142992921Y-103170500D01*
X143061042Y-103190502D01*
X143107535Y-103244158D01*
X143113638Y-103260398D01*
X143189553Y-103514238D01*
X143204537Y-103564341D01*
X143206050Y-103567812D01*
X143206052Y-103567818D01*
X143297278Y-103777124D01*
X143337236Y-103868803D01*
X143339159Y-103872074D01*
X143339161Y-103872078D01*
X143503629Y-104151847D01*
X143503634Y-104151855D01*
X143505552Y-104155117D01*
X143507853Y-104158132D01*
X143631727Y-104320445D01*
X143707046Y-104419137D01*
X143709694Y-104421856D01*
X143709699Y-104421861D01*
X143827458Y-104542744D01*
X143938798Y-104657038D01*
X143941742Y-104659409D01*
X143941745Y-104659412D01*
X144106244Y-104791909D01*
X144197453Y-104865374D01*
X144271726Y-104911695D01*
X144471098Y-105036034D01*
X144479264Y-105041127D01*
X144780147Y-105181751D01*
X144856257Y-105206701D01*
X145072349Y-105277539D01*
X145095746Y-105285209D01*
X145421488Y-105350003D01*
X145425261Y-105350290D01*
X145425268Y-105350291D01*
X145748878Y-105374908D01*
X145748883Y-105374908D01*
X145752655Y-105375195D01*
X146084450Y-105360418D01*
X146412067Y-105305888D01*
X146415701Y-105304822D01*
X146415705Y-105304821D01*
X146574394Y-105258266D01*
X146730759Y-105212393D01*
X146767859Y-105196454D01*
X146988485Y-105101666D01*
X147035912Y-105081290D01*
X147323103Y-104914475D01*
X147588175Y-104714367D01*
X147827286Y-104483863D01*
X147830824Y-104479518D01*
X148034582Y-104229239D01*
X148034583Y-104229238D01*
X148036973Y-104226302D01*
X148038995Y-104223098D01*
X148212176Y-103948623D01*
X148212179Y-103948617D01*
X148214199Y-103945416D01*
X148356397Y-103645273D01*
X148461506Y-103330220D01*
X148462889Y-103323451D01*
X148479324Y-103243031D01*
X148512561Y-103180295D01*
X148552734Y-103152621D01*
X148561000Y-103149044D01*
X148582263Y-103142013D01*
X148588722Y-103140498D01*
X148597083Y-103138537D01*
X148635537Y-103117397D01*
X148646183Y-103112182D01*
X148678563Y-103098170D01*
X148678567Y-103098168D01*
X148686446Y-103094758D01*
X148698275Y-103085179D01*
X148716863Y-103072688D01*
X148730215Y-103065348D01*
X148735745Y-103060574D01*
X148736640Y-103059802D01*
X148736647Y-103059796D01*
X148738391Y-103058290D01*
X148763134Y-103033547D01*
X148772935Y-103024721D01*
X148797838Y-103004556D01*
X148797841Y-103004553D01*
X148804513Y-102999150D01*
X148815538Y-102983636D01*
X148829145Y-102967536D01*
X149913004Y-101883678D01*
X149975316Y-101849652D01*
X150046132Y-101854717D01*
X150077659Y-101871944D01*
X150179235Y-101948071D01*
X150299378Y-101993110D01*
X150300229Y-101993429D01*
X150356994Y-102036070D01*
X150381694Y-102102631D01*
X150382000Y-102111411D01*
X150382000Y-105201425D01*
X150381890Y-105206701D01*
X150379272Y-105269174D01*
X150381234Y-105277539D01*
X150389288Y-105311878D01*
X150391451Y-105323551D01*
X150392633Y-105332183D01*
X150397405Y-105367018D01*
X150400944Y-105375195D01*
X150403453Y-105380994D01*
X150410487Y-105402263D01*
X150413963Y-105417083D01*
X150435103Y-105455537D01*
X150440318Y-105466183D01*
X150454330Y-105498563D01*
X150454332Y-105498567D01*
X150457742Y-105506446D01*
X150463146Y-105513119D01*
X150463147Y-105513121D01*
X150467321Y-105518275D01*
X150479812Y-105536863D01*
X150487152Y-105550215D01*
X150494210Y-105558391D01*
X150518953Y-105583134D01*
X150527779Y-105592935D01*
X150547944Y-105617838D01*
X150547947Y-105617841D01*
X150553350Y-105624513D01*
X150568864Y-105635538D01*
X150584964Y-105649145D01*
X151489232Y-106553413D01*
X151492885Y-106557221D01*
X151522096Y-106588987D01*
X151535226Y-106603266D01*
X151542521Y-106607789D01*
X151542522Y-106607790D01*
X151572506Y-106626381D01*
X151582288Y-106633104D01*
X151591103Y-106639795D01*
X151617235Y-106659630D01*
X151625320Y-106662831D01*
X151631396Y-106665237D01*
X151651402Y-106675300D01*
X151657037Y-106678794D01*
X151657046Y-106678798D01*
X151664344Y-106683323D01*
X151672591Y-106685719D01*
X151706480Y-106695565D01*
X151717702Y-106699407D01*
X151758490Y-106715556D01*
X151772098Y-106716987D01*
X151773633Y-106717148D01*
X151795605Y-106721459D01*
X151810235Y-106725709D01*
X151821007Y-106726500D01*
X151844475Y-106726500D01*
X151908476Y-106745292D01*
X151908746Y-106744799D01*
X151911001Y-106746034D01*
X151912596Y-106746502D01*
X151915346Y-106748413D01*
X151916617Y-106749109D01*
X151923801Y-106754493D01*
X152055764Y-106803964D01*
X152115930Y-106810500D01*
X152684070Y-106810500D01*
X152744236Y-106803964D01*
X152812182Y-106778492D01*
X152867795Y-106757644D01*
X152867798Y-106757643D01*
X152876199Y-106754493D01*
X152988974Y-106669974D01*
X153073493Y-106557199D01*
X153083878Y-106529499D01*
X153112686Y-106452653D01*
X153122964Y-106425236D01*
X153129500Y-106365070D01*
X153129500Y-106364766D01*
X154465000Y-106364766D01*
X154465337Y-106371282D01*
X154475075Y-106465132D01*
X154477968Y-106478528D01*
X154528488Y-106629953D01*
X154534653Y-106643115D01*
X154618426Y-106778492D01*
X154627460Y-106789890D01*
X154740129Y-106902363D01*
X154751540Y-106911375D01*
X154887063Y-106994912D01*
X154900241Y-107001056D01*
X155051766Y-107051315D01*
X155065132Y-107054181D01*
X155157770Y-107063672D01*
X155164185Y-107064000D01*
X155175885Y-107064000D01*
X155191124Y-107059525D01*
X155192329Y-107058135D01*
X155194000Y-107050452D01*
X155194000Y-107045885D01*
X155702000Y-107045885D01*
X155706475Y-107061124D01*
X155707865Y-107062329D01*
X155715548Y-107064000D01*
X155731766Y-107064000D01*
X155738282Y-107063663D01*
X155832132Y-107053925D01*
X155845528Y-107051032D01*
X155996953Y-107000512D01*
X156010115Y-106994347D01*
X156145492Y-106910574D01*
X156156890Y-106901540D01*
X156269363Y-106788871D01*
X156278375Y-106777460D01*
X156361912Y-106641937D01*
X156368056Y-106628759D01*
X156418315Y-106477234D01*
X156421181Y-106463868D01*
X156430672Y-106371230D01*
X156431000Y-106364815D01*
X156431000Y-106340615D01*
X156426525Y-106325376D01*
X156425135Y-106324171D01*
X156417452Y-106322500D01*
X155720115Y-106322500D01*
X155704876Y-106326975D01*
X155703671Y-106328365D01*
X155702000Y-106336048D01*
X155702000Y-107045885D01*
X155194000Y-107045885D01*
X155194000Y-106340615D01*
X155189525Y-106325376D01*
X155188135Y-106324171D01*
X155180452Y-106322500D01*
X154483115Y-106322500D01*
X154467876Y-106326975D01*
X154466671Y-106328365D01*
X154465000Y-106336048D01*
X154465000Y-106364766D01*
X153129500Y-106364766D01*
X153129500Y-105771930D01*
X153122964Y-105711764D01*
X153096684Y-105641662D01*
X153076644Y-105588205D01*
X153076643Y-105588202D01*
X153073493Y-105579801D01*
X152988974Y-105467026D01*
X152876199Y-105382507D01*
X152867798Y-105379357D01*
X152867795Y-105379356D01*
X152781778Y-105347110D01*
X152744236Y-105333036D01*
X152684070Y-105326500D01*
X152115930Y-105326500D01*
X152055764Y-105333036D01*
X151972768Y-105364150D01*
X151901962Y-105369333D01*
X151839444Y-105335263D01*
X151527905Y-105023724D01*
X151493879Y-104961412D01*
X151491000Y-104934629D01*
X151491000Y-104791909D01*
X151511002Y-104723788D01*
X151564658Y-104677295D01*
X151634932Y-104667191D01*
X151699512Y-104696685D01*
X151725068Y-104728361D01*
X151726507Y-104732199D01*
X151811026Y-104844974D01*
X151923801Y-104929493D01*
X151932202Y-104932643D01*
X151932205Y-104932644D01*
X152008944Y-104961412D01*
X152055764Y-104978964D01*
X152115930Y-104985500D01*
X152684070Y-104985500D01*
X152744236Y-104978964D01*
X152791056Y-104961412D01*
X152867795Y-104932644D01*
X152867798Y-104932643D01*
X152876199Y-104929493D01*
X152988974Y-104844974D01*
X152994355Y-104837794D01*
X152997244Y-104834905D01*
X153059556Y-104800879D01*
X153086339Y-104798000D01*
X154761661Y-104798000D01*
X154829782Y-104818002D01*
X154850756Y-104834905D01*
X154853645Y-104837794D01*
X154859026Y-104844974D01*
X154866206Y-104850355D01*
X154866207Y-104850356D01*
X154948052Y-104911695D01*
X154990567Y-104968554D01*
X154995593Y-105039372D01*
X154961533Y-105101666D01*
X154912364Y-105132044D01*
X154899052Y-105136485D01*
X154885885Y-105142653D01*
X154750508Y-105226426D01*
X154739110Y-105235460D01*
X154626637Y-105348129D01*
X154617625Y-105359540D01*
X154534088Y-105495063D01*
X154527944Y-105508241D01*
X154477685Y-105659766D01*
X154474819Y-105673132D01*
X154465328Y-105765770D01*
X154465000Y-105772185D01*
X154465000Y-105796385D01*
X154469475Y-105811624D01*
X154470865Y-105812829D01*
X154478548Y-105814500D01*
X156412885Y-105814500D01*
X156428124Y-105810025D01*
X156429329Y-105808635D01*
X156431000Y-105800952D01*
X156431000Y-105772234D01*
X156430663Y-105765718D01*
X156420925Y-105671868D01*
X156418032Y-105658472D01*
X156367512Y-105507047D01*
X156361347Y-105493885D01*
X156277574Y-105358508D01*
X156268540Y-105347110D01*
X156155871Y-105234637D01*
X156144460Y-105225625D01*
X156008937Y-105142088D01*
X155995764Y-105135946D01*
X155983956Y-105132029D01*
X155925597Y-105091597D01*
X155898361Y-105026033D01*
X155910895Y-104956151D01*
X155948060Y-104911611D01*
X156036974Y-104844974D01*
X156121493Y-104732199D01*
X156124644Y-104723793D01*
X156124647Y-104723788D01*
X156157455Y-104636271D01*
X156200096Y-104579506D01*
X156266658Y-104554806D01*
X156275437Y-104554500D01*
X156397118Y-104554500D01*
X156465239Y-104574502D01*
X156486213Y-104591405D01*
X158327826Y-106433018D01*
X158336665Y-106437522D01*
X158336667Y-106437523D01*
X158348419Y-106443511D01*
X158365274Y-106453839D01*
X158383975Y-106467426D01*
X158393406Y-106470490D01*
X158393407Y-106470491D01*
X158405962Y-106474571D01*
X158424223Y-106482135D01*
X158434500Y-106487371D01*
X158444816Y-106492627D01*
X158454606Y-106494178D01*
X158454610Y-106494179D01*
X158467645Y-106496244D01*
X158486866Y-106500858D01*
X158499418Y-106504936D01*
X158499419Y-106504936D01*
X158508849Y-106508000D01*
X159913500Y-106508000D01*
X159981621Y-106528002D01*
X160028114Y-106581658D01*
X160039500Y-106634000D01*
X160039500Y-106712834D01*
X160054502Y-106807555D01*
X160112674Y-106921723D01*
X160203277Y-107012326D01*
X160317445Y-107070498D01*
X160412166Y-107085500D01*
X160775834Y-107085500D01*
X160870555Y-107070498D01*
X160984723Y-107012326D01*
X161075326Y-106921723D01*
X161133498Y-106807555D01*
X161143408Y-106744984D01*
X161686001Y-106744984D01*
X161686195Y-106749920D01*
X161688430Y-106778336D01*
X161690730Y-106790931D01*
X161733107Y-106936790D01*
X161739352Y-106951221D01*
X161815911Y-107080678D01*
X161825551Y-107093104D01*
X161931896Y-107199449D01*
X161944322Y-107209089D01*
X162073779Y-107285648D01*
X162088210Y-107291893D01*
X162222605Y-107330939D01*
X162236706Y-107330899D01*
X162240000Y-107323630D01*
X162240000Y-107317878D01*
X162748000Y-107317878D01*
X162751973Y-107331409D01*
X162759871Y-107332544D01*
X162899790Y-107291893D01*
X162914221Y-107285648D01*
X163043678Y-107209089D01*
X163056104Y-107199449D01*
X163162449Y-107093104D01*
X163172089Y-107080678D01*
X163248648Y-106951221D01*
X163254893Y-106936790D01*
X163297269Y-106790935D01*
X163299570Y-106778333D01*
X163301807Y-106749916D01*
X163302000Y-106744986D01*
X163302000Y-106455766D01*
X165986000Y-106455766D01*
X165986337Y-106462282D01*
X165996075Y-106556132D01*
X165998968Y-106569528D01*
X166049488Y-106720953D01*
X166055653Y-106734115D01*
X166139426Y-106869492D01*
X166148460Y-106880890D01*
X166261129Y-106993363D01*
X166272540Y-107002375D01*
X166408063Y-107085912D01*
X166421241Y-107092056D01*
X166572766Y-107142315D01*
X166586132Y-107145181D01*
X166678770Y-107154672D01*
X166685185Y-107155000D01*
X166759385Y-107155000D01*
X166774624Y-107150525D01*
X166775829Y-107149135D01*
X166777500Y-107141452D01*
X166777500Y-106444115D01*
X166773025Y-106428876D01*
X166771635Y-106427671D01*
X166763952Y-106426000D01*
X166004115Y-106426000D01*
X165988876Y-106430475D01*
X165987671Y-106431865D01*
X165986000Y-106439548D01*
X165986000Y-106455766D01*
X163302000Y-106455766D01*
X163302000Y-106365615D01*
X163297525Y-106350376D01*
X163296135Y-106349171D01*
X163288452Y-106347500D01*
X162766115Y-106347500D01*
X162750876Y-106351975D01*
X162749671Y-106353365D01*
X162748000Y-106361048D01*
X162748000Y-107317878D01*
X162240000Y-107317878D01*
X162240000Y-106365615D01*
X162235525Y-106350376D01*
X162234135Y-106349171D01*
X162226452Y-106347500D01*
X161704116Y-106347500D01*
X161688877Y-106351975D01*
X161687672Y-106353365D01*
X161686001Y-106361048D01*
X161686001Y-106744984D01*
X161143408Y-106744984D01*
X161148500Y-106712834D01*
X161148500Y-105899885D01*
X165986000Y-105899885D01*
X165990475Y-105915124D01*
X165991865Y-105916329D01*
X165999548Y-105918000D01*
X166759385Y-105918000D01*
X166774624Y-105913525D01*
X166775829Y-105912135D01*
X166777500Y-105904452D01*
X166777500Y-105207115D01*
X166773025Y-105191876D01*
X166771635Y-105190671D01*
X166763952Y-105189000D01*
X166685234Y-105189000D01*
X166678718Y-105189337D01*
X166584868Y-105199075D01*
X166571472Y-105201968D01*
X166420047Y-105252488D01*
X166406885Y-105258653D01*
X166271508Y-105342426D01*
X166260110Y-105351460D01*
X166147637Y-105464129D01*
X166138625Y-105475540D01*
X166055088Y-105611063D01*
X166048944Y-105624241D01*
X165998685Y-105775766D01*
X165995819Y-105789132D01*
X165986328Y-105881770D01*
X165986000Y-105888185D01*
X165986000Y-105899885D01*
X161148500Y-105899885D01*
X161148500Y-105474166D01*
X161133498Y-105379445D01*
X161128997Y-105370611D01*
X161125932Y-105361178D01*
X161128763Y-105360258D01*
X161118602Y-105306151D01*
X161145302Y-105240366D01*
X161203330Y-105199460D01*
X161267251Y-105196720D01*
X161267445Y-105195498D01*
X161273478Y-105196454D01*
X161273480Y-105196454D01*
X161362166Y-105210500D01*
X161576827Y-105210500D01*
X161644948Y-105230502D01*
X161691441Y-105284158D01*
X161701545Y-105354432D01*
X161697823Y-105371655D01*
X161690732Y-105396059D01*
X161688430Y-105408667D01*
X161686193Y-105437084D01*
X161686000Y-105442014D01*
X161686000Y-105821385D01*
X161690475Y-105836624D01*
X161691865Y-105837829D01*
X161699548Y-105839500D01*
X162221885Y-105839500D01*
X162237124Y-105835025D01*
X162238329Y-105833635D01*
X162240000Y-105825952D01*
X162240000Y-105821385D01*
X162748000Y-105821385D01*
X162752475Y-105836624D01*
X162753865Y-105837829D01*
X162761548Y-105839500D01*
X163283884Y-105839500D01*
X163299123Y-105835025D01*
X163300328Y-105833635D01*
X163301999Y-105825952D01*
X163301999Y-105442017D01*
X163301805Y-105437080D01*
X163299570Y-105408664D01*
X163297270Y-105396069D01*
X163254893Y-105250210D01*
X163248648Y-105235779D01*
X163172089Y-105106322D01*
X163162449Y-105093896D01*
X163056104Y-104987551D01*
X163043678Y-104977911D01*
X162914221Y-104901352D01*
X162899790Y-104895107D01*
X162765395Y-104856061D01*
X162751294Y-104856101D01*
X162748000Y-104863370D01*
X162748000Y-105821385D01*
X162240000Y-105821385D01*
X162240000Y-104869122D01*
X162236027Y-104855592D01*
X162206569Y-104851357D01*
X162141988Y-104821864D01*
X162103604Y-104762138D01*
X162098500Y-104726639D01*
X162098500Y-104680500D01*
X162118502Y-104612379D01*
X162172158Y-104565886D01*
X162224500Y-104554500D01*
X166435651Y-104554500D01*
X166445081Y-104551436D01*
X166445082Y-104551436D01*
X166457634Y-104547358D01*
X166476855Y-104542744D01*
X166489890Y-104540679D01*
X166489894Y-104540678D01*
X166499684Y-104539127D01*
X166508518Y-104534626D01*
X166520277Y-104528635D01*
X166538538Y-104521071D01*
X166551093Y-104516991D01*
X166551094Y-104516990D01*
X166560525Y-104513926D01*
X166579226Y-104500339D01*
X166596081Y-104490011D01*
X166607833Y-104484023D01*
X166607835Y-104484022D01*
X166616674Y-104479518D01*
X169805287Y-101290905D01*
X169867599Y-101256879D01*
X169894382Y-101254000D01*
X172497617Y-101254000D01*
X172565738Y-101274002D01*
X172586712Y-101290904D01*
X173030595Y-101734786D01*
X173064620Y-101797099D01*
X173067500Y-101823882D01*
X173067500Y-102155726D01*
X173047498Y-102223847D01*
X172993842Y-102270340D01*
X172932382Y-102281396D01*
X172929123Y-102281160D01*
X172924602Y-102280500D01*
X172657398Y-102280500D01*
X172652848Y-102281170D01*
X172652845Y-102281170D01*
X172597408Y-102289331D01*
X172597407Y-102289331D01*
X172587722Y-102290757D01*
X172578930Y-102295074D01*
X172578929Y-102295074D01*
X172521560Y-102323240D01*
X172451597Y-102335308D01*
X172410697Y-102323337D01*
X172365143Y-102301070D01*
X172343677Y-102290577D01*
X172313355Y-102286153D01*
X172279128Y-102281160D01*
X172279124Y-102281160D01*
X172274602Y-102280500D01*
X172007398Y-102280500D01*
X172002848Y-102281170D01*
X172002845Y-102281170D01*
X171947408Y-102289331D01*
X171947407Y-102289331D01*
X171937722Y-102290757D01*
X171928930Y-102295074D01*
X171928929Y-102295074D01*
X171871560Y-102323240D01*
X171801597Y-102335308D01*
X171760697Y-102323337D01*
X171715143Y-102301070D01*
X171693677Y-102290577D01*
X171663355Y-102286153D01*
X171629128Y-102281160D01*
X171629124Y-102281160D01*
X171624602Y-102280500D01*
X171357398Y-102280500D01*
X171352848Y-102281170D01*
X171352845Y-102281170D01*
X171297408Y-102289331D01*
X171297407Y-102289331D01*
X171287722Y-102290757D01*
X171240272Y-102314054D01*
X171191132Y-102338180D01*
X171191130Y-102338181D01*
X171181784Y-102342770D01*
X171098405Y-102426294D01*
X171046577Y-102532323D01*
X171045165Y-102542003D01*
X171041015Y-102570452D01*
X171036500Y-102601398D01*
X171036500Y-103063619D01*
X171016498Y-103131740D01*
X170999595Y-103152714D01*
X168746713Y-105405595D01*
X168684401Y-105439621D01*
X168657618Y-105442500D01*
X168409930Y-105442500D01*
X168349764Y-105449036D01*
X168316973Y-105461329D01*
X168226205Y-105495356D01*
X168226202Y-105495357D01*
X168217801Y-105498507D01*
X168210619Y-105503889D01*
X168210618Y-105503890D01*
X168137165Y-105558939D01*
X168070658Y-105583786D01*
X168001276Y-105568732D01*
X167954456Y-105524414D01*
X167923573Y-105474508D01*
X167914540Y-105463110D01*
X167801871Y-105350637D01*
X167790460Y-105341625D01*
X167654937Y-105258088D01*
X167641759Y-105251944D01*
X167490234Y-105201685D01*
X167476868Y-105198819D01*
X167384230Y-105189328D01*
X167377815Y-105189000D01*
X167303615Y-105189000D01*
X167288376Y-105193475D01*
X167287171Y-105194865D01*
X167285500Y-105202548D01*
X167285500Y-107136885D01*
X167289975Y-107152124D01*
X167291365Y-107153329D01*
X167299048Y-107155000D01*
X167377766Y-107155000D01*
X167384282Y-107154663D01*
X167478132Y-107144925D01*
X167491528Y-107142032D01*
X167642953Y-107091512D01*
X167656115Y-107085347D01*
X167791492Y-107001574D01*
X167802890Y-106992540D01*
X167886327Y-106908958D01*
X167948610Y-106874879D01*
X168019430Y-106879882D01*
X168076303Y-106922379D01*
X168101171Y-106988878D01*
X168101500Y-106997976D01*
X168101500Y-109041661D01*
X168081498Y-109109782D01*
X168069495Y-109124675D01*
X168067026Y-109126526D01*
X167982507Y-109239301D01*
X167933036Y-109371264D01*
X167926500Y-109431430D01*
X167926500Y-110024570D01*
X167933036Y-110084736D01*
X167938613Y-110099613D01*
X167975779Y-110198751D01*
X167982507Y-110216699D01*
X168067026Y-110329474D01*
X168179801Y-110413993D01*
X168188202Y-110417143D01*
X168188205Y-110417144D01*
X168234540Y-110434514D01*
X168311764Y-110463464D01*
X168371930Y-110470000D01*
X168940070Y-110470000D01*
X169000236Y-110463464D01*
X169077460Y-110434514D01*
X169123795Y-110417144D01*
X169123798Y-110417143D01*
X169132199Y-110413993D01*
X169244974Y-110329474D01*
X169329493Y-110216699D01*
X169336222Y-110198751D01*
X169373387Y-110099613D01*
X169378964Y-110084736D01*
X169385500Y-110024570D01*
X169385500Y-109431430D01*
X169378964Y-109371264D01*
X169329493Y-109239301D01*
X169244974Y-109126526D01*
X169245060Y-109126462D01*
X169213379Y-109068444D01*
X169210500Y-109041661D01*
X169210500Y-106964573D01*
X169230502Y-106896452D01*
X169279494Y-106854000D01*
X169278921Y-106852954D01*
X169283757Y-106850306D01*
X169284158Y-106849959D01*
X169285125Y-106849558D01*
X169286796Y-106848643D01*
X169295199Y-106845493D01*
X169325618Y-106822696D01*
X169400794Y-106766355D01*
X169407974Y-106760974D01*
X169492493Y-106648199D01*
X169499334Y-106629953D01*
X169529758Y-106548795D01*
X169541964Y-106516236D01*
X169548500Y-106456070D01*
X169548500Y-105887930D01*
X169548132Y-105884538D01*
X169548131Y-105884528D01*
X169544071Y-105847154D01*
X169556600Y-105777272D01*
X169580239Y-105744453D01*
X171111835Y-104212857D01*
X171174147Y-104178831D01*
X171244962Y-104183896D01*
X171256263Y-104188752D01*
X171288323Y-104204423D01*
X171286789Y-104207562D01*
X171331288Y-104237055D01*
X171359867Y-104302046D01*
X171348773Y-104372170D01*
X171339674Y-104388218D01*
X171301266Y-104445699D01*
X171286500Y-104519933D01*
X171286501Y-106300066D01*
X171301266Y-106374301D01*
X171308161Y-106384620D01*
X171308162Y-106384622D01*
X171339688Y-106431803D01*
X171360903Y-106499555D01*
X171342120Y-106568022D01*
X171289303Y-106615466D01*
X171289065Y-106615559D01*
X171287722Y-106615757D01*
X171284389Y-106617393D01*
X171284390Y-106617393D01*
X171191132Y-106663180D01*
X171191130Y-106663181D01*
X171181784Y-106667770D01*
X171098405Y-106751294D01*
X171046577Y-106857323D01*
X171045165Y-106867003D01*
X171038471Y-106912890D01*
X171036500Y-106926398D01*
X171036500Y-108218602D01*
X171037170Y-108223152D01*
X171037170Y-108223155D01*
X171045331Y-108278592D01*
X171046757Y-108288278D01*
X171061806Y-108318929D01*
X171063603Y-108322589D01*
X171076500Y-108378120D01*
X171076500Y-110252711D01*
X171056498Y-110320832D01*
X171026065Y-110353537D01*
X170959207Y-110403644D01*
X170952026Y-110409026D01*
X170867507Y-110521801D01*
X170864357Y-110530202D01*
X170864356Y-110530205D01*
X170842153Y-110589432D01*
X170818036Y-110653764D01*
X170811500Y-110713930D01*
X170811500Y-111282070D01*
X170818036Y-111342236D01*
X170867507Y-111474199D01*
X170952026Y-111586974D01*
X171064801Y-111671493D01*
X171073202Y-111674643D01*
X171073205Y-111674644D01*
X171146466Y-111702108D01*
X171196764Y-111720964D01*
X171256930Y-111727500D01*
X171925070Y-111727500D01*
X171985236Y-111720964D01*
X172035534Y-111702108D01*
X172108795Y-111674644D01*
X172108798Y-111674643D01*
X172117199Y-111671493D01*
X172229974Y-111586974D01*
X172314493Y-111474199D01*
X172348018Y-111384772D01*
X172390660Y-111328008D01*
X172457221Y-111303308D01*
X172526570Y-111318516D01*
X172576688Y-111368802D01*
X172583982Y-111384772D01*
X172617507Y-111474199D01*
X172702026Y-111586974D01*
X172709206Y-111592355D01*
X172709207Y-111592356D01*
X172736065Y-111612485D01*
X172778580Y-111669344D01*
X172786500Y-111713311D01*
X172786500Y-112127129D01*
X172766498Y-112195250D01*
X172749595Y-112216224D01*
X170797224Y-114168595D01*
X170734912Y-114202621D01*
X170708129Y-114205500D01*
X165388479Y-114205500D01*
X165320358Y-114185498D01*
X165273865Y-114131842D01*
X165263761Y-114061568D01*
X165293255Y-113996988D01*
X165325193Y-113970546D01*
X165396523Y-113929114D01*
X165611103Y-113804475D01*
X165876175Y-113604367D01*
X166115286Y-113373863D01*
X166120090Y-113367963D01*
X166322582Y-113119239D01*
X166322583Y-113119238D01*
X166324973Y-113116302D01*
X166326995Y-113113098D01*
X166500176Y-112838623D01*
X166500179Y-112838617D01*
X166502199Y-112835416D01*
X166644397Y-112535273D01*
X166687122Y-112407210D01*
X166748304Y-112223824D01*
X166748306Y-112223818D01*
X166749506Y-112220220D01*
X166761553Y-112161271D01*
X166794789Y-112098535D01*
X166856668Y-112063727D01*
X166885001Y-112060500D01*
X167933569Y-112060500D01*
X168001690Y-112080502D01*
X168034396Y-112110936D01*
X168061641Y-112147290D01*
X168061645Y-112147294D01*
X168067026Y-112154474D01*
X168179801Y-112238993D01*
X168188202Y-112242143D01*
X168188205Y-112242144D01*
X168263645Y-112270425D01*
X168311764Y-112288464D01*
X168371930Y-112295000D01*
X168940070Y-112295000D01*
X169000236Y-112288464D01*
X169048355Y-112270425D01*
X169123795Y-112242144D01*
X169123798Y-112242143D01*
X169132199Y-112238993D01*
X169244974Y-112154474D01*
X169329493Y-112041699D01*
X169347860Y-111992707D01*
X169371191Y-111930470D01*
X169378964Y-111909736D01*
X169385500Y-111849570D01*
X169385500Y-111256430D01*
X169378964Y-111196264D01*
X169358655Y-111142090D01*
X169332644Y-111072705D01*
X169332643Y-111072702D01*
X169329493Y-111064301D01*
X169244974Y-110951526D01*
X169132199Y-110867007D01*
X169123798Y-110863857D01*
X169123795Y-110863856D01*
X169016014Y-110823451D01*
X169000236Y-110817536D01*
X168940070Y-110811000D01*
X168371930Y-110811000D01*
X168311764Y-110817536D01*
X168179801Y-110867007D01*
X168172620Y-110872389D01*
X168172616Y-110872391D01*
X168100650Y-110926326D01*
X168034143Y-110951174D01*
X168025085Y-110951500D01*
X166887898Y-110951500D01*
X166819777Y-110931498D01*
X166773284Y-110877842D01*
X166766117Y-110855016D01*
X166765466Y-110855176D01*
X166764559Y-110851484D01*
X166763879Y-110847759D01*
X166761125Y-110838887D01*
X166715730Y-110692692D01*
X166665391Y-110530574D01*
X166661458Y-110521801D01*
X166571969Y-110322214D01*
X166529510Y-110227518D01*
X166358205Y-109942982D01*
X166355878Y-109939998D01*
X166355873Y-109939991D01*
X166156294Y-109684082D01*
X166156292Y-109684079D01*
X166153958Y-109681087D01*
X165919726Y-109445626D01*
X165914484Y-109441493D01*
X165661885Y-109242360D01*
X165658904Y-109240010D01*
X165375269Y-109067218D01*
X165212926Y-108993405D01*
X165076381Y-108931321D01*
X165076373Y-108931318D01*
X165072929Y-108929752D01*
X164756264Y-108829604D01*
X164588338Y-108798026D01*
X164433585Y-108768925D01*
X164433580Y-108768924D01*
X164429861Y-108768225D01*
X164098449Y-108746503D01*
X164094669Y-108746711D01*
X164094668Y-108746711D01*
X163999655Y-108751940D01*
X163766827Y-108764753D01*
X163763100Y-108765414D01*
X163763096Y-108765414D01*
X163579084Y-108798026D01*
X163439799Y-108822711D01*
X163436174Y-108823816D01*
X163436169Y-108823817D01*
X163281569Y-108870936D01*
X163122103Y-108919538D01*
X162818341Y-109053830D01*
X162689039Y-109130756D01*
X162561328Y-109206736D01*
X162532911Y-109223642D01*
X162529910Y-109225957D01*
X162529906Y-109225960D01*
X162514255Y-109238035D01*
X162269950Y-109426515D01*
X162267249Y-109429174D01*
X162267242Y-109429180D01*
X162055848Y-109637281D01*
X162033266Y-109659511D01*
X162030902Y-109662478D01*
X162030899Y-109662481D01*
X161861493Y-109875072D01*
X161826287Y-109919253D01*
X161652012Y-110201980D01*
X161512965Y-110503596D01*
X161411161Y-110819732D01*
X161406074Y-110846023D01*
X161405414Y-110849436D01*
X161372835Y-110912516D01*
X161311325Y-110947970D01*
X161281708Y-110951500D01*
X159775898Y-110951500D01*
X159707777Y-110931498D01*
X159661284Y-110877842D01*
X159654117Y-110855016D01*
X159653466Y-110855176D01*
X159652559Y-110851484D01*
X159651879Y-110847759D01*
X159649125Y-110838887D01*
X159603730Y-110692692D01*
X159553391Y-110530574D01*
X159549458Y-110521801D01*
X159459969Y-110322214D01*
X159417510Y-110227518D01*
X159246205Y-109942982D01*
X159243878Y-109939998D01*
X159243873Y-109939991D01*
X159044294Y-109684082D01*
X159044292Y-109684079D01*
X159041958Y-109681087D01*
X158807726Y-109445626D01*
X158802484Y-109441493D01*
X158549885Y-109242360D01*
X158546904Y-109240010D01*
X158263269Y-109067218D01*
X158100926Y-108993405D01*
X157964381Y-108931321D01*
X157964373Y-108931318D01*
X157960929Y-108929752D01*
X157644264Y-108829604D01*
X157476338Y-108798026D01*
X157321585Y-108768925D01*
X157321580Y-108768924D01*
X157317861Y-108768225D01*
X156986449Y-108746503D01*
X156982669Y-108746711D01*
X156982668Y-108746711D01*
X156887655Y-108751940D01*
X156654827Y-108764753D01*
X156651100Y-108765414D01*
X156651096Y-108765414D01*
X156467084Y-108798026D01*
X156327799Y-108822711D01*
X156324174Y-108823816D01*
X156324169Y-108823817D01*
X156169569Y-108870936D01*
X156010103Y-108919538D01*
X155706341Y-109053830D01*
X155577039Y-109130756D01*
X155449328Y-109206736D01*
X155420911Y-109223642D01*
X155417910Y-109225957D01*
X155417906Y-109225960D01*
X155402255Y-109238035D01*
X155157950Y-109426515D01*
X155155249Y-109429174D01*
X155155242Y-109429180D01*
X154943848Y-109637281D01*
X154921266Y-109659511D01*
X154918902Y-109662478D01*
X154918899Y-109662481D01*
X154749493Y-109875072D01*
X154714287Y-109919253D01*
X154540012Y-110201980D01*
X154400965Y-110503596D01*
X154299161Y-110819732D01*
X154298442Y-110823448D01*
X154298440Y-110823456D01*
X154237614Y-111137842D01*
X154236073Y-111145808D01*
X154235806Y-111149584D01*
X154235805Y-111149589D01*
X154212884Y-111473314D01*
X154212616Y-111477103D01*
X154212805Y-111480895D01*
X154227179Y-111769617D01*
X154229130Y-111808816D01*
X154229771Y-111812547D01*
X154229772Y-111812555D01*
X154283499Y-112125224D01*
X154285375Y-112136142D01*
X154286463Y-112139781D01*
X154286464Y-112139784D01*
X154362315Y-112393410D01*
X154380537Y-112454341D01*
X154382050Y-112457812D01*
X154382052Y-112457818D01*
X154473425Y-112667462D01*
X154513236Y-112758803D01*
X154515159Y-112762074D01*
X154515161Y-112762078D01*
X154679629Y-113041847D01*
X154679634Y-113041855D01*
X154681552Y-113045117D01*
X154883046Y-113309137D01*
X154885694Y-113311856D01*
X154885699Y-113311861D01*
X155112152Y-113544322D01*
X155114798Y-113547038D01*
X155117742Y-113549409D01*
X155117745Y-113549412D01*
X155188810Y-113606652D01*
X155373453Y-113755374D01*
X155655264Y-113931127D01*
X155658713Y-113932739D01*
X155728492Y-113965352D01*
X155781737Y-114012315D01*
X155801138Y-114080609D01*
X155780537Y-114148551D01*
X155726474Y-114194570D01*
X155675143Y-114205500D01*
X145267872Y-114205500D01*
X145199751Y-114185498D01*
X145178777Y-114168595D01*
X143787099Y-112776917D01*
X143753073Y-112714605D01*
X143758138Y-112643790D01*
X143800685Y-112586954D01*
X143824444Y-112572940D01*
X143939758Y-112520995D01*
X143939762Y-112520993D01*
X143944623Y-112518803D01*
X144135303Y-112390430D01*
X144301628Y-112231764D01*
X144438842Y-112047342D01*
X144463061Y-111999708D01*
X144540602Y-111847194D01*
X144540602Y-111847193D01*
X144543020Y-111842438D01*
X144611185Y-111622911D01*
X144631013Y-111473314D01*
X144640688Y-111400319D01*
X144640688Y-111400316D01*
X144641388Y-111395036D01*
X144639684Y-111349635D01*
X144633925Y-111196264D01*
X144632764Y-111165331D01*
X144587898Y-110951500D01*
X144586658Y-110945590D01*
X144586657Y-110945587D01*
X144585561Y-110940363D01*
X144501128Y-110726564D01*
X144381879Y-110530048D01*
X144374723Y-110521801D01*
X144234724Y-110360467D01*
X144234722Y-110360465D01*
X144231224Y-110356434D01*
X144132215Y-110275251D01*
X144057599Y-110214069D01*
X144057593Y-110214065D01*
X144053471Y-110210685D01*
X144048835Y-110208046D01*
X144048832Y-110208044D01*
X143858345Y-110099613D01*
X143858346Y-110099613D01*
X143853702Y-110096970D01*
X143663603Y-110027967D01*
X143642644Y-110020359D01*
X143642640Y-110020358D01*
X143637629Y-110018539D01*
X143632380Y-110017590D01*
X143632377Y-110017589D01*
X143552529Y-110003151D01*
X143411431Y-109977636D01*
X143407292Y-109977441D01*
X143407285Y-109977440D01*
X143388830Y-109976570D01*
X143388823Y-109976570D01*
X143387342Y-109976500D01*
X142025788Y-109976500D01*
X141946056Y-109983265D01*
X141859767Y-109990587D01*
X141859763Y-109990588D01*
X141854456Y-109991038D01*
X141849301Y-109992376D01*
X141849295Y-109992377D01*
X141676558Y-110037211D01*
X141631961Y-110048786D01*
X141524997Y-110096970D01*
X141427238Y-110141007D01*
X141427235Y-110141008D01*
X141422377Y-110143197D01*
X141231697Y-110271570D01*
X141227840Y-110275249D01*
X141227838Y-110275251D01*
X141180802Y-110320121D01*
X141065372Y-110430236D01*
X140928158Y-110614658D01*
X140925742Y-110619409D01*
X140925740Y-110619413D01*
X140826398Y-110814806D01*
X140823980Y-110819562D01*
X140807577Y-110872390D01*
X140804138Y-110883465D01*
X140764835Y-110942590D01*
X140699806Y-110971081D01*
X140629697Y-110959892D01*
X140576766Y-110912574D01*
X140566613Y-110892383D01*
X140503089Y-110731530D01*
X140501128Y-110726564D01*
X140381879Y-110530048D01*
X140374723Y-110521801D01*
X140234724Y-110360467D01*
X140234722Y-110360465D01*
X140231224Y-110356434D01*
X140132215Y-110275251D01*
X140057599Y-110214069D01*
X140057593Y-110214065D01*
X140053471Y-110210685D01*
X140048835Y-110208046D01*
X140048832Y-110208044D01*
X139858345Y-110099613D01*
X139858346Y-110099613D01*
X139853702Y-110096970D01*
X139663603Y-110027967D01*
X139642644Y-110020359D01*
X139642640Y-110020358D01*
X139637629Y-110018539D01*
X139632380Y-110017590D01*
X139632377Y-110017589D01*
X139552529Y-110003151D01*
X139411431Y-109977636D01*
X139407292Y-109977441D01*
X139407285Y-109977440D01*
X139388830Y-109976570D01*
X139388823Y-109976570D01*
X139387342Y-109976500D01*
X138025788Y-109976500D01*
X137946056Y-109983265D01*
X137859767Y-109990587D01*
X137859763Y-109990588D01*
X137854456Y-109991038D01*
X137849301Y-109992376D01*
X137849295Y-109992377D01*
X137676558Y-110037211D01*
X137631961Y-110048786D01*
X137524997Y-110096970D01*
X137427238Y-110141007D01*
X137427235Y-110141008D01*
X137422377Y-110143197D01*
X137231697Y-110271570D01*
X137227840Y-110275249D01*
X137227838Y-110275251D01*
X137180802Y-110320121D01*
X137065372Y-110430236D01*
X136928158Y-110614658D01*
X136925742Y-110619409D01*
X136925740Y-110619413D01*
X136826398Y-110814806D01*
X136823980Y-110819562D01*
X136807577Y-110872390D01*
X136804138Y-110883465D01*
X136764835Y-110942590D01*
X136699806Y-110971081D01*
X136629697Y-110959892D01*
X136576766Y-110912574D01*
X136566613Y-110892383D01*
X136503089Y-110731530D01*
X136501128Y-110726564D01*
X136381879Y-110530048D01*
X136374723Y-110521801D01*
X136234724Y-110360467D01*
X136234722Y-110360465D01*
X136231224Y-110356434D01*
X136132215Y-110275251D01*
X136057599Y-110214069D01*
X136057593Y-110214065D01*
X136053471Y-110210685D01*
X136048835Y-110208046D01*
X136048832Y-110208044D01*
X135858345Y-110099613D01*
X135858346Y-110099613D01*
X135853702Y-110096970D01*
X135663603Y-110027967D01*
X135642644Y-110020359D01*
X135642640Y-110020358D01*
X135637629Y-110018539D01*
X135632380Y-110017590D01*
X135632377Y-110017589D01*
X135552529Y-110003151D01*
X135411431Y-109977636D01*
X135407292Y-109977441D01*
X135407285Y-109977440D01*
X135388830Y-109976570D01*
X135388823Y-109976570D01*
X135387342Y-109976500D01*
X134025788Y-109976500D01*
X133946056Y-109983265D01*
X133859767Y-109990587D01*
X133859763Y-109990588D01*
X133854456Y-109991038D01*
X133849301Y-109992376D01*
X133849295Y-109992377D01*
X133676558Y-110037211D01*
X133631961Y-110048786D01*
X133524997Y-110096970D01*
X133427238Y-110141007D01*
X133427235Y-110141008D01*
X133422377Y-110143197D01*
X133231697Y-110271570D01*
X133227840Y-110275249D01*
X133227838Y-110275251D01*
X133180802Y-110320121D01*
X133065372Y-110430236D01*
X132928158Y-110614658D01*
X132925742Y-110619409D01*
X132925740Y-110619413D01*
X132826398Y-110814806D01*
X132823980Y-110819562D01*
X132755815Y-111039089D01*
X132755114Y-111044378D01*
X132730331Y-111231363D01*
X132725612Y-111266964D01*
X132734236Y-111496669D01*
X132781439Y-111721637D01*
X132793432Y-111752006D01*
X132858645Y-111917135D01*
X132865872Y-111935436D01*
X132868643Y-111940002D01*
X132979376Y-112122484D01*
X132985121Y-112131952D01*
X132988616Y-112135980D01*
X132988617Y-112135981D01*
X133121676Y-112289317D01*
X133135776Y-112305566D01*
X133139907Y-112308953D01*
X133309401Y-112447931D01*
X133309407Y-112447935D01*
X133313529Y-112451315D01*
X133318165Y-112453954D01*
X133318168Y-112453956D01*
X133435936Y-112520993D01*
X133513298Y-112565030D01*
X133639998Y-112611020D01*
X133724356Y-112641641D01*
X133724360Y-112641642D01*
X133729371Y-112643461D01*
X133734620Y-112644410D01*
X133734623Y-112644411D01*
X133814471Y-112658849D01*
X133955569Y-112684364D01*
X133959708Y-112684559D01*
X133959715Y-112684560D01*
X133978170Y-112685430D01*
X133978177Y-112685430D01*
X133979658Y-112685500D01*
X135341212Y-112685500D01*
X135420944Y-112678735D01*
X135507233Y-112671413D01*
X135507237Y-112671412D01*
X135512544Y-112670962D01*
X135517699Y-112669624D01*
X135517705Y-112669623D01*
X135729868Y-112614556D01*
X135729867Y-112614556D01*
X135735039Y-112613214D01*
X135916046Y-112531676D01*
X135939762Y-112520993D01*
X135939765Y-112520992D01*
X135944623Y-112518803D01*
X136135303Y-112390430D01*
X136301628Y-112231764D01*
X136438842Y-112047342D01*
X136463061Y-111999708D01*
X136540602Y-111847194D01*
X136540602Y-111847193D01*
X136543020Y-111842438D01*
X136562863Y-111778534D01*
X136602165Y-111719410D01*
X136667194Y-111690919D01*
X136737303Y-111702108D01*
X136790234Y-111749426D01*
X136800387Y-111769617D01*
X136817344Y-111812555D01*
X136865872Y-111935436D01*
X136868643Y-111940002D01*
X136979376Y-112122484D01*
X136985121Y-112131952D01*
X136988616Y-112135980D01*
X136988617Y-112135981D01*
X137121676Y-112289317D01*
X137135776Y-112305566D01*
X137139907Y-112308953D01*
X137309401Y-112447931D01*
X137309407Y-112447935D01*
X137313529Y-112451315D01*
X137318165Y-112453954D01*
X137318168Y-112453956D01*
X137435936Y-112520993D01*
X137513298Y-112565030D01*
X137639998Y-112611020D01*
X137724356Y-112641641D01*
X137724360Y-112641642D01*
X137729371Y-112643461D01*
X137734620Y-112644410D01*
X137734623Y-112644411D01*
X137814471Y-112658849D01*
X137955569Y-112684364D01*
X137959708Y-112684559D01*
X137959715Y-112684560D01*
X137978170Y-112685430D01*
X137978177Y-112685430D01*
X137979658Y-112685500D01*
X139201629Y-112685500D01*
X139269750Y-112705502D01*
X139290724Y-112722405D01*
X142509732Y-115941413D01*
X142513385Y-115945221D01*
X142543111Y-115977547D01*
X142555726Y-115991266D01*
X142563021Y-115995789D01*
X142563022Y-115995790D01*
X142593005Y-116014380D01*
X142602786Y-116021103D01*
X142637734Y-116047630D01*
X142651896Y-116053237D01*
X142671910Y-116063303D01*
X142684844Y-116071323D01*
X142693091Y-116073719D01*
X142693093Y-116073720D01*
X142715220Y-116080148D01*
X142726976Y-116083564D01*
X142738203Y-116087408D01*
X142741840Y-116088848D01*
X142797814Y-116132523D01*
X142821290Y-116199526D01*
X142804814Y-116268584D01*
X142753618Y-116317773D01*
X142695456Y-116332000D01*
X122046000Y-116332000D01*
X121977879Y-116311998D01*
X121931386Y-116258342D01*
X121920000Y-116206000D01*
X121920000Y-109780677D01*
X127015524Y-109780677D01*
X127043351Y-110021176D01*
X127044730Y-110026050D01*
X127044731Y-110026054D01*
X127107893Y-110249264D01*
X127109271Y-110254133D01*
X127111406Y-110258712D01*
X127111407Y-110258714D01*
X127155396Y-110353047D01*
X127211589Y-110473553D01*
X127214430Y-110477734D01*
X127214431Y-110477735D01*
X127249172Y-110528854D01*
X127248556Y-110529272D01*
X127249720Y-110530420D01*
X127249905Y-110530281D01*
X127249935Y-110530321D01*
X127250597Y-110531203D01*
X127250797Y-110531482D01*
X127250834Y-110531519D01*
X127252393Y-110533595D01*
X127253809Y-110535679D01*
X127253898Y-110535820D01*
X127254035Y-110536011D01*
X127347671Y-110673793D01*
X127351148Y-110677470D01*
X127351153Y-110677476D01*
X127396137Y-110725044D01*
X127395584Y-110725567D01*
X127397601Y-110726994D01*
X127398083Y-110727636D01*
X127401809Y-110731197D01*
X127402140Y-110731570D01*
X127405516Y-110734963D01*
X127447972Y-110779858D01*
X127514018Y-110849699D01*
X127518035Y-110852770D01*
X127518038Y-110852773D01*
X127572578Y-110894472D01*
X127573084Y-110894870D01*
X127576468Y-110898104D01*
X127580740Y-110901018D01*
X127581645Y-110901636D01*
X127587166Y-110905626D01*
X127702327Y-110993674D01*
X127702338Y-110993681D01*
X127706348Y-110996747D01*
X127770786Y-111031298D01*
X127773421Y-111032754D01*
X127776029Y-111034236D01*
X127780300Y-111037149D01*
X127784986Y-111039324D01*
X127784989Y-111039326D01*
X127787427Y-111040458D01*
X127793912Y-111043699D01*
X127919715Y-111111153D01*
X127980359Y-111132034D01*
X127991084Y-111135727D01*
X127994543Y-111137121D01*
X127994561Y-111137071D01*
X127999403Y-111138853D01*
X128004104Y-111141035D01*
X128012723Y-111143425D01*
X128020036Y-111145697D01*
X128148629Y-111189975D01*
X128153618Y-111190837D01*
X128153619Y-111190837D01*
X128227145Y-111203537D01*
X128232988Y-111204848D01*
X128236888Y-111205592D01*
X128241871Y-111206974D01*
X128251403Y-111207993D01*
X128259428Y-111209113D01*
X128387200Y-111231183D01*
X128391161Y-111231363D01*
X128391162Y-111231363D01*
X128414784Y-111232436D01*
X128414803Y-111232436D01*
X128416203Y-111232500D01*
X128584841Y-111232500D01*
X128587349Y-111232298D01*
X128587354Y-111232298D01*
X128760283Y-111218385D01*
X128760288Y-111218384D01*
X128765324Y-111217979D01*
X128770232Y-111216774D01*
X128770235Y-111216773D01*
X128995525Y-111161436D01*
X129000439Y-111160229D01*
X129005091Y-111158254D01*
X129005095Y-111158253D01*
X129218642Y-111067607D01*
X129218643Y-111067607D01*
X129223297Y-111065631D01*
X129428163Y-110936620D01*
X129609768Y-110776514D01*
X129763439Y-110589432D01*
X129838369Y-110460690D01*
X129882680Y-110384556D01*
X129882681Y-110384554D01*
X129885222Y-110380188D01*
X129909092Y-110318005D01*
X129970169Y-110158894D01*
X129970170Y-110158891D01*
X129971984Y-110154165D01*
X130021493Y-109917177D01*
X130022180Y-109902065D01*
X130026728Y-109801888D01*
X130027691Y-109780677D01*
X147335524Y-109780677D01*
X147363351Y-110021176D01*
X147364730Y-110026050D01*
X147364731Y-110026054D01*
X147427893Y-110249264D01*
X147429271Y-110254133D01*
X147431406Y-110258712D01*
X147431407Y-110258714D01*
X147475396Y-110353047D01*
X147531589Y-110473553D01*
X147534430Y-110477734D01*
X147534431Y-110477735D01*
X147569172Y-110528854D01*
X147568556Y-110529272D01*
X147569720Y-110530420D01*
X147569905Y-110530281D01*
X147569935Y-110530321D01*
X147570597Y-110531203D01*
X147570797Y-110531482D01*
X147570834Y-110531519D01*
X147572393Y-110533595D01*
X147573809Y-110535679D01*
X147573898Y-110535820D01*
X147574035Y-110536011D01*
X147667671Y-110673793D01*
X147671148Y-110677470D01*
X147671153Y-110677476D01*
X147716137Y-110725044D01*
X147715584Y-110725567D01*
X147717601Y-110726994D01*
X147718083Y-110727636D01*
X147721809Y-110731197D01*
X147722140Y-110731570D01*
X147725516Y-110734963D01*
X147767972Y-110779858D01*
X147834018Y-110849699D01*
X147838035Y-110852770D01*
X147838038Y-110852773D01*
X147892578Y-110894472D01*
X147893084Y-110894870D01*
X147896468Y-110898104D01*
X147900740Y-110901018D01*
X147901645Y-110901636D01*
X147907166Y-110905626D01*
X148022327Y-110993674D01*
X148022338Y-110993681D01*
X148026348Y-110996747D01*
X148090786Y-111031298D01*
X148093421Y-111032754D01*
X148096029Y-111034236D01*
X148100300Y-111037149D01*
X148104986Y-111039324D01*
X148104989Y-111039326D01*
X148107427Y-111040458D01*
X148113912Y-111043699D01*
X148239715Y-111111153D01*
X148300359Y-111132034D01*
X148311084Y-111135727D01*
X148314543Y-111137121D01*
X148314561Y-111137071D01*
X148319403Y-111138853D01*
X148324104Y-111141035D01*
X148332723Y-111143425D01*
X148340036Y-111145697D01*
X148468629Y-111189975D01*
X148473618Y-111190837D01*
X148473619Y-111190837D01*
X148547145Y-111203537D01*
X148552988Y-111204848D01*
X148556888Y-111205592D01*
X148561871Y-111206974D01*
X148571403Y-111207993D01*
X148579428Y-111209113D01*
X148707200Y-111231183D01*
X148711161Y-111231363D01*
X148711162Y-111231363D01*
X148734784Y-111232436D01*
X148734803Y-111232436D01*
X148736203Y-111232500D01*
X148904841Y-111232500D01*
X148907349Y-111232298D01*
X148907354Y-111232298D01*
X149080283Y-111218385D01*
X149080288Y-111218384D01*
X149085324Y-111217979D01*
X149090232Y-111216774D01*
X149090235Y-111216773D01*
X149315525Y-111161436D01*
X149320439Y-111160229D01*
X149325091Y-111158254D01*
X149325095Y-111158253D01*
X149538642Y-111067607D01*
X149538643Y-111067607D01*
X149543297Y-111065631D01*
X149748163Y-110936620D01*
X149929768Y-110776514D01*
X150083439Y-110589432D01*
X150158369Y-110460690D01*
X150202680Y-110384556D01*
X150202681Y-110384554D01*
X150205222Y-110380188D01*
X150229092Y-110318005D01*
X150290169Y-110158894D01*
X150290170Y-110158891D01*
X150291984Y-110154165D01*
X150341493Y-109917177D01*
X150342180Y-109902065D01*
X150346728Y-109801888D01*
X150352476Y-109675323D01*
X150351817Y-109669623D01*
X150330902Y-109488867D01*
X150324649Y-109434824D01*
X150322728Y-109428033D01*
X150260107Y-109206736D01*
X150260106Y-109206734D01*
X150258729Y-109201867D01*
X150237691Y-109156750D01*
X150158548Y-108987030D01*
X150156411Y-108982447D01*
X150118828Y-108927146D01*
X150119444Y-108926728D01*
X150118280Y-108925580D01*
X150118095Y-108925719D01*
X150117991Y-108925580D01*
X150117403Y-108924797D01*
X150117203Y-108924518D01*
X150117166Y-108924481D01*
X150115607Y-108922405D01*
X150114191Y-108920321D01*
X150114102Y-108920180D01*
X150113965Y-108919989D01*
X150020329Y-108782207D01*
X150016852Y-108778530D01*
X150016847Y-108778524D01*
X149971863Y-108730956D01*
X149972416Y-108730433D01*
X149970399Y-108729006D01*
X149969917Y-108728364D01*
X149966191Y-108724803D01*
X149965860Y-108724430D01*
X149962484Y-108721037D01*
X149915436Y-108671286D01*
X149853982Y-108606301D01*
X149849965Y-108603230D01*
X149849962Y-108603227D01*
X149795422Y-108561528D01*
X149794916Y-108561130D01*
X149791532Y-108557896D01*
X149787260Y-108554982D01*
X149786355Y-108554364D01*
X149780834Y-108550374D01*
X149665673Y-108462326D01*
X149665662Y-108462319D01*
X149661652Y-108459253D01*
X149597214Y-108424702D01*
X149594579Y-108423246D01*
X149591971Y-108421764D01*
X149587700Y-108418851D01*
X149583014Y-108416676D01*
X149583011Y-108416674D01*
X149580573Y-108415542D01*
X149574081Y-108412298D01*
X149551741Y-108400319D01*
X149448285Y-108344847D01*
X149376913Y-108320272D01*
X149373457Y-108318879D01*
X149373439Y-108318929D01*
X149368597Y-108317147D01*
X149363896Y-108314965D01*
X149355277Y-108312575D01*
X149347964Y-108310303D01*
X149219371Y-108266025D01*
X149214382Y-108265163D01*
X149214381Y-108265163D01*
X149140855Y-108252463D01*
X149135012Y-108251152D01*
X149131112Y-108250408D01*
X149126129Y-108249026D01*
X149116597Y-108248007D01*
X149108572Y-108246887D01*
X148980800Y-108224817D01*
X148976839Y-108224637D01*
X148976838Y-108224637D01*
X148953216Y-108223564D01*
X148953197Y-108223564D01*
X148951797Y-108223500D01*
X148783159Y-108223500D01*
X148780651Y-108223702D01*
X148780646Y-108223702D01*
X148607717Y-108237615D01*
X148607712Y-108237616D01*
X148602676Y-108238021D01*
X148597768Y-108239226D01*
X148597765Y-108239227D01*
X148439923Y-108277997D01*
X148367561Y-108295771D01*
X148362909Y-108297746D01*
X148362905Y-108297747D01*
X148149358Y-108388393D01*
X148144703Y-108390369D01*
X147939837Y-108519380D01*
X147758232Y-108679486D01*
X147604561Y-108866568D01*
X147482778Y-109075812D01*
X147480965Y-109080535D01*
X147416795Y-109247705D01*
X147396016Y-109301835D01*
X147346507Y-109538823D01*
X147346278Y-109543873D01*
X147346277Y-109543878D01*
X147343499Y-109605057D01*
X147335524Y-109780677D01*
X130027691Y-109780677D01*
X130032476Y-109675323D01*
X130031817Y-109669623D01*
X130010902Y-109488867D01*
X130004649Y-109434824D01*
X130002728Y-109428033D01*
X129940107Y-109206736D01*
X129940106Y-109206734D01*
X129938729Y-109201867D01*
X129917691Y-109156750D01*
X129838548Y-108987030D01*
X129836411Y-108982447D01*
X129798828Y-108927146D01*
X129799444Y-108926728D01*
X129798280Y-108925580D01*
X129798095Y-108925719D01*
X129797991Y-108925580D01*
X129797403Y-108924797D01*
X129797203Y-108924518D01*
X129797166Y-108924481D01*
X129795607Y-108922405D01*
X129794191Y-108920321D01*
X129794102Y-108920180D01*
X129793965Y-108919989D01*
X129700329Y-108782207D01*
X129696852Y-108778530D01*
X129696847Y-108778524D01*
X129651863Y-108730956D01*
X129652416Y-108730433D01*
X129650399Y-108729006D01*
X129649917Y-108728364D01*
X129646191Y-108724803D01*
X129645860Y-108724430D01*
X129642484Y-108721037D01*
X129595436Y-108671286D01*
X129533982Y-108606301D01*
X129529965Y-108603230D01*
X129529962Y-108603227D01*
X129475422Y-108561528D01*
X129474916Y-108561130D01*
X129471532Y-108557896D01*
X129467260Y-108554982D01*
X129466355Y-108554364D01*
X129460834Y-108550374D01*
X129345673Y-108462326D01*
X129345662Y-108462319D01*
X129341652Y-108459253D01*
X129277214Y-108424702D01*
X129274579Y-108423246D01*
X129271971Y-108421764D01*
X129267700Y-108418851D01*
X129263014Y-108416676D01*
X129263011Y-108416674D01*
X129260573Y-108415542D01*
X129254081Y-108412298D01*
X129231741Y-108400319D01*
X129128285Y-108344847D01*
X129056913Y-108320272D01*
X129053457Y-108318879D01*
X129053439Y-108318929D01*
X129048597Y-108317147D01*
X129043896Y-108314965D01*
X129035277Y-108312575D01*
X129027964Y-108310303D01*
X128902098Y-108266964D01*
X132725612Y-108266964D01*
X132725812Y-108272293D01*
X132725812Y-108272294D01*
X132726742Y-108297068D01*
X132734236Y-108496669D01*
X132781439Y-108721637D01*
X132807118Y-108786660D01*
X132863176Y-108928608D01*
X132865872Y-108935436D01*
X132868643Y-108940002D01*
X132981790Y-109126462D01*
X132985121Y-109131952D01*
X132988616Y-109135980D01*
X132988617Y-109135981D01*
X133128435Y-109297106D01*
X133135776Y-109305566D01*
X133139907Y-109308953D01*
X133309401Y-109447931D01*
X133309407Y-109447935D01*
X133313529Y-109451315D01*
X133318165Y-109453954D01*
X133318168Y-109453956D01*
X133458556Y-109533869D01*
X133513298Y-109565030D01*
X133623570Y-109605057D01*
X133724356Y-109641641D01*
X133724360Y-109641642D01*
X133729371Y-109643461D01*
X133734620Y-109644410D01*
X133734623Y-109644411D01*
X133777173Y-109652105D01*
X133955569Y-109684364D01*
X133959708Y-109684559D01*
X133959715Y-109684560D01*
X133978170Y-109685430D01*
X133978177Y-109685430D01*
X133979658Y-109685500D01*
X135341212Y-109685500D01*
X135424981Y-109678392D01*
X135507233Y-109671413D01*
X135507237Y-109671412D01*
X135512544Y-109670962D01*
X135517699Y-109669624D01*
X135517705Y-109669623D01*
X135729868Y-109614556D01*
X135729867Y-109614556D01*
X135735039Y-109613214D01*
X135888959Y-109543878D01*
X135939762Y-109520993D01*
X135939765Y-109520992D01*
X135944623Y-109518803D01*
X136135303Y-109390430D01*
X136163151Y-109363865D01*
X136224263Y-109305566D01*
X136301628Y-109231764D01*
X136438842Y-109047342D01*
X136441731Y-109041661D01*
X136540602Y-108847194D01*
X136540602Y-108847193D01*
X136543020Y-108842438D01*
X136562863Y-108778534D01*
X136602165Y-108719410D01*
X136667194Y-108690919D01*
X136737303Y-108702108D01*
X136790234Y-108749426D01*
X136800387Y-108769617D01*
X136807011Y-108786391D01*
X136865872Y-108935436D01*
X136868643Y-108940002D01*
X136981790Y-109126462D01*
X136985121Y-109131952D01*
X136988616Y-109135980D01*
X136988617Y-109135981D01*
X137128435Y-109297106D01*
X137135776Y-109305566D01*
X137139907Y-109308953D01*
X137309401Y-109447931D01*
X137309407Y-109447935D01*
X137313529Y-109451315D01*
X137318165Y-109453954D01*
X137318168Y-109453956D01*
X137458556Y-109533869D01*
X137513298Y-109565030D01*
X137623570Y-109605057D01*
X137724356Y-109641641D01*
X137724360Y-109641642D01*
X137729371Y-109643461D01*
X137734620Y-109644410D01*
X137734623Y-109644411D01*
X137777173Y-109652105D01*
X137955569Y-109684364D01*
X137959708Y-109684559D01*
X137959715Y-109684560D01*
X137978170Y-109685430D01*
X137978177Y-109685430D01*
X137979658Y-109685500D01*
X139341212Y-109685500D01*
X139424981Y-109678392D01*
X139507233Y-109671413D01*
X139507237Y-109671412D01*
X139512544Y-109670962D01*
X139517699Y-109669624D01*
X139517705Y-109669623D01*
X139729868Y-109614556D01*
X139729867Y-109614556D01*
X139735039Y-109613214D01*
X139888959Y-109543878D01*
X139939762Y-109520993D01*
X139939765Y-109520992D01*
X139944623Y-109518803D01*
X140135303Y-109390430D01*
X140163151Y-109363865D01*
X140224263Y-109305566D01*
X140301628Y-109231764D01*
X140438842Y-109047342D01*
X140441731Y-109041661D01*
X140540602Y-108847194D01*
X140540602Y-108847193D01*
X140543020Y-108842438D01*
X140562863Y-108778534D01*
X140602165Y-108719410D01*
X140667194Y-108690919D01*
X140737303Y-108702108D01*
X140790234Y-108749426D01*
X140800387Y-108769617D01*
X140807011Y-108786391D01*
X140865872Y-108935436D01*
X140868643Y-108940002D01*
X140981790Y-109126462D01*
X140985121Y-109131952D01*
X140988616Y-109135980D01*
X140988617Y-109135981D01*
X141128435Y-109297106D01*
X141135776Y-109305566D01*
X141139907Y-109308953D01*
X141309401Y-109447931D01*
X141309407Y-109447935D01*
X141313529Y-109451315D01*
X141318165Y-109453954D01*
X141318168Y-109453956D01*
X141458556Y-109533869D01*
X141513298Y-109565030D01*
X141623570Y-109605057D01*
X141724356Y-109641641D01*
X141724360Y-109641642D01*
X141729371Y-109643461D01*
X141734620Y-109644410D01*
X141734623Y-109644411D01*
X141777173Y-109652105D01*
X141955569Y-109684364D01*
X141959708Y-109684559D01*
X141959715Y-109684560D01*
X141978170Y-109685430D01*
X141978177Y-109685430D01*
X141979658Y-109685500D01*
X143341212Y-109685500D01*
X143424981Y-109678392D01*
X143507233Y-109671413D01*
X143507237Y-109671412D01*
X143512544Y-109670962D01*
X143517699Y-109669624D01*
X143517705Y-109669623D01*
X143729868Y-109614556D01*
X143729867Y-109614556D01*
X143735039Y-109613214D01*
X143888959Y-109543878D01*
X143939762Y-109520993D01*
X143939765Y-109520992D01*
X143944623Y-109518803D01*
X144135303Y-109390430D01*
X144163151Y-109363865D01*
X144224263Y-109305566D01*
X144301628Y-109231764D01*
X144438842Y-109047342D01*
X144441731Y-109041661D01*
X144540602Y-108847194D01*
X144540602Y-108847193D01*
X144543020Y-108842438D01*
X144611185Y-108622911D01*
X144637649Y-108423246D01*
X144640688Y-108400319D01*
X144640688Y-108400316D01*
X144641388Y-108395036D01*
X144638673Y-108322707D01*
X144634997Y-108224817D01*
X144632764Y-108165331D01*
X144605207Y-108033994D01*
X144586658Y-107945590D01*
X144586657Y-107945587D01*
X144585561Y-107940363D01*
X144501128Y-107726564D01*
X144433222Y-107614658D01*
X144384647Y-107534609D01*
X144384645Y-107534606D01*
X144381879Y-107530048D01*
X144298979Y-107434514D01*
X144234724Y-107360467D01*
X144234722Y-107360465D01*
X144231224Y-107356434D01*
X144128205Y-107271963D01*
X144057599Y-107214069D01*
X144057593Y-107214065D01*
X144053471Y-107210685D01*
X144048835Y-107208046D01*
X144048832Y-107208044D01*
X143858345Y-107099613D01*
X143858346Y-107099613D01*
X143853702Y-107096970D01*
X143708897Y-107044408D01*
X143642644Y-107020359D01*
X143642640Y-107020358D01*
X143637629Y-107018539D01*
X143632380Y-107017590D01*
X143632377Y-107017589D01*
X143540946Y-107001056D01*
X143411431Y-106977636D01*
X143407292Y-106977441D01*
X143407285Y-106977440D01*
X143388830Y-106976570D01*
X143388823Y-106976570D01*
X143387342Y-106976500D01*
X142025788Y-106976500D01*
X141946056Y-106983265D01*
X141859767Y-106990587D01*
X141859763Y-106990588D01*
X141854456Y-106991038D01*
X141849301Y-106992376D01*
X141849295Y-106992377D01*
X141684059Y-107035264D01*
X141631961Y-107048786D01*
X141524997Y-107096970D01*
X141427238Y-107141007D01*
X141427235Y-107141008D01*
X141422377Y-107143197D01*
X141417953Y-107146176D01*
X141417952Y-107146176D01*
X141404845Y-107155000D01*
X141231697Y-107271570D01*
X141227840Y-107275249D01*
X141227838Y-107275251D01*
X141210393Y-107291893D01*
X141065372Y-107430236D01*
X140928158Y-107614658D01*
X140925742Y-107619409D01*
X140925740Y-107619413D01*
X140841474Y-107785153D01*
X140823980Y-107819562D01*
X140805251Y-107879882D01*
X140804138Y-107883465D01*
X140764835Y-107942590D01*
X140699806Y-107971081D01*
X140629697Y-107959892D01*
X140576766Y-107912574D01*
X140566613Y-107892383D01*
X140503089Y-107731530D01*
X140501128Y-107726564D01*
X140433222Y-107614658D01*
X140384647Y-107534609D01*
X140384645Y-107534606D01*
X140381879Y-107530048D01*
X140298979Y-107434514D01*
X140234724Y-107360467D01*
X140234722Y-107360465D01*
X140231224Y-107356434D01*
X140128205Y-107271963D01*
X140057599Y-107214069D01*
X140057593Y-107214065D01*
X140053471Y-107210685D01*
X140048835Y-107208046D01*
X140048832Y-107208044D01*
X139858345Y-107099613D01*
X139858346Y-107099613D01*
X139853702Y-107096970D01*
X139708897Y-107044408D01*
X139642644Y-107020359D01*
X139642640Y-107020358D01*
X139637629Y-107018539D01*
X139632380Y-107017590D01*
X139632377Y-107017589D01*
X139540946Y-107001056D01*
X139411431Y-106977636D01*
X139407292Y-106977441D01*
X139407285Y-106977440D01*
X139388830Y-106976570D01*
X139388823Y-106976570D01*
X139387342Y-106976500D01*
X138025788Y-106976500D01*
X137946056Y-106983265D01*
X137859767Y-106990587D01*
X137859763Y-106990588D01*
X137854456Y-106991038D01*
X137849301Y-106992376D01*
X137849295Y-106992377D01*
X137684059Y-107035264D01*
X137631961Y-107048786D01*
X137524997Y-107096970D01*
X137427238Y-107141007D01*
X137427235Y-107141008D01*
X137422377Y-107143197D01*
X137417953Y-107146176D01*
X137417952Y-107146176D01*
X137404845Y-107155000D01*
X137231697Y-107271570D01*
X137227840Y-107275249D01*
X137227838Y-107275251D01*
X137210393Y-107291893D01*
X137065372Y-107430236D01*
X136928158Y-107614658D01*
X136925742Y-107619409D01*
X136925740Y-107619413D01*
X136841474Y-107785153D01*
X136823980Y-107819562D01*
X136805251Y-107879882D01*
X136804138Y-107883465D01*
X136764835Y-107942590D01*
X136699806Y-107971081D01*
X136629697Y-107959892D01*
X136576766Y-107912574D01*
X136566613Y-107892383D01*
X136503089Y-107731530D01*
X136501128Y-107726564D01*
X136433222Y-107614658D01*
X136384647Y-107534609D01*
X136384645Y-107534606D01*
X136381879Y-107530048D01*
X136298979Y-107434514D01*
X136234724Y-107360467D01*
X136234722Y-107360465D01*
X136231224Y-107356434D01*
X136128205Y-107271963D01*
X136057599Y-107214069D01*
X136057593Y-107214065D01*
X136053471Y-107210685D01*
X136048835Y-107208046D01*
X136048832Y-107208044D01*
X135858345Y-107099613D01*
X135858346Y-107099613D01*
X135853702Y-107096970D01*
X135708897Y-107044408D01*
X135642644Y-107020359D01*
X135642640Y-107020358D01*
X135637629Y-107018539D01*
X135632380Y-107017590D01*
X135632377Y-107017589D01*
X135540946Y-107001056D01*
X135411431Y-106977636D01*
X135407292Y-106977441D01*
X135407285Y-106977440D01*
X135388830Y-106976570D01*
X135388823Y-106976570D01*
X135387342Y-106976500D01*
X134025788Y-106976500D01*
X133946056Y-106983265D01*
X133859767Y-106990587D01*
X133859763Y-106990588D01*
X133854456Y-106991038D01*
X133849301Y-106992376D01*
X133849295Y-106992377D01*
X133684059Y-107035264D01*
X133631961Y-107048786D01*
X133524997Y-107096970D01*
X133427238Y-107141007D01*
X133427235Y-107141008D01*
X133422377Y-107143197D01*
X133417953Y-107146176D01*
X133417952Y-107146176D01*
X133404845Y-107155000D01*
X133231697Y-107271570D01*
X133227840Y-107275249D01*
X133227838Y-107275251D01*
X133210393Y-107291893D01*
X133065372Y-107430236D01*
X132928158Y-107614658D01*
X132925742Y-107619409D01*
X132925740Y-107619413D01*
X132841474Y-107785153D01*
X132823980Y-107819562D01*
X132822398Y-107824657D01*
X132771716Y-107987881D01*
X132755815Y-108039089D01*
X132755114Y-108044378D01*
X132727676Y-108251395D01*
X132725612Y-108266964D01*
X128902098Y-108266964D01*
X128899371Y-108266025D01*
X128894382Y-108265163D01*
X128894381Y-108265163D01*
X128820855Y-108252463D01*
X128815012Y-108251152D01*
X128811112Y-108250408D01*
X128806129Y-108249026D01*
X128796597Y-108248007D01*
X128788572Y-108246887D01*
X128660800Y-108224817D01*
X128656839Y-108224637D01*
X128656838Y-108224637D01*
X128633216Y-108223564D01*
X128633197Y-108223564D01*
X128631797Y-108223500D01*
X128463159Y-108223500D01*
X128460651Y-108223702D01*
X128460646Y-108223702D01*
X128287717Y-108237615D01*
X128287712Y-108237616D01*
X128282676Y-108238021D01*
X128277768Y-108239226D01*
X128277765Y-108239227D01*
X128119923Y-108277997D01*
X128047561Y-108295771D01*
X128042909Y-108297746D01*
X128042905Y-108297747D01*
X127829358Y-108388393D01*
X127824703Y-108390369D01*
X127619837Y-108519380D01*
X127438232Y-108679486D01*
X127284561Y-108866568D01*
X127162778Y-109075812D01*
X127160965Y-109080535D01*
X127096795Y-109247705D01*
X127076016Y-109301835D01*
X127026507Y-109538823D01*
X127026278Y-109543873D01*
X127026277Y-109543878D01*
X127023499Y-109605057D01*
X127015524Y-109780677D01*
X121920000Y-109780677D01*
X121920000Y-102120669D01*
X123476001Y-102120669D01*
X123476371Y-102127490D01*
X123481895Y-102178352D01*
X123485521Y-102193604D01*
X123530676Y-102314054D01*
X123539214Y-102329649D01*
X123615715Y-102431724D01*
X123628276Y-102444285D01*
X123730351Y-102520786D01*
X123745946Y-102529324D01*
X123866394Y-102574478D01*
X123881649Y-102578105D01*
X123932514Y-102583631D01*
X123939328Y-102584000D01*
X125711885Y-102584000D01*
X125727124Y-102579525D01*
X125728329Y-102578135D01*
X125730000Y-102570452D01*
X125730000Y-102565884D01*
X126238000Y-102565884D01*
X126242475Y-102581123D01*
X126243865Y-102582328D01*
X126251548Y-102583999D01*
X128028669Y-102583999D01*
X128035490Y-102583629D01*
X128086352Y-102578105D01*
X128101604Y-102574479D01*
X128222054Y-102529324D01*
X128237649Y-102520786D01*
X128339724Y-102444285D01*
X128352285Y-102431724D01*
X128428786Y-102329649D01*
X128437324Y-102314054D01*
X128482478Y-102193606D01*
X128486105Y-102178351D01*
X128491631Y-102127486D01*
X128492000Y-102120672D01*
X128492000Y-100348115D01*
X128487525Y-100332876D01*
X128486135Y-100331671D01*
X128478452Y-100330000D01*
X126256115Y-100330000D01*
X126240876Y-100334475D01*
X126239671Y-100335865D01*
X126238000Y-100343548D01*
X126238000Y-102565884D01*
X125730000Y-102565884D01*
X125730000Y-100348115D01*
X125725525Y-100332876D01*
X125724135Y-100331671D01*
X125716452Y-100330000D01*
X123494116Y-100330000D01*
X123478877Y-100334475D01*
X123477672Y-100335865D01*
X123476001Y-100343548D01*
X123476001Y-102120669D01*
X121920000Y-102120669D01*
X121920000Y-97662000D01*
X121940002Y-97593879D01*
X121993658Y-97547386D01*
X122046000Y-97536000D01*
X123501932Y-97536000D01*
X123570053Y-97556002D01*
G37*
G04 #@! TD.AperFunction*
G04 #@! TA.AperFunction,Conductor*
G36*
X177037121Y-100754002D02*
G01*
X177083614Y-100807658D01*
X177095000Y-100860000D01*
X177095000Y-109088629D01*
X177074998Y-109156750D01*
X177058095Y-109177724D01*
X174110595Y-112125224D01*
X174048283Y-112159250D01*
X173977468Y-112154185D01*
X173920632Y-112111638D01*
X173895821Y-112045118D01*
X173895500Y-112036129D01*
X173895500Y-111713311D01*
X173915502Y-111645190D01*
X173945935Y-111612485D01*
X173972793Y-111592356D01*
X173972794Y-111592355D01*
X173979974Y-111586974D01*
X174064493Y-111474199D01*
X174113964Y-111342236D01*
X174120500Y-111282070D01*
X174120500Y-110713930D01*
X174113964Y-110653764D01*
X174089847Y-110589432D01*
X174067644Y-110530205D01*
X174067643Y-110530202D01*
X174064493Y-110521801D01*
X173979974Y-110409026D01*
X173972793Y-110403644D01*
X173905935Y-110353537D01*
X173863420Y-110296678D01*
X173855500Y-110252711D01*
X173855500Y-108378040D01*
X173868300Y-108322707D01*
X173873752Y-108311553D01*
X173885423Y-108287677D01*
X173893254Y-108234000D01*
X173894840Y-108223128D01*
X173894840Y-108223124D01*
X173895500Y-108218602D01*
X173895500Y-107982500D01*
X173915502Y-107914379D01*
X173969158Y-107867886D01*
X174021500Y-107856500D01*
X174706619Y-107856500D01*
X174774740Y-107876502D01*
X174821233Y-107930158D01*
X174824598Y-107938263D01*
X174840507Y-107980699D01*
X174845889Y-107987881D01*
X174925026Y-108093474D01*
X175037801Y-108177993D01*
X175046202Y-108181143D01*
X175046205Y-108181144D01*
X175124613Y-108210537D01*
X175169764Y-108227464D01*
X175229930Y-108234000D01*
X175798070Y-108234000D01*
X175858236Y-108227464D01*
X175903387Y-108210537D01*
X175981795Y-108181144D01*
X175981798Y-108181143D01*
X175990199Y-108177993D01*
X176102974Y-108093474D01*
X176187493Y-107980699D01*
X176195294Y-107959892D01*
X176234190Y-107856135D01*
X176236964Y-107848736D01*
X176243500Y-107788570D01*
X176243500Y-107095430D01*
X176236964Y-107035264D01*
X176215019Y-106976725D01*
X176190644Y-106911705D01*
X176190643Y-106911702D01*
X176187493Y-106903301D01*
X176169942Y-106879882D01*
X176127061Y-106822665D01*
X176102214Y-106756158D01*
X176117268Y-106686776D01*
X176161586Y-106639956D01*
X176211492Y-106609073D01*
X176222890Y-106600040D01*
X176335363Y-106487371D01*
X176344375Y-106475960D01*
X176427912Y-106340437D01*
X176434056Y-106327259D01*
X176484315Y-106175734D01*
X176487181Y-106162368D01*
X176496672Y-106069730D01*
X176497000Y-106063315D01*
X176497000Y-105989115D01*
X176492525Y-105973876D01*
X176491135Y-105972671D01*
X176483452Y-105971000D01*
X174549115Y-105971000D01*
X174533876Y-105975475D01*
X174532671Y-105976865D01*
X174531000Y-105984548D01*
X174531000Y-106063266D01*
X174531337Y-106069782D01*
X174541075Y-106163632D01*
X174543968Y-106177028D01*
X174594488Y-106328453D01*
X174600653Y-106341615D01*
X174684426Y-106476992D01*
X174693460Y-106488390D01*
X174806129Y-106600863D01*
X174817543Y-106609877D01*
X174866204Y-106639872D01*
X174913698Y-106692644D01*
X174925122Y-106762715D01*
X174900916Y-106822696D01*
X174860035Y-106877245D01*
X174840507Y-106903301D01*
X174827953Y-106936790D01*
X174824601Y-106945731D01*
X174781959Y-107002495D01*
X174715397Y-107027194D01*
X174706619Y-107027500D01*
X174019193Y-107027500D01*
X173951072Y-107007498D01*
X173904579Y-106953842D01*
X173894536Y-106919850D01*
X173893171Y-106910574D01*
X173885243Y-106856722D01*
X173846834Y-106778492D01*
X173837820Y-106760132D01*
X173837819Y-106760130D01*
X173833230Y-106750784D01*
X173749706Y-106667405D01*
X173727471Y-106656536D01*
X173643677Y-106615577D01*
X173645211Y-106612438D01*
X173600712Y-106582945D01*
X173572133Y-106517954D01*
X173583227Y-106447830D01*
X173592326Y-106431782D01*
X173623839Y-106384620D01*
X173630734Y-106374301D01*
X173645500Y-106300067D01*
X173645500Y-105444885D01*
X174531000Y-105444885D01*
X174535475Y-105460124D01*
X174536865Y-105461329D01*
X174544548Y-105463000D01*
X175241885Y-105463000D01*
X175257124Y-105458525D01*
X175258329Y-105457135D01*
X175260000Y-105449452D01*
X175260000Y-105444885D01*
X175768000Y-105444885D01*
X175772475Y-105460124D01*
X175773865Y-105461329D01*
X175781548Y-105463000D01*
X176478885Y-105463000D01*
X176494124Y-105458525D01*
X176495329Y-105457135D01*
X176497000Y-105449452D01*
X176497000Y-105370734D01*
X176496663Y-105364218D01*
X176486925Y-105270368D01*
X176484032Y-105256972D01*
X176433512Y-105105547D01*
X176427347Y-105092385D01*
X176343574Y-104957008D01*
X176334540Y-104945610D01*
X176221871Y-104833137D01*
X176210460Y-104824125D01*
X176074937Y-104740588D01*
X176061759Y-104734444D01*
X175910234Y-104684185D01*
X175896868Y-104681319D01*
X175804230Y-104671828D01*
X175797815Y-104671500D01*
X175786115Y-104671500D01*
X175770876Y-104675975D01*
X175769671Y-104677365D01*
X175768000Y-104685048D01*
X175768000Y-105444885D01*
X175260000Y-105444885D01*
X175260000Y-104689615D01*
X175255525Y-104674376D01*
X175254135Y-104673171D01*
X175246452Y-104671500D01*
X175230234Y-104671500D01*
X175223718Y-104671837D01*
X175129868Y-104681575D01*
X175116472Y-104684468D01*
X174965047Y-104734988D01*
X174951885Y-104741153D01*
X174816508Y-104824926D01*
X174805110Y-104833960D01*
X174692637Y-104946629D01*
X174683625Y-104958040D01*
X174600088Y-105093563D01*
X174593944Y-105106741D01*
X174543685Y-105258266D01*
X174540819Y-105271632D01*
X174531328Y-105364270D01*
X174531000Y-105370685D01*
X174531000Y-105444885D01*
X173645500Y-105444885D01*
X173645499Y-104519934D01*
X173637739Y-104480918D01*
X173633156Y-104457874D01*
X173633155Y-104457872D01*
X173630734Y-104445699D01*
X173592312Y-104388197D01*
X173571097Y-104320445D01*
X173589880Y-104251978D01*
X173642697Y-104204534D01*
X173642935Y-104204441D01*
X173644278Y-104204243D01*
X173662590Y-104195252D01*
X173740868Y-104156820D01*
X173740870Y-104156819D01*
X173750216Y-104152230D01*
X173833595Y-104068706D01*
X173885423Y-103962677D01*
X173895500Y-103893602D01*
X173895500Y-103278470D01*
X173895836Y-103274196D01*
X173896501Y-103272150D01*
X173896501Y-103140849D01*
X173896500Y-103140846D01*
X173896500Y-101534349D01*
X173889358Y-101512366D01*
X173884744Y-101493145D01*
X173882679Y-101480110D01*
X173882678Y-101480106D01*
X173881127Y-101470316D01*
X173870635Y-101449723D01*
X173863071Y-101431462D01*
X173858992Y-101418911D01*
X173855926Y-101409475D01*
X173842343Y-101390780D01*
X173832011Y-101373920D01*
X173826022Y-101362166D01*
X173821518Y-101353326D01*
X173417287Y-100949095D01*
X173383262Y-100886783D01*
X173388327Y-100815967D01*
X173430874Y-100759132D01*
X173497394Y-100734321D01*
X173506383Y-100734000D01*
X176969000Y-100734000D01*
X177037121Y-100754002D01*
G37*
G04 #@! TD.AperFunction*
G04 #@! TA.AperFunction,Conductor*
G36*
X172928621Y-107392502D02*
G01*
X172975114Y-107446158D01*
X172986500Y-107498500D01*
X172986500Y-108218602D01*
X172987170Y-108223151D01*
X172987170Y-108223156D01*
X172989657Y-108240048D01*
X172991000Y-108258398D01*
X172991000Y-108766965D01*
X173000120Y-108798026D01*
X173021396Y-108831131D01*
X173026500Y-108866630D01*
X173026500Y-110157817D01*
X173006498Y-110225938D01*
X172952842Y-110272431D01*
X172944729Y-110275799D01*
X172823207Y-110321355D01*
X172823203Y-110321357D01*
X172814801Y-110324507D01*
X172702026Y-110409026D01*
X172617507Y-110521801D01*
X172614357Y-110530202D01*
X172614356Y-110530205D01*
X172583982Y-110611228D01*
X172541340Y-110667992D01*
X172474779Y-110692692D01*
X172405430Y-110677484D01*
X172355312Y-110627198D01*
X172348018Y-110611228D01*
X172317644Y-110530205D01*
X172317643Y-110530202D01*
X172314493Y-110521801D01*
X172229974Y-110409026D01*
X172117199Y-110324507D01*
X172108797Y-110321357D01*
X172108793Y-110321355D01*
X171987271Y-110275799D01*
X171930506Y-110233158D01*
X171905806Y-110166596D01*
X171905500Y-110157817D01*
X171905500Y-108866404D01*
X171925502Y-108798283D01*
X171935454Y-108786660D01*
X171941000Y-108767347D01*
X171941000Y-108766965D01*
X172341000Y-108766965D01*
X172345044Y-108780736D01*
X172358583Y-108782765D01*
X172391533Y-108778428D01*
X172407345Y-108774191D01*
X172417779Y-108769869D01*
X172488369Y-108762278D01*
X172514221Y-108769869D01*
X172524652Y-108774190D01*
X172540469Y-108778428D01*
X172573040Y-108782716D01*
X172587222Y-108780505D01*
X172591000Y-108767348D01*
X172591000Y-107790615D01*
X172586525Y-107775376D01*
X172585135Y-107774171D01*
X172577452Y-107772500D01*
X172359115Y-107772500D01*
X172343876Y-107776975D01*
X172342671Y-107778365D01*
X172341000Y-107786048D01*
X172341000Y-108766965D01*
X171941000Y-108766965D01*
X171941000Y-108258589D01*
X171942320Y-108240400D01*
X171944840Y-108223128D01*
X171944840Y-108223124D01*
X171945500Y-108218602D01*
X171945500Y-107498500D01*
X171965502Y-107430379D01*
X172019158Y-107383886D01*
X172071500Y-107372500D01*
X172860500Y-107372500D01*
X172928621Y-107392502D01*
G37*
G04 #@! TD.AperFunction*
M02*
