%TF.GenerationSoftware,KiCad,Pcbnew,6.0.8-f2edbf62ab~116~ubuntu20.04.1*%
%TF.CreationDate,2022-11-14T20:51:57-05:00*%
%TF.ProjectId,solar_lights,736f6c61-725f-46c6-9967-6874732e6b69,rev?*%
%TF.SameCoordinates,Original*%
%TF.FileFunction,Drillmap*%
%TF.FilePolarity,Positive*%
%FSLAX45Y45*%
G04 Gerber Fmt 4.5, Leading zero omitted, Abs format (unit mm)*
G04 Created by KiCad (PCBNEW 6.0.8-f2edbf62ab~116~ubuntu20.04.1) date 2022-11-14 20:51:57*
%MOMM*%
%LPD*%
G01*
G04 APERTURE LIST*
%ADD10C,0.100000*%
%ADD11C,0.200000*%
%ADD12C,0.250000*%
G04 APERTURE END LIST*
D10*
X19304000Y-11684000D02*
X12141200Y-11684000D01*
X12141200Y-11684000D02*
X12141200Y-9702800D01*
X12141200Y-9702800D02*
X19304000Y-9702800D01*
X19304000Y-9702800D02*
X19304000Y-11684000D01*
D11*
D12*
X12727400Y-10847800D02*
X12977400Y-11097800D01*
X12977400Y-10847800D02*
X12727400Y-11097800D01*
X14759400Y-10847800D02*
X15009400Y-11097800D01*
X15009400Y-10847800D02*
X14759400Y-11097800D01*
D11*
X12393819Y-11999476D02*
X12393819Y-11799476D01*
X12441438Y-11799476D01*
X12470009Y-11809000D01*
X12489057Y-11828048D01*
X12498581Y-11847095D01*
X12508105Y-11885190D01*
X12508105Y-11913762D01*
X12498581Y-11951857D01*
X12489057Y-11970905D01*
X12470009Y-11989952D01*
X12441438Y-11999476D01*
X12393819Y-11999476D01*
X12593819Y-11999476D02*
X12593819Y-11866143D01*
X12593819Y-11904238D02*
X12603343Y-11885190D01*
X12612867Y-11875667D01*
X12631914Y-11866143D01*
X12650962Y-11866143D01*
X12717628Y-11999476D02*
X12717628Y-11866143D01*
X12717628Y-11799476D02*
X12708105Y-11809000D01*
X12717628Y-11818524D01*
X12727152Y-11809000D01*
X12717628Y-11799476D01*
X12717628Y-11818524D01*
X12841438Y-11999476D02*
X12822390Y-11989952D01*
X12812867Y-11970905D01*
X12812867Y-11799476D01*
X12946200Y-11999476D02*
X12927152Y-11989952D01*
X12917628Y-11970905D01*
X12917628Y-11799476D01*
X13174771Y-11999476D02*
X13174771Y-11799476D01*
X13241438Y-11942333D01*
X13308105Y-11799476D01*
X13308105Y-11999476D01*
X13489057Y-11999476D02*
X13489057Y-11894714D01*
X13479533Y-11875667D01*
X13460486Y-11866143D01*
X13422390Y-11866143D01*
X13403343Y-11875667D01*
X13489057Y-11989952D02*
X13470009Y-11999476D01*
X13422390Y-11999476D01*
X13403343Y-11989952D01*
X13393819Y-11970905D01*
X13393819Y-11951857D01*
X13403343Y-11932809D01*
X13422390Y-11923286D01*
X13470009Y-11923286D01*
X13489057Y-11913762D01*
X13584295Y-11866143D02*
X13584295Y-12066143D01*
X13584295Y-11875667D02*
X13603343Y-11866143D01*
X13641438Y-11866143D01*
X13660486Y-11875667D01*
X13670009Y-11885190D01*
X13679533Y-11904238D01*
X13679533Y-11961381D01*
X13670009Y-11980428D01*
X13660486Y-11989952D01*
X13641438Y-11999476D01*
X13603343Y-11999476D01*
X13584295Y-11989952D01*
X13765248Y-11980428D02*
X13774771Y-11989952D01*
X13765248Y-11999476D01*
X13755724Y-11989952D01*
X13765248Y-11980428D01*
X13765248Y-11999476D01*
X13765248Y-11875667D02*
X13774771Y-11885190D01*
X13765248Y-11894714D01*
X13755724Y-11885190D01*
X13765248Y-11875667D01*
X13765248Y-11894714D01*
X11936200Y-12229000D02*
X12136200Y-12429000D01*
X12136200Y-12229000D02*
X11936200Y-12429000D01*
X12384295Y-12238524D02*
X12393819Y-12229000D01*
X12412867Y-12219476D01*
X12460486Y-12219476D01*
X12479533Y-12229000D01*
X12489057Y-12238524D01*
X12498581Y-12257571D01*
X12498581Y-12276619D01*
X12489057Y-12305190D01*
X12374771Y-12419476D01*
X12498581Y-12419476D01*
X12584295Y-12400428D02*
X12593819Y-12409952D01*
X12584295Y-12419476D01*
X12574771Y-12409952D01*
X12584295Y-12400428D01*
X12584295Y-12419476D01*
X12774771Y-12219476D02*
X12679533Y-12219476D01*
X12670009Y-12314714D01*
X12679533Y-12305190D01*
X12698581Y-12295667D01*
X12746200Y-12295667D01*
X12765248Y-12305190D01*
X12774771Y-12314714D01*
X12784295Y-12333762D01*
X12784295Y-12381381D01*
X12774771Y-12400428D01*
X12765248Y-12409952D01*
X12746200Y-12419476D01*
X12698581Y-12419476D01*
X12679533Y-12409952D01*
X12670009Y-12400428D01*
X12908105Y-12219476D02*
X12927152Y-12219476D01*
X12946200Y-12229000D01*
X12955724Y-12238524D01*
X12965248Y-12257571D01*
X12974771Y-12295667D01*
X12974771Y-12343286D01*
X12965248Y-12381381D01*
X12955724Y-12400428D01*
X12946200Y-12409952D01*
X12927152Y-12419476D01*
X12908105Y-12419476D01*
X12889057Y-12409952D01*
X12879533Y-12400428D01*
X12870009Y-12381381D01*
X12860486Y-12343286D01*
X12860486Y-12295667D01*
X12870009Y-12257571D01*
X12879533Y-12238524D01*
X12889057Y-12229000D01*
X12908105Y-12219476D01*
X13098581Y-12219476D02*
X13117628Y-12219476D01*
X13136676Y-12229000D01*
X13146200Y-12238524D01*
X13155724Y-12257571D01*
X13165248Y-12295667D01*
X13165248Y-12343286D01*
X13155724Y-12381381D01*
X13146200Y-12400428D01*
X13136676Y-12409952D01*
X13117628Y-12419476D01*
X13098581Y-12419476D01*
X13079533Y-12409952D01*
X13070009Y-12400428D01*
X13060486Y-12381381D01*
X13050962Y-12343286D01*
X13050962Y-12295667D01*
X13060486Y-12257571D01*
X13070009Y-12238524D01*
X13079533Y-12229000D01*
X13098581Y-12219476D01*
X13250962Y-12419476D02*
X13250962Y-12286143D01*
X13250962Y-12305190D02*
X13260486Y-12295667D01*
X13279533Y-12286143D01*
X13308105Y-12286143D01*
X13327152Y-12295667D01*
X13336676Y-12314714D01*
X13336676Y-12419476D01*
X13336676Y-12314714D02*
X13346200Y-12295667D01*
X13365248Y-12286143D01*
X13393819Y-12286143D01*
X13412867Y-12295667D01*
X13422390Y-12314714D01*
X13422390Y-12419476D01*
X13517628Y-12419476D02*
X13517628Y-12286143D01*
X13517628Y-12305190D02*
X13527152Y-12295667D01*
X13546200Y-12286143D01*
X13574771Y-12286143D01*
X13593819Y-12295667D01*
X13603343Y-12314714D01*
X13603343Y-12419476D01*
X13603343Y-12314714D02*
X13612867Y-12295667D01*
X13631914Y-12286143D01*
X13660486Y-12286143D01*
X13679533Y-12295667D01*
X13689057Y-12314714D01*
X13689057Y-12419476D01*
X14079533Y-12209952D02*
X13908105Y-12467095D01*
X14336676Y-12219476D02*
X14355724Y-12219476D01*
X14374771Y-12229000D01*
X14384295Y-12238524D01*
X14393819Y-12257571D01*
X14403343Y-12295667D01*
X14403343Y-12343286D01*
X14393819Y-12381381D01*
X14384295Y-12400428D01*
X14374771Y-12409952D01*
X14355724Y-12419476D01*
X14336676Y-12419476D01*
X14317628Y-12409952D01*
X14308105Y-12400428D01*
X14298581Y-12381381D01*
X14289057Y-12343286D01*
X14289057Y-12295667D01*
X14298581Y-12257571D01*
X14308105Y-12238524D01*
X14317628Y-12229000D01*
X14336676Y-12219476D01*
X14489057Y-12400428D02*
X14498581Y-12409952D01*
X14489057Y-12419476D01*
X14479533Y-12409952D01*
X14489057Y-12400428D01*
X14489057Y-12419476D01*
X14622390Y-12219476D02*
X14641438Y-12219476D01*
X14660486Y-12229000D01*
X14670009Y-12238524D01*
X14679533Y-12257571D01*
X14689057Y-12295667D01*
X14689057Y-12343286D01*
X14679533Y-12381381D01*
X14670009Y-12400428D01*
X14660486Y-12409952D01*
X14641438Y-12419476D01*
X14622390Y-12419476D01*
X14603343Y-12409952D01*
X14593819Y-12400428D01*
X14584295Y-12381381D01*
X14574771Y-12343286D01*
X14574771Y-12295667D01*
X14584295Y-12257571D01*
X14593819Y-12238524D01*
X14603343Y-12229000D01*
X14622390Y-12219476D01*
X14784295Y-12419476D02*
X14822390Y-12419476D01*
X14841438Y-12409952D01*
X14850962Y-12400428D01*
X14870009Y-12371857D01*
X14879533Y-12333762D01*
X14879533Y-12257571D01*
X14870009Y-12238524D01*
X14860486Y-12229000D01*
X14841438Y-12219476D01*
X14803343Y-12219476D01*
X14784295Y-12229000D01*
X14774771Y-12238524D01*
X14765248Y-12257571D01*
X14765248Y-12305190D01*
X14774771Y-12324238D01*
X14784295Y-12333762D01*
X14803343Y-12343286D01*
X14841438Y-12343286D01*
X14860486Y-12333762D01*
X14870009Y-12324238D01*
X14879533Y-12305190D01*
X14993819Y-12305190D02*
X14974771Y-12295667D01*
X14965248Y-12286143D01*
X14955724Y-12267095D01*
X14955724Y-12257571D01*
X14965248Y-12238524D01*
X14974771Y-12229000D01*
X14993819Y-12219476D01*
X15031914Y-12219476D01*
X15050962Y-12229000D01*
X15060486Y-12238524D01*
X15070009Y-12257571D01*
X15070009Y-12267095D01*
X15060486Y-12286143D01*
X15050962Y-12295667D01*
X15031914Y-12305190D01*
X14993819Y-12305190D01*
X14974771Y-12314714D01*
X14965248Y-12324238D01*
X14955724Y-12343286D01*
X14955724Y-12381381D01*
X14965248Y-12400428D01*
X14974771Y-12409952D01*
X14993819Y-12419476D01*
X15031914Y-12419476D01*
X15050962Y-12409952D01*
X15060486Y-12400428D01*
X15070009Y-12381381D01*
X15070009Y-12343286D01*
X15060486Y-12324238D01*
X15050962Y-12314714D01*
X15031914Y-12305190D01*
X15241438Y-12286143D02*
X15241438Y-12419476D01*
X15193819Y-12209952D02*
X15146200Y-12352809D01*
X15270009Y-12352809D01*
X15336676Y-12219476D02*
X15336676Y-12257571D01*
X15412867Y-12219476D02*
X15412867Y-12257571D01*
X15708105Y-12495667D02*
X15698581Y-12486143D01*
X15679533Y-12457571D01*
X15670009Y-12438524D01*
X15660486Y-12409952D01*
X15650962Y-12362333D01*
X15650962Y-12324238D01*
X15660486Y-12276619D01*
X15670009Y-12248048D01*
X15679533Y-12229000D01*
X15698581Y-12200428D01*
X15708105Y-12190905D01*
X15774771Y-12238524D02*
X15784295Y-12229000D01*
X15803343Y-12219476D01*
X15850962Y-12219476D01*
X15870009Y-12229000D01*
X15879533Y-12238524D01*
X15889057Y-12257571D01*
X15889057Y-12276619D01*
X15879533Y-12305190D01*
X15765248Y-12419476D01*
X15889057Y-12419476D01*
X16127152Y-12419476D02*
X16127152Y-12219476D01*
X16212867Y-12419476D02*
X16212867Y-12314714D01*
X16203343Y-12295667D01*
X16184295Y-12286143D01*
X16155724Y-12286143D01*
X16136676Y-12295667D01*
X16127152Y-12305190D01*
X16336676Y-12419476D02*
X16317628Y-12409952D01*
X16308105Y-12400428D01*
X16298581Y-12381381D01*
X16298581Y-12324238D01*
X16308105Y-12305190D01*
X16317628Y-12295667D01*
X16336676Y-12286143D01*
X16365248Y-12286143D01*
X16384295Y-12295667D01*
X16393819Y-12305190D01*
X16403343Y-12324238D01*
X16403343Y-12381381D01*
X16393819Y-12400428D01*
X16384295Y-12409952D01*
X16365248Y-12419476D01*
X16336676Y-12419476D01*
X16517628Y-12419476D02*
X16498581Y-12409952D01*
X16489057Y-12390905D01*
X16489057Y-12219476D01*
X16670009Y-12409952D02*
X16650962Y-12419476D01*
X16612867Y-12419476D01*
X16593819Y-12409952D01*
X16584295Y-12390905D01*
X16584295Y-12314714D01*
X16593819Y-12295667D01*
X16612867Y-12286143D01*
X16650962Y-12286143D01*
X16670009Y-12295667D01*
X16679533Y-12314714D01*
X16679533Y-12333762D01*
X16584295Y-12352809D01*
X16755724Y-12409952D02*
X16774771Y-12419476D01*
X16812867Y-12419476D01*
X16831914Y-12409952D01*
X16841438Y-12390905D01*
X16841438Y-12381381D01*
X16831914Y-12362333D01*
X16812867Y-12352809D01*
X16784295Y-12352809D01*
X16765248Y-12343286D01*
X16755724Y-12324238D01*
X16755724Y-12314714D01*
X16765248Y-12295667D01*
X16784295Y-12286143D01*
X16812867Y-12286143D01*
X16831914Y-12295667D01*
X16908105Y-12495667D02*
X16917629Y-12486143D01*
X16936676Y-12457571D01*
X16946200Y-12438524D01*
X16955724Y-12409952D01*
X16965248Y-12362333D01*
X16965248Y-12324238D01*
X16955724Y-12276619D01*
X16946200Y-12248048D01*
X16936676Y-12229000D01*
X16917629Y-12200428D01*
X16908105Y-12190905D01*
X17270010Y-12495667D02*
X17260486Y-12486143D01*
X17241438Y-12457571D01*
X17231914Y-12438524D01*
X17222390Y-12409952D01*
X17212867Y-12362333D01*
X17212867Y-12324238D01*
X17222390Y-12276619D01*
X17231914Y-12248048D01*
X17241438Y-12229000D01*
X17260486Y-12200428D01*
X17270010Y-12190905D01*
X17346200Y-12286143D02*
X17346200Y-12419476D01*
X17346200Y-12305190D02*
X17355724Y-12295667D01*
X17374771Y-12286143D01*
X17403343Y-12286143D01*
X17422390Y-12295667D01*
X17431914Y-12314714D01*
X17431914Y-12419476D01*
X17555724Y-12419476D02*
X17536676Y-12409952D01*
X17527152Y-12400428D01*
X17517629Y-12381381D01*
X17517629Y-12324238D01*
X17527152Y-12305190D01*
X17536676Y-12295667D01*
X17555724Y-12286143D01*
X17584295Y-12286143D01*
X17603343Y-12295667D01*
X17612867Y-12305190D01*
X17622390Y-12324238D01*
X17622390Y-12381381D01*
X17612867Y-12400428D01*
X17603343Y-12409952D01*
X17584295Y-12419476D01*
X17555724Y-12419476D01*
X17679533Y-12286143D02*
X17755724Y-12286143D01*
X17708105Y-12219476D02*
X17708105Y-12390905D01*
X17717629Y-12409952D01*
X17736676Y-12419476D01*
X17755724Y-12419476D01*
X17974771Y-12286143D02*
X17974771Y-12486143D01*
X17974771Y-12295667D02*
X17993819Y-12286143D01*
X18031914Y-12286143D01*
X18050962Y-12295667D01*
X18060486Y-12305190D01*
X18070010Y-12324238D01*
X18070010Y-12381381D01*
X18060486Y-12400428D01*
X18050962Y-12409952D01*
X18031914Y-12419476D01*
X17993819Y-12419476D01*
X17974771Y-12409952D01*
X18184295Y-12419476D02*
X18165248Y-12409952D01*
X18155724Y-12390905D01*
X18155724Y-12219476D01*
X18346200Y-12419476D02*
X18346200Y-12314714D01*
X18336676Y-12295667D01*
X18317629Y-12286143D01*
X18279533Y-12286143D01*
X18260486Y-12295667D01*
X18346200Y-12409952D02*
X18327152Y-12419476D01*
X18279533Y-12419476D01*
X18260486Y-12409952D01*
X18250962Y-12390905D01*
X18250962Y-12371857D01*
X18260486Y-12352809D01*
X18279533Y-12343286D01*
X18327152Y-12343286D01*
X18346200Y-12333762D01*
X18412867Y-12286143D02*
X18489057Y-12286143D01*
X18441438Y-12219476D02*
X18441438Y-12390905D01*
X18450962Y-12409952D01*
X18470010Y-12419476D01*
X18489057Y-12419476D01*
X18631914Y-12409952D02*
X18612867Y-12419476D01*
X18574771Y-12419476D01*
X18555724Y-12409952D01*
X18546200Y-12390905D01*
X18546200Y-12314714D01*
X18555724Y-12295667D01*
X18574771Y-12286143D01*
X18612867Y-12286143D01*
X18631914Y-12295667D01*
X18641438Y-12314714D01*
X18641438Y-12333762D01*
X18546200Y-12352809D01*
X18812867Y-12419476D02*
X18812867Y-12219476D01*
X18812867Y-12409952D02*
X18793819Y-12419476D01*
X18755724Y-12419476D01*
X18736676Y-12409952D01*
X18727152Y-12400428D01*
X18717629Y-12381381D01*
X18717629Y-12324238D01*
X18727152Y-12305190D01*
X18736676Y-12295667D01*
X18755724Y-12286143D01*
X18793819Y-12286143D01*
X18812867Y-12295667D01*
X18889057Y-12495667D02*
X18898581Y-12486143D01*
X18917629Y-12457571D01*
X18927152Y-12438524D01*
X18936676Y-12409952D01*
X18946200Y-12362333D01*
X18946200Y-12324238D01*
X18936676Y-12276619D01*
X18927152Y-12248048D01*
X18917629Y-12229000D01*
X18898581Y-12200428D01*
X18889057Y-12190905D01*
M02*
