G04 #@! TF.GenerationSoftware,KiCad,Pcbnew,6.0.8-f2edbf62ab~116~ubuntu20.04.1*
G04 #@! TF.CreationDate,2022-11-14T20:50:25-05:00*
G04 #@! TF.ProjectId,solar_lights,736f6c61-725f-46c6-9967-6874732e6b69,rev?*
G04 #@! TF.SameCoordinates,Original*
G04 #@! TF.FileFunction,Copper,L2,Bot*
G04 #@! TF.FilePolarity,Positive*
%FSLAX46Y46*%
G04 Gerber Fmt 4.6, Leading zero omitted, Abs format (unit mm)*
G04 Created by KiCad (PCBNEW 6.0.8-f2edbf62ab~116~ubuntu20.04.1) date 2022-11-14 20:50:25*
%MOMM*%
%LPD*%
G01*
G04 APERTURE LIST*
G04 #@! TA.AperFunction,ComponentPad*
%ADD10O,3.400000X2.200000*%
G04 #@! TD*
G04 #@! TA.AperFunction,ConnectorPad*
%ADD11C,5.000000*%
G04 #@! TD*
G04 #@! TA.AperFunction,ComponentPad*
%ADD12C,2.900000*%
G04 #@! TD*
G04 #@! TA.AperFunction,ComponentPad*
%ADD13C,0.500000*%
G04 #@! TD*
G04 #@! TA.AperFunction,SMDPad,CuDef*
%ADD14R,1.800000X1.600000*%
G04 #@! TD*
G04 #@! TA.AperFunction,ViaPad*
%ADD15C,0.800000*%
G04 #@! TD*
G04 APERTURE END LIST*
D10*
X142683500Y-111331000D03*
X138683500Y-111331000D03*
X134683500Y-111331000D03*
X142683500Y-108331000D03*
X138683500Y-108331000D03*
X134683500Y-108331000D03*
D11*
X164084000Y-111506000D03*
D12*
X164084000Y-111506000D03*
X145796000Y-102616000D03*
D11*
X145796000Y-102616000D03*
D12*
X139192000Y-102616000D03*
D11*
X139192000Y-102616000D03*
X188976000Y-106680000D03*
D12*
X188976000Y-106680000D03*
X182880000Y-112776000D03*
D11*
X182880000Y-112776000D03*
X182880000Y-106680000D03*
D12*
X182880000Y-106680000D03*
D13*
X173116000Y-105960000D03*
X171816000Y-105960000D03*
X171816000Y-104860000D03*
D14*
X172466000Y-105410000D03*
D13*
X173116000Y-104860000D03*
D12*
X156972000Y-111506000D03*
D11*
X156972000Y-111506000D03*
D12*
X188976000Y-112776000D03*
D11*
X188976000Y-112776000D03*
D15*
X176276000Y-101600000D03*
X174752000Y-101600000D03*
X172466000Y-109220000D03*
G04 #@! TA.AperFunction,Conductor*
G36*
X192474121Y-97556002D02*
G01*
X192520614Y-97609658D01*
X192532000Y-97662000D01*
X192532000Y-116206000D01*
X192511998Y-116274121D01*
X192458342Y-116320614D01*
X192406000Y-116332000D01*
X122046000Y-116332000D01*
X121977879Y-116311998D01*
X121931386Y-116258342D01*
X121920000Y-116206000D01*
X121920000Y-115077681D01*
X180943860Y-115077681D01*
X180943878Y-115077933D01*
X180949793Y-115086677D01*
X180981111Y-115115174D01*
X180986748Y-115119738D01*
X181262544Y-115317918D01*
X181268682Y-115321813D01*
X181565435Y-115486984D01*
X181571955Y-115490136D01*
X181885738Y-115620109D01*
X181892589Y-115622495D01*
X182219212Y-115715536D01*
X182226301Y-115717120D01*
X182561465Y-115772006D01*
X182568671Y-115772763D01*
X182907926Y-115788762D01*
X182915176Y-115788686D01*
X183254010Y-115765587D01*
X183261219Y-115764676D01*
X183595160Y-115702784D01*
X183602190Y-115701057D01*
X183926819Y-115601187D01*
X183933597Y-115598667D01*
X184244603Y-115462145D01*
X184251043Y-115458864D01*
X184544293Y-115287502D01*
X184550326Y-115283493D01*
X184808828Y-115089405D01*
X184817282Y-115078078D01*
X184817065Y-115077681D01*
X187039860Y-115077681D01*
X187039878Y-115077933D01*
X187045793Y-115086677D01*
X187077111Y-115115174D01*
X187082748Y-115119738D01*
X187358544Y-115317918D01*
X187364682Y-115321813D01*
X187661435Y-115486984D01*
X187667955Y-115490136D01*
X187981738Y-115620109D01*
X187988589Y-115622495D01*
X188315212Y-115715536D01*
X188322301Y-115717120D01*
X188657465Y-115772006D01*
X188664671Y-115772763D01*
X189003926Y-115788762D01*
X189011176Y-115788686D01*
X189350010Y-115765587D01*
X189357219Y-115764676D01*
X189691160Y-115702784D01*
X189698190Y-115701057D01*
X190022819Y-115601187D01*
X190029597Y-115598667D01*
X190340603Y-115462145D01*
X190347043Y-115458864D01*
X190640293Y-115287502D01*
X190646326Y-115283493D01*
X190904828Y-115089405D01*
X190913282Y-115078078D01*
X190906537Y-115065748D01*
X188988810Y-113148020D01*
X188974869Y-113140408D01*
X188973034Y-113140539D01*
X188966420Y-113144790D01*
X187047474Y-115063737D01*
X187039860Y-115077681D01*
X184817065Y-115077681D01*
X184810537Y-115065748D01*
X182892810Y-113148020D01*
X182878869Y-113140408D01*
X182877034Y-113140539D01*
X182870420Y-113144790D01*
X180951474Y-115063737D01*
X180943860Y-115077681D01*
X121920000Y-115077681D01*
X121920000Y-111266964D01*
X132725612Y-111266964D01*
X132734236Y-111496669D01*
X132781439Y-111721637D01*
X132865872Y-111935436D01*
X132868643Y-111940002D01*
X132979376Y-112122484D01*
X132985121Y-112131952D01*
X132988616Y-112135980D01*
X132988617Y-112135981D01*
X133071734Y-112231764D01*
X133135776Y-112305566D01*
X133139907Y-112308953D01*
X133309401Y-112447931D01*
X133309407Y-112447935D01*
X133313529Y-112451315D01*
X133318165Y-112453954D01*
X133318168Y-112453956D01*
X133435936Y-112520993D01*
X133513298Y-112565030D01*
X133639998Y-112611020D01*
X133724356Y-112641641D01*
X133724360Y-112641642D01*
X133729371Y-112643461D01*
X133734620Y-112644410D01*
X133734623Y-112644411D01*
X133814471Y-112658849D01*
X133955569Y-112684364D01*
X133959708Y-112684559D01*
X133959715Y-112684560D01*
X133978170Y-112685430D01*
X133978177Y-112685430D01*
X133979658Y-112685500D01*
X135341212Y-112685500D01*
X135420944Y-112678735D01*
X135507233Y-112671413D01*
X135507237Y-112671412D01*
X135512544Y-112670962D01*
X135517699Y-112669624D01*
X135517705Y-112669623D01*
X135729868Y-112614556D01*
X135729867Y-112614556D01*
X135735039Y-112613214D01*
X135916046Y-112531676D01*
X135939762Y-112520993D01*
X135939765Y-112520992D01*
X135944623Y-112518803D01*
X136135303Y-112390430D01*
X136301628Y-112231764D01*
X136438842Y-112047342D01*
X136463061Y-111999708D01*
X136540602Y-111847194D01*
X136540602Y-111847193D01*
X136543020Y-111842438D01*
X136562863Y-111778534D01*
X136602165Y-111719410D01*
X136667194Y-111690919D01*
X136737303Y-111702108D01*
X136790234Y-111749426D01*
X136800387Y-111769617D01*
X136817344Y-111812555D01*
X136865872Y-111935436D01*
X136868643Y-111940002D01*
X136979376Y-112122484D01*
X136985121Y-112131952D01*
X136988616Y-112135980D01*
X136988617Y-112135981D01*
X137071734Y-112231764D01*
X137135776Y-112305566D01*
X137139907Y-112308953D01*
X137309401Y-112447931D01*
X137309407Y-112447935D01*
X137313529Y-112451315D01*
X137318165Y-112453954D01*
X137318168Y-112453956D01*
X137435936Y-112520993D01*
X137513298Y-112565030D01*
X137639998Y-112611020D01*
X137724356Y-112641641D01*
X137724360Y-112641642D01*
X137729371Y-112643461D01*
X137734620Y-112644410D01*
X137734623Y-112644411D01*
X137814471Y-112658849D01*
X137955569Y-112684364D01*
X137959708Y-112684559D01*
X137959715Y-112684560D01*
X137978170Y-112685430D01*
X137978177Y-112685430D01*
X137979658Y-112685500D01*
X139341212Y-112685500D01*
X139420944Y-112678735D01*
X139507233Y-112671413D01*
X139507237Y-112671412D01*
X139512544Y-112670962D01*
X139517699Y-112669624D01*
X139517705Y-112669623D01*
X139729868Y-112614556D01*
X139729867Y-112614556D01*
X139735039Y-112613214D01*
X139916046Y-112531676D01*
X139939762Y-112520993D01*
X139939765Y-112520992D01*
X139944623Y-112518803D01*
X140135303Y-112390430D01*
X140301628Y-112231764D01*
X140438842Y-112047342D01*
X140463061Y-111999708D01*
X140540602Y-111847194D01*
X140540602Y-111847193D01*
X140543020Y-111842438D01*
X140562863Y-111778534D01*
X140602165Y-111719410D01*
X140667194Y-111690919D01*
X140737303Y-111702108D01*
X140790234Y-111749426D01*
X140800387Y-111769617D01*
X140817344Y-111812555D01*
X140865872Y-111935436D01*
X140868643Y-111940002D01*
X140979376Y-112122484D01*
X140985121Y-112131952D01*
X140988616Y-112135980D01*
X140988617Y-112135981D01*
X141071734Y-112231764D01*
X141135776Y-112305566D01*
X141139907Y-112308953D01*
X141309401Y-112447931D01*
X141309407Y-112447935D01*
X141313529Y-112451315D01*
X141318165Y-112453954D01*
X141318168Y-112453956D01*
X141435936Y-112520993D01*
X141513298Y-112565030D01*
X141639998Y-112611020D01*
X141724356Y-112641641D01*
X141724360Y-112641642D01*
X141729371Y-112643461D01*
X141734620Y-112644410D01*
X141734623Y-112644411D01*
X141814471Y-112658849D01*
X141955569Y-112684364D01*
X141959708Y-112684559D01*
X141959715Y-112684560D01*
X141978170Y-112685430D01*
X141978177Y-112685430D01*
X141979658Y-112685500D01*
X143341212Y-112685500D01*
X143420944Y-112678735D01*
X143507233Y-112671413D01*
X143507237Y-112671412D01*
X143512544Y-112670962D01*
X143517699Y-112669624D01*
X143517705Y-112669623D01*
X143729868Y-112614556D01*
X143729867Y-112614556D01*
X143735039Y-112613214D01*
X143916046Y-112531676D01*
X143939762Y-112520993D01*
X143939765Y-112520992D01*
X143944623Y-112518803D01*
X144135303Y-112390430D01*
X144301628Y-112231764D01*
X144438842Y-112047342D01*
X144463061Y-111999708D01*
X144540602Y-111847194D01*
X144540602Y-111847193D01*
X144543020Y-111842438D01*
X144611185Y-111622911D01*
X144630511Y-111477103D01*
X154212616Y-111477103D01*
X154212805Y-111480895D01*
X154227179Y-111769617D01*
X154229130Y-111808816D01*
X154229771Y-111812547D01*
X154229772Y-111812555D01*
X154281020Y-112110796D01*
X154285375Y-112136142D01*
X154286463Y-112139781D01*
X154286464Y-112139784D01*
X154362315Y-112393410D01*
X154380537Y-112454341D01*
X154382050Y-112457812D01*
X154382052Y-112457818D01*
X154473425Y-112667462D01*
X154513236Y-112758803D01*
X154515159Y-112762074D01*
X154515161Y-112762078D01*
X154679629Y-113041847D01*
X154679634Y-113041855D01*
X154681552Y-113045117D01*
X154883046Y-113309137D01*
X154885694Y-113311856D01*
X154885699Y-113311861D01*
X155112152Y-113544322D01*
X155114798Y-113547038D01*
X155117742Y-113549409D01*
X155117745Y-113549412D01*
X155188810Y-113606652D01*
X155373453Y-113755374D01*
X155655264Y-113931127D01*
X155956147Y-114071751D01*
X156271746Y-114175209D01*
X156597488Y-114240003D01*
X156601261Y-114240290D01*
X156601268Y-114240291D01*
X156924878Y-114264908D01*
X156924883Y-114264908D01*
X156928655Y-114265195D01*
X157260450Y-114250418D01*
X157588067Y-114195888D01*
X157591701Y-114194822D01*
X157591705Y-114194821D01*
X157733975Y-114153083D01*
X157906759Y-114102393D01*
X158211912Y-113971290D01*
X158499103Y-113804475D01*
X158764175Y-113604367D01*
X159003286Y-113373863D01*
X159008090Y-113367963D01*
X159210582Y-113119239D01*
X159210583Y-113119238D01*
X159212973Y-113116302D01*
X159214995Y-113113098D01*
X159388176Y-112838623D01*
X159388179Y-112838617D01*
X159390199Y-112835416D01*
X159532397Y-112535273D01*
X159637506Y-112220220D01*
X159704005Y-111894822D01*
X159730930Y-111563791D01*
X159731535Y-111506000D01*
X159730973Y-111496669D01*
X159729793Y-111477103D01*
X161324616Y-111477103D01*
X161324805Y-111480895D01*
X161339179Y-111769617D01*
X161341130Y-111808816D01*
X161341771Y-111812547D01*
X161341772Y-111812555D01*
X161393020Y-112110796D01*
X161397375Y-112136142D01*
X161398463Y-112139781D01*
X161398464Y-112139784D01*
X161474315Y-112393410D01*
X161492537Y-112454341D01*
X161494050Y-112457812D01*
X161494052Y-112457818D01*
X161585425Y-112667462D01*
X161625236Y-112758803D01*
X161627159Y-112762074D01*
X161627161Y-112762078D01*
X161791629Y-113041847D01*
X161791634Y-113041855D01*
X161793552Y-113045117D01*
X161995046Y-113309137D01*
X161997694Y-113311856D01*
X161997699Y-113311861D01*
X162224152Y-113544322D01*
X162226798Y-113547038D01*
X162229742Y-113549409D01*
X162229745Y-113549412D01*
X162300810Y-113606652D01*
X162485453Y-113755374D01*
X162767264Y-113931127D01*
X163068147Y-114071751D01*
X163383746Y-114175209D01*
X163709488Y-114240003D01*
X163713261Y-114240290D01*
X163713268Y-114240291D01*
X164036878Y-114264908D01*
X164036883Y-114264908D01*
X164040655Y-114265195D01*
X164372450Y-114250418D01*
X164700067Y-114195888D01*
X164703701Y-114194822D01*
X164703705Y-114194821D01*
X164845975Y-114153083D01*
X165018759Y-114102393D01*
X165323912Y-113971290D01*
X165611103Y-113804475D01*
X165876175Y-113604367D01*
X166115286Y-113373863D01*
X166120090Y-113367963D01*
X166322582Y-113119239D01*
X166322583Y-113119238D01*
X166324973Y-113116302D01*
X166326995Y-113113098D01*
X166500176Y-112838623D01*
X166500179Y-112838617D01*
X166502199Y-112835416D01*
X166573467Y-112684987D01*
X179868484Y-112684987D01*
X179877374Y-113024505D01*
X179877980Y-113031721D01*
X179925835Y-113367963D01*
X179927269Y-113375074D01*
X180013455Y-113703595D01*
X180015692Y-113710478D01*
X180139064Y-114026914D01*
X180142081Y-114033503D01*
X180301002Y-114333652D01*
X180304761Y-114339860D01*
X180497129Y-114619757D01*
X180501574Y-114625486D01*
X180568743Y-114702484D01*
X180581917Y-114710888D01*
X180591769Y-114705020D01*
X182507980Y-112788810D01*
X182514357Y-112777131D01*
X183244408Y-112777131D01*
X183244539Y-112778966D01*
X183248790Y-112785580D01*
X185166268Y-114703057D01*
X185179622Y-114710349D01*
X185189594Y-114703295D01*
X185296641Y-114575267D01*
X185300957Y-114569456D01*
X185487432Y-114285575D01*
X185491046Y-114279313D01*
X185643658Y-113975882D01*
X185646530Y-113969244D01*
X185763249Y-113650293D01*
X185765348Y-113643338D01*
X185805121Y-113477676D01*
X185840473Y-113416107D01*
X185903499Y-113383425D01*
X185974190Y-113390006D01*
X186030102Y-113433760D01*
X186049515Y-113475118D01*
X186109454Y-113703590D01*
X186111692Y-113710478D01*
X186235064Y-114026914D01*
X186238081Y-114033503D01*
X186397002Y-114333652D01*
X186400761Y-114339860D01*
X186593129Y-114619757D01*
X186597574Y-114625486D01*
X186664743Y-114702484D01*
X186677917Y-114710888D01*
X186687769Y-114705020D01*
X188603980Y-112788810D01*
X188610357Y-112777131D01*
X189340408Y-112777131D01*
X189340539Y-112778966D01*
X189344790Y-112785580D01*
X191262268Y-114703057D01*
X191275622Y-114710349D01*
X191285594Y-114703295D01*
X191392641Y-114575267D01*
X191396957Y-114569456D01*
X191583432Y-114285575D01*
X191587046Y-114279313D01*
X191739658Y-113975882D01*
X191742530Y-113969244D01*
X191859249Y-113650293D01*
X191861345Y-113643351D01*
X191940631Y-113313103D01*
X191941915Y-113305964D01*
X191982816Y-112967973D01*
X191983240Y-112962403D01*
X191989010Y-112778797D01*
X191988937Y-112773204D01*
X191969338Y-112433303D01*
X191968506Y-112426113D01*
X191910113Y-112091529D01*
X191908458Y-112084474D01*
X191811998Y-111758834D01*
X191809540Y-111752006D01*
X191676290Y-111439608D01*
X191673073Y-111433125D01*
X191504788Y-111138089D01*
X191500856Y-111132034D01*
X191299774Y-110858295D01*
X191295166Y-110852726D01*
X191289830Y-110846984D01*
X191276178Y-110838866D01*
X191275570Y-110838887D01*
X191267092Y-110844119D01*
X189348020Y-112763190D01*
X189340408Y-112777131D01*
X188610357Y-112777131D01*
X188611592Y-112774869D01*
X188611461Y-112773034D01*
X188607210Y-112766420D01*
X186688374Y-110847585D01*
X186675581Y-110840599D01*
X186664827Y-110848464D01*
X186504037Y-111053527D01*
X186499902Y-111059476D01*
X186322440Y-111349068D01*
X186319019Y-111355447D01*
X186176016Y-111663522D01*
X186173356Y-111670241D01*
X186066711Y-111992707D01*
X186064835Y-111999708D01*
X186052383Y-112059835D01*
X186018982Y-112122484D01*
X185957013Y-112157130D01*
X185886150Y-112152773D01*
X185828892Y-112110796D01*
X185808190Y-112070069D01*
X185715998Y-111758834D01*
X185713540Y-111752006D01*
X185580290Y-111439608D01*
X185577073Y-111433125D01*
X185408788Y-111138089D01*
X185404856Y-111132034D01*
X185203774Y-110858295D01*
X185199166Y-110852726D01*
X185193830Y-110846984D01*
X185180178Y-110838866D01*
X185179570Y-110838887D01*
X185171092Y-110844119D01*
X183252020Y-112763190D01*
X183244408Y-112777131D01*
X182514357Y-112777131D01*
X182515592Y-112774869D01*
X182515461Y-112773034D01*
X182511210Y-112766420D01*
X180592374Y-110847585D01*
X180579581Y-110840599D01*
X180568827Y-110848464D01*
X180408037Y-111053527D01*
X180403902Y-111059476D01*
X180226440Y-111349068D01*
X180223019Y-111355447D01*
X180080016Y-111663522D01*
X180077356Y-111670241D01*
X179970711Y-111992707D01*
X179968834Y-111999711D01*
X179899961Y-112332288D01*
X179898904Y-112339449D01*
X179868712Y-112677735D01*
X179868484Y-112684987D01*
X166573467Y-112684987D01*
X166644397Y-112535273D01*
X166749506Y-112220220D01*
X166816005Y-111894822D01*
X166842930Y-111563791D01*
X166843535Y-111506000D01*
X166842973Y-111496669D01*
X166823777Y-111178256D01*
X166823777Y-111178252D01*
X166823549Y-111174478D01*
X166822852Y-111170662D01*
X166764559Y-110851481D01*
X166764558Y-110851477D01*
X166763879Y-110847759D01*
X166755177Y-110819732D01*
X166692976Y-110619413D01*
X166665391Y-110530574D01*
X166654913Y-110507203D01*
X166571969Y-110322214D01*
X166529510Y-110227518D01*
X166358205Y-109942982D01*
X166355878Y-109939998D01*
X166355873Y-109939991D01*
X166156294Y-109684082D01*
X166156292Y-109684079D01*
X166153958Y-109681087D01*
X165919726Y-109445626D01*
X165898865Y-109429180D01*
X165661885Y-109242360D01*
X165658904Y-109240010D01*
X165375269Y-109067218D01*
X165212926Y-108993405D01*
X165187141Y-108981681D01*
X180943860Y-108981681D01*
X180943878Y-108981933D01*
X180949793Y-108990677D01*
X180981111Y-109019174D01*
X180986748Y-109023738D01*
X181262544Y-109221918D01*
X181268682Y-109225813D01*
X181565435Y-109390984D01*
X181571955Y-109394136D01*
X181885738Y-109524109D01*
X181892589Y-109526495D01*
X182177758Y-109607727D01*
X182237793Y-109645626D01*
X182267807Y-109709966D01*
X182258272Y-109780319D01*
X182212215Y-109834349D01*
X182170081Y-109852014D01*
X182073264Y-109873124D01*
X182066285Y-109875072D01*
X181744960Y-109985086D01*
X181738253Y-109987823D01*
X181431707Y-110134039D01*
X181425349Y-110137534D01*
X181137654Y-110318005D01*
X181131731Y-110322214D01*
X180953601Y-110464923D01*
X180945132Y-110477048D01*
X180951527Y-110488316D01*
X182086121Y-111622911D01*
X182867190Y-112403980D01*
X182881131Y-112411592D01*
X182882966Y-112411461D01*
X182889580Y-112407210D01*
X184807074Y-110489716D01*
X184814466Y-110476179D01*
X184807679Y-110466479D01*
X184704476Y-110378335D01*
X184698704Y-110373953D01*
X184416796Y-110184519D01*
X184410575Y-110180839D01*
X184108757Y-110025060D01*
X184102146Y-110022116D01*
X183784439Y-109902065D01*
X183777513Y-109899894D01*
X183589098Y-109852568D01*
X183527902Y-109816573D01*
X183495881Y-109753208D01*
X183503201Y-109682590D01*
X183547539Y-109627139D01*
X183591857Y-109608560D01*
X183591633Y-109607650D01*
X183602190Y-109605057D01*
X183926819Y-109505187D01*
X183933597Y-109502667D01*
X184244603Y-109366145D01*
X184251043Y-109362864D01*
X184544293Y-109191502D01*
X184550326Y-109187493D01*
X184808828Y-108993405D01*
X184817282Y-108982078D01*
X184817065Y-108981681D01*
X187039860Y-108981681D01*
X187039878Y-108981933D01*
X187045793Y-108990677D01*
X187077111Y-109019174D01*
X187082748Y-109023738D01*
X187358544Y-109221918D01*
X187364682Y-109225813D01*
X187661435Y-109390984D01*
X187667955Y-109394136D01*
X187981738Y-109524109D01*
X187988589Y-109526495D01*
X188273758Y-109607727D01*
X188333793Y-109645626D01*
X188363807Y-109709966D01*
X188354272Y-109780319D01*
X188308215Y-109834349D01*
X188266081Y-109852014D01*
X188169264Y-109873124D01*
X188162285Y-109875072D01*
X187840960Y-109985086D01*
X187834253Y-109987823D01*
X187527707Y-110134039D01*
X187521349Y-110137534D01*
X187233654Y-110318005D01*
X187227731Y-110322214D01*
X187049601Y-110464923D01*
X187041132Y-110477048D01*
X187047527Y-110488316D01*
X188963190Y-112403980D01*
X188977131Y-112411592D01*
X188978966Y-112411461D01*
X188985580Y-112407210D01*
X190903074Y-110489716D01*
X190910466Y-110476179D01*
X190903679Y-110466479D01*
X190800476Y-110378335D01*
X190794704Y-110373953D01*
X190512796Y-110184519D01*
X190506575Y-110180839D01*
X190204757Y-110025060D01*
X190198146Y-110022116D01*
X189880439Y-109902065D01*
X189873513Y-109899894D01*
X189685098Y-109852568D01*
X189623902Y-109816573D01*
X189591881Y-109753208D01*
X189599201Y-109682590D01*
X189643539Y-109627139D01*
X189687857Y-109608560D01*
X189687633Y-109607650D01*
X189698190Y-109605057D01*
X190022819Y-109505187D01*
X190029597Y-109502667D01*
X190340603Y-109366145D01*
X190347043Y-109362864D01*
X190640293Y-109191502D01*
X190646326Y-109187493D01*
X190904828Y-108993405D01*
X190913282Y-108982078D01*
X190906537Y-108969748D01*
X188988810Y-107052020D01*
X188974869Y-107044408D01*
X188973034Y-107044539D01*
X188966420Y-107048790D01*
X187047474Y-108967737D01*
X187039860Y-108981681D01*
X184817065Y-108981681D01*
X184810537Y-108969748D01*
X182892810Y-107052020D01*
X182878869Y-107044408D01*
X182877034Y-107044539D01*
X182870420Y-107048790D01*
X180951474Y-108967737D01*
X180943860Y-108981681D01*
X165187141Y-108981681D01*
X165076381Y-108931321D01*
X165076373Y-108931318D01*
X165072929Y-108929752D01*
X164756264Y-108829604D01*
X164526465Y-108786391D01*
X164433585Y-108768925D01*
X164433580Y-108768924D01*
X164429861Y-108768225D01*
X164098449Y-108746503D01*
X164094669Y-108746711D01*
X164094668Y-108746711D01*
X163999655Y-108751940D01*
X163766827Y-108764753D01*
X163763100Y-108765414D01*
X163763096Y-108765414D01*
X163504396Y-108811263D01*
X163439799Y-108822711D01*
X163436174Y-108823816D01*
X163436169Y-108823817D01*
X163308730Y-108862658D01*
X163122103Y-108919538D01*
X162818341Y-109053830D01*
X162687029Y-109131952D01*
X162561328Y-109206736D01*
X162532911Y-109223642D01*
X162529910Y-109225957D01*
X162529906Y-109225960D01*
X162514255Y-109238035D01*
X162269950Y-109426515D01*
X162267249Y-109429174D01*
X162267242Y-109429180D01*
X162066150Y-109627139D01*
X162033266Y-109659511D01*
X162030902Y-109662478D01*
X162030899Y-109662481D01*
X161861493Y-109875072D01*
X161826287Y-109919253D01*
X161652012Y-110201980D01*
X161512965Y-110503596D01*
X161411161Y-110819732D01*
X161410442Y-110823448D01*
X161410440Y-110823456D01*
X161349614Y-111137842D01*
X161348073Y-111145808D01*
X161347806Y-111149584D01*
X161347805Y-111149589D01*
X161327730Y-111433125D01*
X161324616Y-111477103D01*
X159729793Y-111477103D01*
X159711777Y-111178256D01*
X159711777Y-111178252D01*
X159711549Y-111174478D01*
X159710852Y-111170662D01*
X159652559Y-110851481D01*
X159652558Y-110851477D01*
X159651879Y-110847759D01*
X159643177Y-110819732D01*
X159580976Y-110619413D01*
X159553391Y-110530574D01*
X159542913Y-110507203D01*
X159459969Y-110322214D01*
X159417510Y-110227518D01*
X159246205Y-109942982D01*
X159243878Y-109939998D01*
X159243873Y-109939991D01*
X159044294Y-109684082D01*
X159044292Y-109684079D01*
X159041958Y-109681087D01*
X158807726Y-109445626D01*
X158786865Y-109429180D01*
X158549885Y-109242360D01*
X158546904Y-109240010D01*
X158263269Y-109067218D01*
X158100926Y-108993405D01*
X157964381Y-108931321D01*
X157964373Y-108931318D01*
X157960929Y-108929752D01*
X157644264Y-108829604D01*
X157414465Y-108786391D01*
X157321585Y-108768925D01*
X157321580Y-108768924D01*
X157317861Y-108768225D01*
X156986449Y-108746503D01*
X156982669Y-108746711D01*
X156982668Y-108746711D01*
X156887655Y-108751940D01*
X156654827Y-108764753D01*
X156651100Y-108765414D01*
X156651096Y-108765414D01*
X156392396Y-108811263D01*
X156327799Y-108822711D01*
X156324174Y-108823816D01*
X156324169Y-108823817D01*
X156196730Y-108862658D01*
X156010103Y-108919538D01*
X155706341Y-109053830D01*
X155575029Y-109131952D01*
X155449328Y-109206736D01*
X155420911Y-109223642D01*
X155417910Y-109225957D01*
X155417906Y-109225960D01*
X155402255Y-109238035D01*
X155157950Y-109426515D01*
X155155249Y-109429174D01*
X155155242Y-109429180D01*
X154954150Y-109627139D01*
X154921266Y-109659511D01*
X154918902Y-109662478D01*
X154918899Y-109662481D01*
X154749493Y-109875072D01*
X154714287Y-109919253D01*
X154540012Y-110201980D01*
X154400965Y-110503596D01*
X154299161Y-110819732D01*
X154298442Y-110823448D01*
X154298440Y-110823456D01*
X154237614Y-111137842D01*
X154236073Y-111145808D01*
X154235806Y-111149584D01*
X154235805Y-111149589D01*
X154215730Y-111433125D01*
X154212616Y-111477103D01*
X144630511Y-111477103D01*
X144631013Y-111473314D01*
X144640688Y-111400319D01*
X144640688Y-111400316D01*
X144641388Y-111395036D01*
X144632764Y-111165331D01*
X144585561Y-110940363D01*
X144501128Y-110726564D01*
X144381879Y-110530048D01*
X144358925Y-110503596D01*
X144234724Y-110360467D01*
X144234722Y-110360465D01*
X144231224Y-110356434D01*
X144132215Y-110275251D01*
X144057599Y-110214069D01*
X144057593Y-110214065D01*
X144053471Y-110210685D01*
X144048835Y-110208046D01*
X144048832Y-110208044D01*
X143858345Y-110099613D01*
X143858346Y-110099613D01*
X143853702Y-110096970D01*
X143717261Y-110047444D01*
X143642644Y-110020359D01*
X143642640Y-110020358D01*
X143637629Y-110018539D01*
X143632380Y-110017590D01*
X143632377Y-110017589D01*
X143552529Y-110003151D01*
X143411431Y-109977636D01*
X143407292Y-109977441D01*
X143407285Y-109977440D01*
X143388830Y-109976570D01*
X143388823Y-109976570D01*
X143387342Y-109976500D01*
X142025788Y-109976500D01*
X141946056Y-109983265D01*
X141859767Y-109990587D01*
X141859763Y-109990588D01*
X141854456Y-109991038D01*
X141849301Y-109992376D01*
X141849295Y-109992377D01*
X141719544Y-110026054D01*
X141631961Y-110048786D01*
X141524997Y-110096970D01*
X141427238Y-110141007D01*
X141427235Y-110141008D01*
X141422377Y-110143197D01*
X141231697Y-110271570D01*
X141227840Y-110275249D01*
X141227838Y-110275251D01*
X141178608Y-110322214D01*
X141065372Y-110430236D01*
X140928158Y-110614658D01*
X140925742Y-110619409D01*
X140925740Y-110619413D01*
X140844166Y-110779858D01*
X140823980Y-110819562D01*
X140813683Y-110852726D01*
X140804138Y-110883465D01*
X140764835Y-110942590D01*
X140699806Y-110971081D01*
X140629697Y-110959892D01*
X140576766Y-110912574D01*
X140566613Y-110892383D01*
X140503089Y-110731530D01*
X140501128Y-110726564D01*
X140381879Y-110530048D01*
X140358925Y-110503596D01*
X140234724Y-110360467D01*
X140234722Y-110360465D01*
X140231224Y-110356434D01*
X140132215Y-110275251D01*
X140057599Y-110214069D01*
X140057593Y-110214065D01*
X140053471Y-110210685D01*
X140048835Y-110208046D01*
X140048832Y-110208044D01*
X139858345Y-110099613D01*
X139858346Y-110099613D01*
X139853702Y-110096970D01*
X139717261Y-110047444D01*
X139642644Y-110020359D01*
X139642640Y-110020358D01*
X139637629Y-110018539D01*
X139632380Y-110017590D01*
X139632377Y-110017589D01*
X139552529Y-110003151D01*
X139411431Y-109977636D01*
X139407292Y-109977441D01*
X139407285Y-109977440D01*
X139388830Y-109976570D01*
X139388823Y-109976570D01*
X139387342Y-109976500D01*
X138025788Y-109976500D01*
X137946056Y-109983265D01*
X137859767Y-109990587D01*
X137859763Y-109990588D01*
X137854456Y-109991038D01*
X137849301Y-109992376D01*
X137849295Y-109992377D01*
X137719544Y-110026054D01*
X137631961Y-110048786D01*
X137524997Y-110096970D01*
X137427238Y-110141007D01*
X137427235Y-110141008D01*
X137422377Y-110143197D01*
X137231697Y-110271570D01*
X137227840Y-110275249D01*
X137227838Y-110275251D01*
X137178608Y-110322214D01*
X137065372Y-110430236D01*
X136928158Y-110614658D01*
X136925742Y-110619409D01*
X136925740Y-110619413D01*
X136844166Y-110779858D01*
X136823980Y-110819562D01*
X136813683Y-110852726D01*
X136804138Y-110883465D01*
X136764835Y-110942590D01*
X136699806Y-110971081D01*
X136629697Y-110959892D01*
X136576766Y-110912574D01*
X136566613Y-110892383D01*
X136503089Y-110731530D01*
X136501128Y-110726564D01*
X136381879Y-110530048D01*
X136358925Y-110503596D01*
X136234724Y-110360467D01*
X136234722Y-110360465D01*
X136231224Y-110356434D01*
X136132215Y-110275251D01*
X136057599Y-110214069D01*
X136057593Y-110214065D01*
X136053471Y-110210685D01*
X136048835Y-110208046D01*
X136048832Y-110208044D01*
X135858345Y-110099613D01*
X135858346Y-110099613D01*
X135853702Y-110096970D01*
X135717261Y-110047444D01*
X135642644Y-110020359D01*
X135642640Y-110020358D01*
X135637629Y-110018539D01*
X135632380Y-110017590D01*
X135632377Y-110017589D01*
X135552529Y-110003151D01*
X135411431Y-109977636D01*
X135407292Y-109977441D01*
X135407285Y-109977440D01*
X135388830Y-109976570D01*
X135388823Y-109976570D01*
X135387342Y-109976500D01*
X134025788Y-109976500D01*
X133946056Y-109983265D01*
X133859767Y-109990587D01*
X133859763Y-109990588D01*
X133854456Y-109991038D01*
X133849301Y-109992376D01*
X133849295Y-109992377D01*
X133719544Y-110026054D01*
X133631961Y-110048786D01*
X133524997Y-110096970D01*
X133427238Y-110141007D01*
X133427235Y-110141008D01*
X133422377Y-110143197D01*
X133231697Y-110271570D01*
X133227840Y-110275249D01*
X133227838Y-110275251D01*
X133178608Y-110322214D01*
X133065372Y-110430236D01*
X132928158Y-110614658D01*
X132925742Y-110619409D01*
X132925740Y-110619413D01*
X132844166Y-110779858D01*
X132823980Y-110819562D01*
X132755815Y-111039089D01*
X132755114Y-111044378D01*
X132730331Y-111231363D01*
X132725612Y-111266964D01*
X121920000Y-111266964D01*
X121920000Y-109780677D01*
X127015524Y-109780677D01*
X127043351Y-110021176D01*
X127044730Y-110026050D01*
X127044731Y-110026054D01*
X127096229Y-110208044D01*
X127109271Y-110254133D01*
X127111406Y-110258712D01*
X127111407Y-110258714D01*
X127139055Y-110318005D01*
X127211589Y-110473553D01*
X127214430Y-110477734D01*
X127214431Y-110477735D01*
X127249172Y-110528854D01*
X127248556Y-110529272D01*
X127249720Y-110530420D01*
X127249905Y-110530281D01*
X127249935Y-110530321D01*
X127250597Y-110531203D01*
X127250797Y-110531482D01*
X127250834Y-110531519D01*
X127252393Y-110533595D01*
X127253809Y-110535679D01*
X127253898Y-110535820D01*
X127254035Y-110536011D01*
X127347671Y-110673793D01*
X127351148Y-110677470D01*
X127351153Y-110677476D01*
X127396137Y-110725044D01*
X127395584Y-110725567D01*
X127397601Y-110726994D01*
X127398083Y-110727636D01*
X127401809Y-110731197D01*
X127402140Y-110731570D01*
X127405516Y-110734963D01*
X127447972Y-110779858D01*
X127514018Y-110849699D01*
X127518035Y-110852770D01*
X127518038Y-110852773D01*
X127572578Y-110894472D01*
X127573084Y-110894870D01*
X127576468Y-110898104D01*
X127580740Y-110901018D01*
X127581645Y-110901636D01*
X127587166Y-110905626D01*
X127702327Y-110993674D01*
X127702338Y-110993681D01*
X127706348Y-110996747D01*
X127770786Y-111031298D01*
X127773421Y-111032754D01*
X127776029Y-111034236D01*
X127780300Y-111037149D01*
X127784986Y-111039324D01*
X127784989Y-111039326D01*
X127787427Y-111040458D01*
X127793912Y-111043699D01*
X127919715Y-111111153D01*
X127980359Y-111132034D01*
X127991084Y-111135727D01*
X127994543Y-111137121D01*
X127994561Y-111137071D01*
X127999403Y-111138853D01*
X128004104Y-111141035D01*
X128012723Y-111143425D01*
X128020036Y-111145697D01*
X128148629Y-111189975D01*
X128153618Y-111190837D01*
X128153619Y-111190837D01*
X128227145Y-111203537D01*
X128232988Y-111204848D01*
X128236888Y-111205592D01*
X128241871Y-111206974D01*
X128251403Y-111207993D01*
X128259428Y-111209113D01*
X128387200Y-111231183D01*
X128391161Y-111231363D01*
X128391162Y-111231363D01*
X128414784Y-111232436D01*
X128414803Y-111232436D01*
X128416203Y-111232500D01*
X128584841Y-111232500D01*
X128587349Y-111232298D01*
X128587354Y-111232298D01*
X128760283Y-111218385D01*
X128760288Y-111218384D01*
X128765324Y-111217979D01*
X128770232Y-111216774D01*
X128770235Y-111216773D01*
X128995525Y-111161436D01*
X129000439Y-111160229D01*
X129005091Y-111158254D01*
X129005095Y-111158253D01*
X129218642Y-111067607D01*
X129218643Y-111067607D01*
X129223297Y-111065631D01*
X129428163Y-110936620D01*
X129609768Y-110776514D01*
X129763439Y-110589432D01*
X129835905Y-110464923D01*
X129882680Y-110384556D01*
X129882681Y-110384554D01*
X129885222Y-110380188D01*
X129909092Y-110318005D01*
X129970169Y-110158894D01*
X129970170Y-110158891D01*
X129971984Y-110154165D01*
X130021493Y-109917177D01*
X130022180Y-109902065D01*
X130026728Y-109801888D01*
X130027691Y-109780677D01*
X147335524Y-109780677D01*
X147363351Y-110021176D01*
X147364730Y-110026050D01*
X147364731Y-110026054D01*
X147416229Y-110208044D01*
X147429271Y-110254133D01*
X147431406Y-110258712D01*
X147431407Y-110258714D01*
X147459055Y-110318005D01*
X147531589Y-110473553D01*
X147534430Y-110477734D01*
X147534431Y-110477735D01*
X147569172Y-110528854D01*
X147568556Y-110529272D01*
X147569720Y-110530420D01*
X147569905Y-110530281D01*
X147569935Y-110530321D01*
X147570597Y-110531203D01*
X147570797Y-110531482D01*
X147570834Y-110531519D01*
X147572393Y-110533595D01*
X147573809Y-110535679D01*
X147573898Y-110535820D01*
X147574035Y-110536011D01*
X147667671Y-110673793D01*
X147671148Y-110677470D01*
X147671153Y-110677476D01*
X147716137Y-110725044D01*
X147715584Y-110725567D01*
X147717601Y-110726994D01*
X147718083Y-110727636D01*
X147721809Y-110731197D01*
X147722140Y-110731570D01*
X147725516Y-110734963D01*
X147767972Y-110779858D01*
X147834018Y-110849699D01*
X147838035Y-110852770D01*
X147838038Y-110852773D01*
X147892578Y-110894472D01*
X147893084Y-110894870D01*
X147896468Y-110898104D01*
X147900740Y-110901018D01*
X147901645Y-110901636D01*
X147907166Y-110905626D01*
X148022327Y-110993674D01*
X148022338Y-110993681D01*
X148026348Y-110996747D01*
X148090786Y-111031298D01*
X148093421Y-111032754D01*
X148096029Y-111034236D01*
X148100300Y-111037149D01*
X148104986Y-111039324D01*
X148104989Y-111039326D01*
X148107427Y-111040458D01*
X148113912Y-111043699D01*
X148239715Y-111111153D01*
X148300359Y-111132034D01*
X148311084Y-111135727D01*
X148314543Y-111137121D01*
X148314561Y-111137071D01*
X148319403Y-111138853D01*
X148324104Y-111141035D01*
X148332723Y-111143425D01*
X148340036Y-111145697D01*
X148468629Y-111189975D01*
X148473618Y-111190837D01*
X148473619Y-111190837D01*
X148547145Y-111203537D01*
X148552988Y-111204848D01*
X148556888Y-111205592D01*
X148561871Y-111206974D01*
X148571403Y-111207993D01*
X148579428Y-111209113D01*
X148707200Y-111231183D01*
X148711161Y-111231363D01*
X148711162Y-111231363D01*
X148734784Y-111232436D01*
X148734803Y-111232436D01*
X148736203Y-111232500D01*
X148904841Y-111232500D01*
X148907349Y-111232298D01*
X148907354Y-111232298D01*
X149080283Y-111218385D01*
X149080288Y-111218384D01*
X149085324Y-111217979D01*
X149090232Y-111216774D01*
X149090235Y-111216773D01*
X149315525Y-111161436D01*
X149320439Y-111160229D01*
X149325091Y-111158254D01*
X149325095Y-111158253D01*
X149538642Y-111067607D01*
X149538643Y-111067607D01*
X149543297Y-111065631D01*
X149748163Y-110936620D01*
X149929768Y-110776514D01*
X150083439Y-110589432D01*
X150155905Y-110464923D01*
X150202680Y-110384556D01*
X150202681Y-110384554D01*
X150205222Y-110380188D01*
X150229092Y-110318005D01*
X150290169Y-110158894D01*
X150290170Y-110158891D01*
X150291984Y-110154165D01*
X150341493Y-109917177D01*
X150342180Y-109902065D01*
X150346728Y-109801888D01*
X150352476Y-109675323D01*
X150351817Y-109669623D01*
X150332499Y-109502667D01*
X150324649Y-109434824D01*
X150313136Y-109394136D01*
X150260107Y-109206736D01*
X150260106Y-109206734D01*
X150258729Y-109201867D01*
X150156411Y-108982447D01*
X150118828Y-108927146D01*
X150119444Y-108926728D01*
X150118280Y-108925580D01*
X150118095Y-108925719D01*
X150117991Y-108925580D01*
X150117403Y-108924797D01*
X150117203Y-108924518D01*
X150117166Y-108924481D01*
X150115607Y-108922405D01*
X150114191Y-108920321D01*
X150114102Y-108920180D01*
X150113965Y-108919989D01*
X150020329Y-108782207D01*
X150016852Y-108778530D01*
X150016847Y-108778524D01*
X149971863Y-108730956D01*
X149972416Y-108730433D01*
X149970399Y-108729006D01*
X149969917Y-108728364D01*
X149966191Y-108724803D01*
X149965860Y-108724430D01*
X149962484Y-108721037D01*
X149915436Y-108671286D01*
X149853982Y-108606301D01*
X149849965Y-108603230D01*
X149849962Y-108603227D01*
X149795422Y-108561528D01*
X149794916Y-108561130D01*
X149791532Y-108557896D01*
X149787260Y-108554982D01*
X149786355Y-108554364D01*
X149780834Y-108550374D01*
X149665673Y-108462326D01*
X149665662Y-108462319D01*
X149661652Y-108459253D01*
X149597214Y-108424702D01*
X149594579Y-108423246D01*
X149591971Y-108421764D01*
X149587700Y-108418851D01*
X149583014Y-108416676D01*
X149583011Y-108416674D01*
X149580573Y-108415542D01*
X149574081Y-108412298D01*
X149551741Y-108400319D01*
X149448285Y-108344847D01*
X149376913Y-108320272D01*
X149373457Y-108318879D01*
X149373439Y-108318929D01*
X149368597Y-108317147D01*
X149363896Y-108314965D01*
X149355277Y-108312575D01*
X149347964Y-108310303D01*
X149219371Y-108266025D01*
X149214382Y-108265163D01*
X149214381Y-108265163D01*
X149140855Y-108252463D01*
X149135012Y-108251152D01*
X149131112Y-108250408D01*
X149126129Y-108249026D01*
X149116597Y-108248007D01*
X149108572Y-108246887D01*
X148980800Y-108224817D01*
X148976839Y-108224637D01*
X148976838Y-108224637D01*
X148953216Y-108223564D01*
X148953197Y-108223564D01*
X148951797Y-108223500D01*
X148783159Y-108223500D01*
X148780651Y-108223702D01*
X148780646Y-108223702D01*
X148607717Y-108237615D01*
X148607712Y-108237616D01*
X148602676Y-108238021D01*
X148597768Y-108239226D01*
X148597765Y-108239227D01*
X148372475Y-108294564D01*
X148367561Y-108295771D01*
X148362909Y-108297746D01*
X148362905Y-108297747D01*
X148246308Y-108347240D01*
X148144703Y-108390369D01*
X147939837Y-108519380D01*
X147758232Y-108679486D01*
X147604561Y-108866568D01*
X147482778Y-109075812D01*
X147480965Y-109080535D01*
X147422914Y-109231764D01*
X147396016Y-109301835D01*
X147346507Y-109538823D01*
X147335524Y-109780677D01*
X130027691Y-109780677D01*
X130032476Y-109675323D01*
X130031817Y-109669623D01*
X130012499Y-109502667D01*
X130004649Y-109434824D01*
X129993136Y-109394136D01*
X129940107Y-109206736D01*
X129940106Y-109206734D01*
X129938729Y-109201867D01*
X129836411Y-108982447D01*
X129798828Y-108927146D01*
X129799444Y-108926728D01*
X129798280Y-108925580D01*
X129798095Y-108925719D01*
X129797991Y-108925580D01*
X129797403Y-108924797D01*
X129797203Y-108924518D01*
X129797166Y-108924481D01*
X129795607Y-108922405D01*
X129794191Y-108920321D01*
X129794102Y-108920180D01*
X129793965Y-108919989D01*
X129700329Y-108782207D01*
X129696852Y-108778530D01*
X129696847Y-108778524D01*
X129651863Y-108730956D01*
X129652416Y-108730433D01*
X129650399Y-108729006D01*
X129649917Y-108728364D01*
X129646191Y-108724803D01*
X129645860Y-108724430D01*
X129642484Y-108721037D01*
X129595436Y-108671286D01*
X129533982Y-108606301D01*
X129529965Y-108603230D01*
X129529962Y-108603227D01*
X129475422Y-108561528D01*
X129474916Y-108561130D01*
X129471532Y-108557896D01*
X129467260Y-108554982D01*
X129466355Y-108554364D01*
X129460834Y-108550374D01*
X129345673Y-108462326D01*
X129345662Y-108462319D01*
X129341652Y-108459253D01*
X129277214Y-108424702D01*
X129274579Y-108423246D01*
X129271971Y-108421764D01*
X129267700Y-108418851D01*
X129263014Y-108416676D01*
X129263011Y-108416674D01*
X129260573Y-108415542D01*
X129254081Y-108412298D01*
X129231741Y-108400319D01*
X129128285Y-108344847D01*
X129056913Y-108320272D01*
X129053457Y-108318879D01*
X129053439Y-108318929D01*
X129048597Y-108317147D01*
X129043896Y-108314965D01*
X129035277Y-108312575D01*
X129027964Y-108310303D01*
X128902098Y-108266964D01*
X132725612Y-108266964D01*
X132725812Y-108272293D01*
X132725812Y-108272294D01*
X132726768Y-108297747D01*
X132734236Y-108496669D01*
X132781439Y-108721637D01*
X132821094Y-108822050D01*
X132863176Y-108928608D01*
X132865872Y-108935436D01*
X132985121Y-109131952D01*
X132988616Y-109135980D01*
X132988617Y-109135981D01*
X133128435Y-109297106D01*
X133135776Y-109305566D01*
X133139907Y-109308953D01*
X133309401Y-109447931D01*
X133309407Y-109447935D01*
X133313529Y-109451315D01*
X133318165Y-109453954D01*
X133318168Y-109453956D01*
X133458556Y-109533869D01*
X133513298Y-109565030D01*
X133623570Y-109605057D01*
X133724356Y-109641641D01*
X133724360Y-109641642D01*
X133729371Y-109643461D01*
X133734620Y-109644410D01*
X133734623Y-109644411D01*
X133803386Y-109656845D01*
X133955569Y-109684364D01*
X133959708Y-109684559D01*
X133959715Y-109684560D01*
X133978170Y-109685430D01*
X133978177Y-109685430D01*
X133979658Y-109685500D01*
X135341212Y-109685500D01*
X135424981Y-109678392D01*
X135507233Y-109671413D01*
X135507237Y-109671412D01*
X135512544Y-109670962D01*
X135517699Y-109669624D01*
X135517705Y-109669623D01*
X135729868Y-109614556D01*
X135729867Y-109614556D01*
X135735039Y-109613214D01*
X135888959Y-109543878D01*
X135939762Y-109520993D01*
X135939765Y-109520992D01*
X135944623Y-109518803D01*
X136135303Y-109390430D01*
X136301628Y-109231764D01*
X136438842Y-109047342D01*
X136453164Y-109019174D01*
X136540602Y-108847194D01*
X136540602Y-108847193D01*
X136543020Y-108842438D01*
X136562863Y-108778534D01*
X136602165Y-108719410D01*
X136667194Y-108690919D01*
X136737303Y-108702108D01*
X136790234Y-108749426D01*
X136800387Y-108769617D01*
X136865872Y-108935436D01*
X136985121Y-109131952D01*
X136988616Y-109135980D01*
X136988617Y-109135981D01*
X137128435Y-109297106D01*
X137135776Y-109305566D01*
X137139907Y-109308953D01*
X137309401Y-109447931D01*
X137309407Y-109447935D01*
X137313529Y-109451315D01*
X137318165Y-109453954D01*
X137318168Y-109453956D01*
X137458556Y-109533869D01*
X137513298Y-109565030D01*
X137623570Y-109605057D01*
X137724356Y-109641641D01*
X137724360Y-109641642D01*
X137729371Y-109643461D01*
X137734620Y-109644410D01*
X137734623Y-109644411D01*
X137803386Y-109656845D01*
X137955569Y-109684364D01*
X137959708Y-109684559D01*
X137959715Y-109684560D01*
X137978170Y-109685430D01*
X137978177Y-109685430D01*
X137979658Y-109685500D01*
X139341212Y-109685500D01*
X139424981Y-109678392D01*
X139507233Y-109671413D01*
X139507237Y-109671412D01*
X139512544Y-109670962D01*
X139517699Y-109669624D01*
X139517705Y-109669623D01*
X139729868Y-109614556D01*
X139729867Y-109614556D01*
X139735039Y-109613214D01*
X139888959Y-109543878D01*
X139939762Y-109520993D01*
X139939765Y-109520992D01*
X139944623Y-109518803D01*
X140135303Y-109390430D01*
X140301628Y-109231764D01*
X140438842Y-109047342D01*
X140453164Y-109019174D01*
X140540602Y-108847194D01*
X140540602Y-108847193D01*
X140543020Y-108842438D01*
X140562863Y-108778534D01*
X140602165Y-108719410D01*
X140667194Y-108690919D01*
X140737303Y-108702108D01*
X140790234Y-108749426D01*
X140800387Y-108769617D01*
X140865872Y-108935436D01*
X140985121Y-109131952D01*
X140988616Y-109135980D01*
X140988617Y-109135981D01*
X141128435Y-109297106D01*
X141135776Y-109305566D01*
X141139907Y-109308953D01*
X141309401Y-109447931D01*
X141309407Y-109447935D01*
X141313529Y-109451315D01*
X141318165Y-109453954D01*
X141318168Y-109453956D01*
X141458556Y-109533869D01*
X141513298Y-109565030D01*
X141623570Y-109605057D01*
X141724356Y-109641641D01*
X141724360Y-109641642D01*
X141729371Y-109643461D01*
X141734620Y-109644410D01*
X141734623Y-109644411D01*
X141803386Y-109656845D01*
X141955569Y-109684364D01*
X141959708Y-109684559D01*
X141959715Y-109684560D01*
X141978170Y-109685430D01*
X141978177Y-109685430D01*
X141979658Y-109685500D01*
X143341212Y-109685500D01*
X143424981Y-109678392D01*
X143507233Y-109671413D01*
X143507237Y-109671412D01*
X143512544Y-109670962D01*
X143517699Y-109669624D01*
X143517705Y-109669623D01*
X143729868Y-109614556D01*
X143729867Y-109614556D01*
X143735039Y-109613214D01*
X143888959Y-109543878D01*
X143939762Y-109520993D01*
X143939765Y-109520992D01*
X143944623Y-109518803D01*
X144135303Y-109390430D01*
X144301628Y-109231764D01*
X144438842Y-109047342D01*
X144453164Y-109019174D01*
X144540602Y-108847194D01*
X144540602Y-108847193D01*
X144543020Y-108842438D01*
X144611185Y-108622911D01*
X144637649Y-108423246D01*
X144640688Y-108400319D01*
X144640688Y-108400316D01*
X144641388Y-108395036D01*
X144632764Y-108165331D01*
X144585561Y-107940363D01*
X144501128Y-107726564D01*
X144433222Y-107614658D01*
X144384647Y-107534609D01*
X144384645Y-107534606D01*
X144381879Y-107530048D01*
X144298979Y-107434514D01*
X144234724Y-107360467D01*
X144234722Y-107360465D01*
X144231224Y-107356434D01*
X144128205Y-107271963D01*
X144057599Y-107214069D01*
X144057593Y-107214065D01*
X144053471Y-107210685D01*
X144048835Y-107208046D01*
X144048832Y-107208044D01*
X143858345Y-107099613D01*
X143858346Y-107099613D01*
X143853702Y-107096970D01*
X143708897Y-107044408D01*
X143642644Y-107020359D01*
X143642640Y-107020358D01*
X143637629Y-107018539D01*
X143632380Y-107017590D01*
X143632377Y-107017589D01*
X143552529Y-107003151D01*
X143411431Y-106977636D01*
X143407292Y-106977441D01*
X143407285Y-106977440D01*
X143388830Y-106976570D01*
X143388823Y-106976570D01*
X143387342Y-106976500D01*
X142025788Y-106976500D01*
X141946056Y-106983265D01*
X141859767Y-106990587D01*
X141859763Y-106990588D01*
X141854456Y-106991038D01*
X141849301Y-106992376D01*
X141849295Y-106992377D01*
X141748498Y-107018539D01*
X141631961Y-107048786D01*
X141524997Y-107096970D01*
X141427238Y-107141007D01*
X141427235Y-107141008D01*
X141422377Y-107143197D01*
X141231697Y-107271570D01*
X141227840Y-107275249D01*
X141227838Y-107275251D01*
X141208178Y-107294006D01*
X141065372Y-107430236D01*
X140928158Y-107614658D01*
X140925742Y-107619409D01*
X140925740Y-107619413D01*
X140826398Y-107814806D01*
X140823980Y-107819562D01*
X140805251Y-107879882D01*
X140804138Y-107883465D01*
X140764835Y-107942590D01*
X140699806Y-107971081D01*
X140629697Y-107959892D01*
X140576766Y-107912574D01*
X140566613Y-107892383D01*
X140503089Y-107731530D01*
X140501128Y-107726564D01*
X140433222Y-107614658D01*
X140384647Y-107534609D01*
X140384645Y-107534606D01*
X140381879Y-107530048D01*
X140298979Y-107434514D01*
X140234724Y-107360467D01*
X140234722Y-107360465D01*
X140231224Y-107356434D01*
X140128205Y-107271963D01*
X140057599Y-107214069D01*
X140057593Y-107214065D01*
X140053471Y-107210685D01*
X140048835Y-107208046D01*
X140048832Y-107208044D01*
X139858345Y-107099613D01*
X139858346Y-107099613D01*
X139853702Y-107096970D01*
X139708897Y-107044408D01*
X139642644Y-107020359D01*
X139642640Y-107020358D01*
X139637629Y-107018539D01*
X139632380Y-107017590D01*
X139632377Y-107017589D01*
X139552529Y-107003151D01*
X139411431Y-106977636D01*
X139407292Y-106977441D01*
X139407285Y-106977440D01*
X139388830Y-106976570D01*
X139388823Y-106976570D01*
X139387342Y-106976500D01*
X138025788Y-106976500D01*
X137946056Y-106983265D01*
X137859767Y-106990587D01*
X137859763Y-106990588D01*
X137854456Y-106991038D01*
X137849301Y-106992376D01*
X137849295Y-106992377D01*
X137748498Y-107018539D01*
X137631961Y-107048786D01*
X137524997Y-107096970D01*
X137427238Y-107141007D01*
X137427235Y-107141008D01*
X137422377Y-107143197D01*
X137231697Y-107271570D01*
X137227840Y-107275249D01*
X137227838Y-107275251D01*
X137208178Y-107294006D01*
X137065372Y-107430236D01*
X136928158Y-107614658D01*
X136925742Y-107619409D01*
X136925740Y-107619413D01*
X136826398Y-107814806D01*
X136823980Y-107819562D01*
X136805251Y-107879882D01*
X136804138Y-107883465D01*
X136764835Y-107942590D01*
X136699806Y-107971081D01*
X136629697Y-107959892D01*
X136576766Y-107912574D01*
X136566613Y-107892383D01*
X136503089Y-107731530D01*
X136501128Y-107726564D01*
X136433222Y-107614658D01*
X136384647Y-107534609D01*
X136384645Y-107534606D01*
X136381879Y-107530048D01*
X136298979Y-107434514D01*
X136234724Y-107360467D01*
X136234722Y-107360465D01*
X136231224Y-107356434D01*
X136128205Y-107271963D01*
X136057599Y-107214069D01*
X136057593Y-107214065D01*
X136053471Y-107210685D01*
X136048835Y-107208046D01*
X136048832Y-107208044D01*
X135858345Y-107099613D01*
X135858346Y-107099613D01*
X135853702Y-107096970D01*
X135708897Y-107044408D01*
X135642644Y-107020359D01*
X135642640Y-107020358D01*
X135637629Y-107018539D01*
X135632380Y-107017590D01*
X135632377Y-107017589D01*
X135552529Y-107003151D01*
X135411431Y-106977636D01*
X135407292Y-106977441D01*
X135407285Y-106977440D01*
X135388830Y-106976570D01*
X135388823Y-106976570D01*
X135387342Y-106976500D01*
X134025788Y-106976500D01*
X133946056Y-106983265D01*
X133859767Y-106990587D01*
X133859763Y-106990588D01*
X133854456Y-106991038D01*
X133849301Y-106992376D01*
X133849295Y-106992377D01*
X133748498Y-107018539D01*
X133631961Y-107048786D01*
X133524997Y-107096970D01*
X133427238Y-107141007D01*
X133427235Y-107141008D01*
X133422377Y-107143197D01*
X133231697Y-107271570D01*
X133227840Y-107275249D01*
X133227838Y-107275251D01*
X133208178Y-107294006D01*
X133065372Y-107430236D01*
X132928158Y-107614658D01*
X132925742Y-107619409D01*
X132925740Y-107619413D01*
X132826398Y-107814806D01*
X132823980Y-107819562D01*
X132755815Y-108039089D01*
X132755114Y-108044378D01*
X132727676Y-108251395D01*
X132725612Y-108266964D01*
X128902098Y-108266964D01*
X128899371Y-108266025D01*
X128894382Y-108265163D01*
X128894381Y-108265163D01*
X128820855Y-108252463D01*
X128815012Y-108251152D01*
X128811112Y-108250408D01*
X128806129Y-108249026D01*
X128796597Y-108248007D01*
X128788572Y-108246887D01*
X128660800Y-108224817D01*
X128656839Y-108224637D01*
X128656838Y-108224637D01*
X128633216Y-108223564D01*
X128633197Y-108223564D01*
X128631797Y-108223500D01*
X128463159Y-108223500D01*
X128460651Y-108223702D01*
X128460646Y-108223702D01*
X128287717Y-108237615D01*
X128287712Y-108237616D01*
X128282676Y-108238021D01*
X128277768Y-108239226D01*
X128277765Y-108239227D01*
X128052475Y-108294564D01*
X128047561Y-108295771D01*
X128042909Y-108297746D01*
X128042905Y-108297747D01*
X127926308Y-108347240D01*
X127824703Y-108390369D01*
X127619837Y-108519380D01*
X127438232Y-108679486D01*
X127284561Y-108866568D01*
X127162778Y-109075812D01*
X127160965Y-109080535D01*
X127102914Y-109231764D01*
X127076016Y-109301835D01*
X127026507Y-109538823D01*
X127015524Y-109780677D01*
X121920000Y-109780677D01*
X121920000Y-106588987D01*
X179868484Y-106588987D01*
X179877374Y-106928505D01*
X179877980Y-106935721D01*
X179925835Y-107271963D01*
X179927269Y-107279074D01*
X180013455Y-107607595D01*
X180015692Y-107614478D01*
X180139064Y-107930914D01*
X180142081Y-107937503D01*
X180301002Y-108237652D01*
X180304761Y-108243860D01*
X180497129Y-108523757D01*
X180501574Y-108529486D01*
X180568743Y-108606484D01*
X180581917Y-108614888D01*
X180591769Y-108609020D01*
X182507980Y-106692810D01*
X182514357Y-106681131D01*
X183244408Y-106681131D01*
X183244539Y-106682966D01*
X183248790Y-106689580D01*
X185166268Y-108607057D01*
X185179622Y-108614349D01*
X185189594Y-108607295D01*
X185296641Y-108479267D01*
X185300957Y-108473456D01*
X185487432Y-108189575D01*
X185491046Y-108183313D01*
X185643658Y-107879882D01*
X185646530Y-107873244D01*
X185763249Y-107554293D01*
X185765348Y-107547338D01*
X185805121Y-107381676D01*
X185840473Y-107320107D01*
X185903499Y-107287425D01*
X185974190Y-107294006D01*
X186030102Y-107337760D01*
X186049515Y-107379118D01*
X186109454Y-107607590D01*
X186111692Y-107614478D01*
X186235064Y-107930914D01*
X186238081Y-107937503D01*
X186397002Y-108237652D01*
X186400761Y-108243860D01*
X186593129Y-108523757D01*
X186597574Y-108529486D01*
X186664743Y-108606484D01*
X186677917Y-108614888D01*
X186687769Y-108609020D01*
X188603980Y-106692810D01*
X188610357Y-106681131D01*
X189340408Y-106681131D01*
X189340539Y-106682966D01*
X189344790Y-106689580D01*
X191262268Y-108607057D01*
X191275622Y-108614349D01*
X191285594Y-108607295D01*
X191392641Y-108479267D01*
X191396957Y-108473456D01*
X191583432Y-108189575D01*
X191587046Y-108183313D01*
X191739658Y-107879882D01*
X191742530Y-107873244D01*
X191859249Y-107554293D01*
X191861345Y-107547351D01*
X191940631Y-107217103D01*
X191941915Y-107209964D01*
X191982816Y-106871973D01*
X191983240Y-106866403D01*
X191989010Y-106682797D01*
X191988937Y-106677204D01*
X191969338Y-106337303D01*
X191968506Y-106330113D01*
X191910113Y-105995529D01*
X191908458Y-105988474D01*
X191811998Y-105662834D01*
X191809540Y-105656006D01*
X191676290Y-105343608D01*
X191673073Y-105337125D01*
X191504788Y-105042089D01*
X191500856Y-105036034D01*
X191299774Y-104762295D01*
X191295166Y-104756726D01*
X191289830Y-104750984D01*
X191276178Y-104742866D01*
X191275570Y-104742887D01*
X191267092Y-104748119D01*
X189348020Y-106667190D01*
X189340408Y-106681131D01*
X188610357Y-106681131D01*
X188611592Y-106678869D01*
X188611461Y-106677034D01*
X188607210Y-106670420D01*
X186688374Y-104751585D01*
X186675581Y-104744599D01*
X186664827Y-104752464D01*
X186504037Y-104957527D01*
X186499902Y-104963476D01*
X186322440Y-105253068D01*
X186319019Y-105259447D01*
X186176016Y-105567522D01*
X186173356Y-105574241D01*
X186066711Y-105896707D01*
X186064835Y-105903708D01*
X186052383Y-105963835D01*
X186018982Y-106026484D01*
X185957013Y-106061130D01*
X185886150Y-106056773D01*
X185828892Y-106014796D01*
X185808190Y-105974069D01*
X185715998Y-105662834D01*
X185713540Y-105656006D01*
X185580290Y-105343608D01*
X185577073Y-105337125D01*
X185408788Y-105042089D01*
X185404856Y-105036034D01*
X185203774Y-104762295D01*
X185199166Y-104756726D01*
X185193830Y-104750984D01*
X185180178Y-104742866D01*
X185179570Y-104742887D01*
X185171092Y-104748119D01*
X183252020Y-106667190D01*
X183244408Y-106681131D01*
X182514357Y-106681131D01*
X182515592Y-106678869D01*
X182515461Y-106677034D01*
X182511210Y-106670420D01*
X180592374Y-104751585D01*
X180579581Y-104744599D01*
X180568827Y-104752464D01*
X180408037Y-104957527D01*
X180403902Y-104963476D01*
X180226440Y-105253068D01*
X180223019Y-105259447D01*
X180080016Y-105567522D01*
X180077356Y-105574241D01*
X179970711Y-105896707D01*
X179968834Y-105903711D01*
X179899961Y-106236288D01*
X179898904Y-106243449D01*
X179868712Y-106581735D01*
X179868484Y-106588987D01*
X121920000Y-106588987D01*
X121920000Y-105953773D01*
X171306350Y-105953773D01*
X171307514Y-105962674D01*
X171307514Y-105962678D01*
X171310437Y-105985026D01*
X171311501Y-106001364D01*
X171311501Y-106235066D01*
X171326266Y-106309301D01*
X171333161Y-106319620D01*
X171333162Y-106319622D01*
X171373516Y-106380015D01*
X171382516Y-106393484D01*
X171466699Y-106449734D01*
X171540933Y-106464500D01*
X171807984Y-106464500D01*
X171810293Y-106464521D01*
X171870027Y-106465616D01*
X171870030Y-106465616D01*
X171878998Y-106465780D01*
X171882779Y-106464749D01*
X171886799Y-106464500D01*
X172775192Y-106464499D01*
X173107946Y-106464499D01*
X173110254Y-106464520D01*
X173110928Y-106464532D01*
X173170026Y-106465616D01*
X173170029Y-106465616D01*
X173178998Y-106465780D01*
X173182780Y-106464749D01*
X173186803Y-106464499D01*
X173391066Y-106464499D01*
X173426818Y-106457388D01*
X173453126Y-106452156D01*
X173453128Y-106452155D01*
X173465301Y-106449734D01*
X173475621Y-106442839D01*
X173475622Y-106442838D01*
X173539168Y-106400377D01*
X173549484Y-106393484D01*
X173605734Y-106309301D01*
X173620500Y-106235067D01*
X173620500Y-106012913D01*
X173622246Y-105992009D01*
X173624729Y-105977248D01*
X173625536Y-105972453D01*
X173625688Y-105960000D01*
X173621772Y-105932655D01*
X173620500Y-105914793D01*
X173620499Y-104912918D01*
X173622245Y-104892012D01*
X173624730Y-104877244D01*
X173624730Y-104877243D01*
X173625536Y-104872453D01*
X173625612Y-104866226D01*
X173625629Y-104864860D01*
X173625629Y-104864856D01*
X173625688Y-104860000D01*
X173621772Y-104832656D01*
X173620499Y-104814794D01*
X173620499Y-104584934D01*
X173605734Y-104510699D01*
X173549484Y-104426516D01*
X173481437Y-104381048D01*
X180945132Y-104381048D01*
X180951527Y-104392316D01*
X182130015Y-105570805D01*
X182867190Y-106307980D01*
X182881131Y-106315592D01*
X182882966Y-106315461D01*
X182889580Y-106311210D01*
X184807074Y-104393716D01*
X184813991Y-104381048D01*
X187041132Y-104381048D01*
X187047527Y-104392316D01*
X188226015Y-105570805D01*
X188963190Y-106307980D01*
X188977131Y-106315592D01*
X188978966Y-106315461D01*
X188985580Y-106311210D01*
X190903074Y-104393716D01*
X190910466Y-104380179D01*
X190903679Y-104370479D01*
X190800476Y-104282335D01*
X190794704Y-104277953D01*
X190512796Y-104088519D01*
X190506575Y-104084839D01*
X190204757Y-103929060D01*
X190198146Y-103926116D01*
X189880439Y-103806065D01*
X189873513Y-103803894D01*
X189544112Y-103721155D01*
X189537005Y-103719799D01*
X189200278Y-103675468D01*
X189193036Y-103674937D01*
X188853467Y-103669602D01*
X188846205Y-103669906D01*
X188508256Y-103703638D01*
X188501108Y-103704770D01*
X188169263Y-103777124D01*
X188162285Y-103779072D01*
X187840960Y-103889086D01*
X187834253Y-103891823D01*
X187527707Y-104038039D01*
X187521349Y-104041534D01*
X187233654Y-104222005D01*
X187227731Y-104226214D01*
X187049601Y-104368923D01*
X187041132Y-104381048D01*
X184813991Y-104381048D01*
X184814466Y-104380179D01*
X184807679Y-104370479D01*
X184704476Y-104282335D01*
X184698704Y-104277953D01*
X184416796Y-104088519D01*
X184410575Y-104084839D01*
X184108757Y-103929060D01*
X184102146Y-103926116D01*
X183784439Y-103806065D01*
X183777513Y-103803894D01*
X183448112Y-103721155D01*
X183441005Y-103719799D01*
X183104278Y-103675468D01*
X183097036Y-103674937D01*
X182757467Y-103669602D01*
X182750205Y-103669906D01*
X182412256Y-103703638D01*
X182405108Y-103704770D01*
X182073263Y-103777124D01*
X182066285Y-103779072D01*
X181744960Y-103889086D01*
X181738253Y-103891823D01*
X181431707Y-104038039D01*
X181425349Y-104041534D01*
X181137654Y-104222005D01*
X181131731Y-104226214D01*
X180953601Y-104368923D01*
X180945132Y-104381048D01*
X173481437Y-104381048D01*
X173465301Y-104370266D01*
X173391067Y-104355500D01*
X173124626Y-104355500D01*
X173123857Y-104355498D01*
X173046827Y-104355028D01*
X173045492Y-104355410D01*
X173044164Y-104355500D01*
X172195103Y-104355501D01*
X171824741Y-104355501D01*
X171823972Y-104355499D01*
X171746827Y-104355028D01*
X171745490Y-104355410D01*
X171744158Y-104355501D01*
X171540934Y-104355501D01*
X171505182Y-104362612D01*
X171478874Y-104367844D01*
X171478872Y-104367845D01*
X171466699Y-104370266D01*
X171456379Y-104377161D01*
X171456378Y-104377162D01*
X171433699Y-104392316D01*
X171382516Y-104426516D01*
X171326266Y-104510699D01*
X171311500Y-104584933D01*
X171311500Y-104810946D01*
X171310000Y-104830330D01*
X171307731Y-104844900D01*
X171307731Y-104844904D01*
X171306350Y-104853773D01*
X171307514Y-104862675D01*
X171307514Y-104862678D01*
X171310436Y-104885020D01*
X171311500Y-104901357D01*
X171311501Y-105910939D01*
X171310001Y-105930324D01*
X171307731Y-105944900D01*
X171307731Y-105944904D01*
X171306350Y-105953773D01*
X121920000Y-105953773D01*
X121920000Y-102587103D01*
X136432616Y-102587103D01*
X136449130Y-102918816D01*
X136449771Y-102922547D01*
X136449772Y-102922555D01*
X136463909Y-103004822D01*
X136505375Y-103246142D01*
X136600537Y-103564341D01*
X136602050Y-103567812D01*
X136602052Y-103567818D01*
X136668293Y-103719799D01*
X136733236Y-103868803D01*
X136735159Y-103872074D01*
X136735161Y-103872078D01*
X136899629Y-104151847D01*
X136899634Y-104151855D01*
X136901552Y-104155117D01*
X136903853Y-104158132D01*
X137071012Y-104377162D01*
X137103046Y-104419137D01*
X137105694Y-104421856D01*
X137105699Y-104421861D01*
X137332152Y-104654322D01*
X137334798Y-104657038D01*
X137337742Y-104659409D01*
X137337745Y-104659412D01*
X137537984Y-104820696D01*
X137593453Y-104865374D01*
X137672184Y-104914475D01*
X137867098Y-105036034D01*
X137875264Y-105041127D01*
X138176147Y-105181751D01*
X138491746Y-105285209D01*
X138817488Y-105350003D01*
X138821261Y-105350290D01*
X138821268Y-105350291D01*
X139144878Y-105374908D01*
X139144883Y-105374908D01*
X139148655Y-105375195D01*
X139480450Y-105360418D01*
X139808067Y-105305888D01*
X139811701Y-105304822D01*
X139811705Y-105304821D01*
X139988112Y-105253068D01*
X140126759Y-105212393D01*
X140431912Y-105081290D01*
X140719103Y-104914475D01*
X140984175Y-104714367D01*
X141223286Y-104483863D01*
X141273764Y-104421861D01*
X141430582Y-104229239D01*
X141430583Y-104229238D01*
X141432973Y-104226302D01*
X141434995Y-104223098D01*
X141608176Y-103948623D01*
X141608179Y-103948617D01*
X141610199Y-103945416D01*
X141752397Y-103645273D01*
X141857506Y-103330220D01*
X141924005Y-103004822D01*
X141950930Y-102673791D01*
X141951535Y-102616000D01*
X141949793Y-102587103D01*
X143036616Y-102587103D01*
X143053130Y-102918816D01*
X143053771Y-102922547D01*
X143053772Y-102922555D01*
X143067909Y-103004822D01*
X143109375Y-103246142D01*
X143204537Y-103564341D01*
X143206050Y-103567812D01*
X143206052Y-103567818D01*
X143272293Y-103719799D01*
X143337236Y-103868803D01*
X143339159Y-103872074D01*
X143339161Y-103872078D01*
X143503629Y-104151847D01*
X143503634Y-104151855D01*
X143505552Y-104155117D01*
X143507853Y-104158132D01*
X143675012Y-104377162D01*
X143707046Y-104419137D01*
X143709694Y-104421856D01*
X143709699Y-104421861D01*
X143936152Y-104654322D01*
X143938798Y-104657038D01*
X143941742Y-104659409D01*
X143941745Y-104659412D01*
X144141984Y-104820696D01*
X144197453Y-104865374D01*
X144276184Y-104914475D01*
X144471098Y-105036034D01*
X144479264Y-105041127D01*
X144780147Y-105181751D01*
X145095746Y-105285209D01*
X145421488Y-105350003D01*
X145425261Y-105350290D01*
X145425268Y-105350291D01*
X145748878Y-105374908D01*
X145748883Y-105374908D01*
X145752655Y-105375195D01*
X146084450Y-105360418D01*
X146412067Y-105305888D01*
X146415701Y-105304822D01*
X146415705Y-105304821D01*
X146592112Y-105253068D01*
X146730759Y-105212393D01*
X147035912Y-105081290D01*
X147323103Y-104914475D01*
X147588175Y-104714367D01*
X147827286Y-104483863D01*
X147877764Y-104421861D01*
X148034582Y-104229239D01*
X148034583Y-104229238D01*
X148036973Y-104226302D01*
X148038995Y-104223098D01*
X148212176Y-103948623D01*
X148212179Y-103948617D01*
X148214199Y-103945416D01*
X148356397Y-103645273D01*
X148461506Y-103330220D01*
X148528005Y-103004822D01*
X148554930Y-102673791D01*
X148555535Y-102616000D01*
X148535549Y-102284478D01*
X148534869Y-102280754D01*
X148476559Y-101961481D01*
X148476558Y-101961477D01*
X148475879Y-101957759D01*
X148467177Y-101929732D01*
X148378513Y-101644189D01*
X148377391Y-101640574D01*
X148366913Y-101617203D01*
X148243065Y-101340987D01*
X148241510Y-101337518D01*
X148070205Y-101052982D01*
X148067878Y-101049998D01*
X148067873Y-101049991D01*
X147868294Y-100794082D01*
X147868292Y-100794079D01*
X147865958Y-100791087D01*
X147631726Y-100555626D01*
X147610865Y-100539180D01*
X147373885Y-100352360D01*
X147370904Y-100350010D01*
X147087269Y-100177218D01*
X146966654Y-100122378D01*
X146788381Y-100041321D01*
X146788373Y-100041318D01*
X146784929Y-100039752D01*
X146468264Y-99939604D01*
X146323680Y-99912415D01*
X146145585Y-99878925D01*
X146145580Y-99878924D01*
X146141861Y-99878225D01*
X145810449Y-99856503D01*
X145806669Y-99856711D01*
X145806668Y-99856711D01*
X145711655Y-99861940D01*
X145478827Y-99874753D01*
X145475100Y-99875414D01*
X145475096Y-99875414D01*
X145216396Y-99921263D01*
X145151799Y-99932711D01*
X145148174Y-99933816D01*
X145148169Y-99933817D01*
X144901671Y-100008945D01*
X144834103Y-100029538D01*
X144530341Y-100163830D01*
X144244911Y-100333642D01*
X143981950Y-100536515D01*
X143979249Y-100539174D01*
X143979242Y-100539180D01*
X143747974Y-100766845D01*
X143745266Y-100769511D01*
X143538287Y-101029253D01*
X143364012Y-101311980D01*
X143224965Y-101613596D01*
X143123161Y-101929732D01*
X143060073Y-102255808D01*
X143059806Y-102259584D01*
X143059805Y-102259589D01*
X143036884Y-102583314D01*
X143036616Y-102587103D01*
X141949793Y-102587103D01*
X141931549Y-102284478D01*
X141930869Y-102280754D01*
X141872559Y-101961481D01*
X141872558Y-101961477D01*
X141871879Y-101957759D01*
X141863177Y-101929732D01*
X141774513Y-101644189D01*
X141773391Y-101640574D01*
X141762913Y-101617203D01*
X141639065Y-101340987D01*
X141637510Y-101337518D01*
X141466205Y-101052982D01*
X141463878Y-101049998D01*
X141463873Y-101049991D01*
X141264294Y-100794082D01*
X141264292Y-100794079D01*
X141261958Y-100791087D01*
X141027726Y-100555626D01*
X141006865Y-100539180D01*
X140769885Y-100352360D01*
X140766904Y-100350010D01*
X140483269Y-100177218D01*
X140362654Y-100122378D01*
X140184381Y-100041321D01*
X140184373Y-100041318D01*
X140180929Y-100039752D01*
X139864264Y-99939604D01*
X139719680Y-99912415D01*
X139541585Y-99878925D01*
X139541580Y-99878924D01*
X139537861Y-99878225D01*
X139206449Y-99856503D01*
X139202669Y-99856711D01*
X139202668Y-99856711D01*
X139107655Y-99861940D01*
X138874827Y-99874753D01*
X138871100Y-99875414D01*
X138871096Y-99875414D01*
X138612396Y-99921263D01*
X138547799Y-99932711D01*
X138544174Y-99933816D01*
X138544169Y-99933817D01*
X138297671Y-100008945D01*
X138230103Y-100029538D01*
X137926341Y-100163830D01*
X137640911Y-100333642D01*
X137377950Y-100536515D01*
X137375249Y-100539174D01*
X137375242Y-100539180D01*
X137143974Y-100766845D01*
X137141266Y-100769511D01*
X136934287Y-101029253D01*
X136760012Y-101311980D01*
X136620965Y-101613596D01*
X136519161Y-101929732D01*
X136456073Y-102255808D01*
X136455806Y-102259584D01*
X136455805Y-102259589D01*
X136432884Y-102583314D01*
X136432616Y-102587103D01*
X121920000Y-102587103D01*
X121920000Y-97662000D01*
X121940002Y-97593879D01*
X121993658Y-97547386D01*
X122046000Y-97536000D01*
X192406000Y-97536000D01*
X192474121Y-97556002D01*
G37*
G04 #@! TD.AperFunction*
M02*
