M48
; DRILL file {KiCad 6.0.8-f2edbf62ab~116~ubuntu20.04.1} date Mon 14 Nov 2022 08:51:26 PM EST
; FORMAT={-:-/ absolute / metric / decimal}
; #@! TF.CreationDate,2022-11-14T20:51:26-05:00
; #@! TF.GenerationSoftware,Kicad,Pcbnew,6.0.8-f2edbf62ab~116~ubuntu20.04.1
; #@! TF.FileFunction,Plated,1,2,PTH
FMAT,2
METRIC
; #@! TA.AperFunction,Plated,PTH,ComponentDrill
T1C0.200
; #@! TA.AperFunction,Plated,PTH,ViaDrill
T2C0.400
; #@! TA.AperFunction,Plated,PTH,ComponentDrill
T3C1.200
; #@! TA.AperFunction,Plated,PTH,ComponentDrill
T4C2.500
%
G90
G05
T1
X171.816Y-104.86
X171.816Y-105.96
X173.116Y-104.86
X173.116Y-105.96
T2
X172.466Y-109.22
X174.752Y-101.6
X176.276Y-101.6
T4
X139.192Y-102.616
X145.796Y-102.616
X156.972Y-111.506
X164.084Y-111.506
X182.88Y-106.68
X182.88Y-112.776
X188.976Y-106.68
X188.976Y-112.776
T3
X135.284Y-108.331G85X134.083Y-108.331
G05
X135.284Y-111.331G85X134.083Y-111.331
G05
X139.284Y-108.331G85X138.083Y-108.331
G05
X139.284Y-111.331G85X138.083Y-111.331
G05
X143.284Y-108.331G85X142.083Y-108.331
G05
X143.284Y-111.331G85X142.083Y-111.331
G05
T0
M30
